<svg width="111" height="117" viewBox="0 0 111 117" fill="none" xmlns="http://www.w3.org/2000/svg">
<path fill-rule="evenodd" clip-rule="evenodd" d="M38.4992 92.0488C18.3367 74.024 10.0877 50.5314 21.7631 28.5881C35.7573 2.28663 40.5492 41.7259 62.0387 34.7427C83.5282 27.7594 112.16 45.1173 97.5155 76.0458C83.8062 104.999 58.6617 110.074 38.4992 92.0488Z" fill="#5FD788"/>
<path d="M83.5204 42.8572H39.636C38.4723 42.8572 37.3556 42.3555 36.5329 41.4626C35.7102 40.5698 35.2477 39.3579 35.2477 38.0954V28.5716C35.2477 27.695 35.9027 26.9843 36.7105 26.9843H86.4461C86.834 26.9843 87.2063 27.1515 87.4806 27.4491C87.7548 27.7467 87.909 28.1506 87.909 28.5716V38.0954C87.909 39.3581 87.4466 40.5699 86.6238 41.4626C85.8009 42.3553 84.6842 42.8572 83.5206 42.8572H83.5204ZM38.1732 30.1588V38.0953C38.1732 38.5162 38.3273 38.9201 38.6016 39.2177C38.8759 39.5153 39.2481 39.6826 39.636 39.6826H83.5204C83.9083 39.6826 84.2806 39.5153 84.5548 39.2177C84.8291 38.9201 84.9832 38.5162 84.9832 38.0953V30.1588H38.1732Z" fill="#424B25"/>
<path d="M83.5204 100H39.636C39.1142 99.9986 38.6329 99.6967 38.3723 99.2064C37.9466 98.4127 27.9335 79.6436 27.9335 66.6658C27.9238 62.8697 28.8733 59.1431 30.6783 55.8912C32.484 52.6393 35.0759 49.9862 38.1732 48.2212V41.269H41.0989V49.2055C41.0989 49.8404 40.7501 50.4144 40.2127 50.6645C37.419 52.0995 35.0576 54.3643 33.4022 57.1966C31.7467 60.0289 30.8651 63.3119 30.8592 66.6658C30.8592 77.3724 38.6036 93.142 40.489 96.8245H82.6682C84.5535 93.1418 92.298 77.3615 92.298 66.6658C92.2915 63.3105 91.4086 60.026 89.7519 57.1937C88.0945 54.3614 85.7311 52.0965 82.936 50.6623C82.4025 50.4101 82.0577 49.8375 82.0583 49.2054V41.2689H84.984V48.2211C88.0813 49.9863 90.6732 52.6393 92.4789 55.8911C94.2839 59.143 95.2335 62.8696 95.2236 66.6657C95.2236 79.6433 85.2105 98.4118 84.7848 99.2063C84.5243 99.6967 84.043 99.9986 83.5212 100L83.5204 100Z" fill="#424B25"/>
<path d="M79.132 92.0635H44.0244C43.4093 92.0635 42.8601 91.6461 42.6491 91.019C42.4154 90.2955 36.7104 73.2015 36.7104 65.0797C36.7261 62.4535 37.5796 59.9138 39.1267 57.8937C40.6737 55.8736 42.8183 54.498 45.1948 54.0005C45.2908 53.9786 45.3887 53.968 45.4873 53.9687H77.6692C77.7678 53.968 77.8658 53.9786 77.9618 54.0005C80.3382 54.498 82.4828 55.8734 84.0299 57.8937C85.5769 59.914 86.4304 62.4537 86.4461 65.0797C86.4461 73.2018 80.7411 90.2952 80.5074 91.019C80.2965 91.6461 79.7473 92.0635 79.1321 92.0635H79.132ZM45.0593 88.8889H78.0971C79.3366 85.0396 83.5201 71.559 83.5201 65.0793C83.5064 63.2099 82.9023 61.4022 81.8078 59.9575C80.714 58.5134 79.197 57.5198 77.5095 57.1428H45.6503C43.9674 57.5304 42.4556 58.5268 41.3625 59.9688C40.2699 61.4108 39.6606 63.2128 39.6352 65.0793C39.6352 71.559 43.8185 85.0394 45.0581 88.8889H45.0593Z" fill="#424B25"/>
<path d="M70.3551 92.0635H52.8013C51.9935 92.0635 51.3385 91.3528 51.3385 90.4762V80.9524C51.3385 80.0759 51.9935 79.3651 52.8013 79.3651H70.3551C70.743 79.3651 71.1152 79.5323 71.3895 79.83C71.6638 80.1276 71.8179 80.5315 71.8179 80.9524V90.4762C71.8179 90.8971 71.6638 91.3011 71.3895 91.5987C71.1152 91.8963 70.743 92.0635 70.3551 92.0635ZM54.2641 88.8889H68.8923V82.5397H54.2641V88.8889Z" fill="#424B25"/>
<path d="M61.5782 76.1905C60.0266 76.1905 58.5382 75.5216 57.4405 74.3311C56.3434 73.1399 55.7269 71.5249 55.7269 69.8413C55.7269 66.7603 59.6941 61.8063 60.4895 60.8446C60.7742 60.5229 61.1674 60.3408 61.5781 60.3408C61.9889 60.3408 62.382 60.5229 62.6667 60.8446C63.4622 61.8062 67.4293 66.7601 67.4293 69.8413C67.4293 71.5249 66.8129 73.14 65.7157 74.3311C64.618 75.5216 63.1297 76.1905 61.5781 76.1905H61.5782ZM61.5782 64.3637C60.0259 66.4684 58.6526 68.8301 58.6526 69.8413C58.6526 70.9758 59.2102 72.0238 60.1154 72.5907C61.0205 73.1576 62.1359 73.1576 63.041 72.5907C63.9461 72.0238 64.5038 70.9757 64.5038 69.8413C64.5038 68.857 63.1318 66.4775 61.5782 64.3637Z" fill="#424B25"/>
<path d="M60.1155 74.6031H63.0411V80.9524H60.1155V74.6031Z" fill="#424B25"/>
<path d="M54.2641 19.0476H51.3385C51.3385 18.1555 51.0211 17.7778 50.3041 16.9956C49.1077 15.9468 48.413 14.3673 48.413 12.6984C48.413 11.0295 49.1078 9.45016 50.3041 8.40127C51.0211 7.61896 51.3385 7.24127 51.3385 6.34921C51.3385 5.45714 51.0211 5.07936 50.3041 4.29714C49.1221 3.23634 48.4298 1.66458 48.413 0H51.3386C51.3386 0.892154 51.656 1.26984 52.373 2.05206C53.555 3.11287 54.2472 4.68463 54.2641 6.34921C54.2472 8.01375 53.5549 9.58549 52.373 10.6463C51.656 11.4287 51.3386 11.8063 51.3386 12.6984C51.3386 13.5905 51.656 13.9683 52.373 14.7505C53.555 15.8113 54.2472 17.383 54.2641 19.0476Z" fill="#424B25"/>
<path d="M64.5038 19.0476H61.5781C61.5781 18.1555 61.2608 17.7778 60.5437 16.9956C59.3474 15.9468 58.6526 14.3673 58.6526 12.6984C58.6526 11.0295 59.3474 9.45016 60.5437 8.40127C61.2608 7.61896 61.5781 7.24127 61.5781 6.34921C61.5781 5.45714 61.2608 5.07936 60.5437 4.29714C59.3617 3.23634 58.6695 1.66458 58.6526 0H61.5782C61.5782 0.892154 61.8956 1.26984 62.6126 2.05206C63.7946 3.11287 64.4869 4.68463 64.5038 6.34921C64.4868 8.01375 63.7946 9.58549 62.6126 10.6463C61.8956 11.4287 61.5782 11.8063 61.5782 12.6984C61.5782 13.5905 61.8956 13.9683 62.6126 14.7505C63.7946 15.8113 64.4869 17.383 64.5038 19.0476Z" fill="#424B25"/>
<path d="M74.7435 19.0476H71.8179C71.8179 18.1555 71.5005 17.7778 70.7835 16.9956C69.5871 15.9468 68.8923 14.3673 68.8923 12.6984C68.8923 11.0295 69.5872 9.45016 70.7835 8.40127C71.5005 7.61896 71.8179 7.24127 71.8179 6.34921C71.8179 5.45714 71.5005 5.07936 70.7835 4.29714C69.6015 3.23634 68.9092 1.66458 68.8923 0H71.818C71.818 0.892154 72.1353 1.26984 72.8524 2.05206C74.0344 3.11287 74.7266 4.68463 74.7435 6.34921C74.7265 8.01375 74.0343 9.58549 72.8524 10.6463C72.1353 11.4287 71.818 11.8063 71.818 12.6984C71.818 13.5905 72.1353 13.9683 72.8524 14.7505C74.0344 15.8113 74.7266 17.383 74.7435 19.0476Z" fill="#424B25"/>
<path d="M36.7104 33.3333H82.0577V36.5079H36.7104V33.3333Z" fill="#424B25"/>
</svg>
