<svg width="111" height="116" viewBox="0 0 111 116" fill="none" xmlns="http://www.w3.org/2000/svg">
<path fill-rule="evenodd" clip-rule="evenodd" d="M38.3523 91.0488C18.1898 73.024 9.94088 49.5314 21.6162 27.5881C35.6105 1.28663 40.4024 40.7259 61.8919 33.7427C83.3813 26.7594 112.013 44.1173 97.3687 75.0458C83.6594 103.999 58.5149 109.074 38.3523 91.0488Z" fill="white"/>
<path d="M88.5418 58.6781H82.8298C82.094 58.6781 81.4969 58.0303 81.4969 57.2319V50.0006C81.4969 47.4939 83.3758 45.4553 85.6858 45.4553C87.9957 45.4553 89.8746 47.4941 89.8746 50.0006V57.2319C89.8746 58.0303 89.2775 58.6781 88.5418 58.6781H88.5418ZM84.1626 55.7857H87.209V50.0007C87.209 49.0894 86.5256 48.3478 85.6858 48.3478C84.846 48.3478 84.1626 49.0894 84.1626 50.0007V55.7857Z" fill="#424B25"/>
<path d="M55.2221 99.9999H55.2215L55.0188 99.9991C47.674 99.943 40.7418 96.7944 35.5005 91.1341C30.2576 85.4737 27.3225 77.9672 27.235 69.9982C27.1187 59.4109 31.9666 49.6915 40.2035 43.9981C45.1963 40.5463 48.1775 34.6808 48.1775 28.307C48.1775 27.5086 48.7745 26.8607 49.5103 26.8607H60.9346C61.6704 26.8607 62.2674 27.5086 62.2674 28.307C62.2674 34.694 65.2329 40.5493 70.2004 43.9694C74.6477 47.0316 78.198 51.3682 80.4721 56.5142C80.5836 56.7252 80.6475 56.9709 80.6475 57.2321C80.6475 57.9988 80.0981 58.626 79.4031 58.6754L79.4038 61.9842H81.2623C81.8886 61.9842 82.4312 62.4579 82.5645 63.122C82.6135 63.3662 82.6618 63.6105 82.7046 63.8562C82.7753 64.2569 82.6876 64.6708 82.4619 64.997L77.4998 72.1767V87.5224C77.4998 87.8471 77.3991 88.1629 77.2135 88.4182C71.8658 95.7779 63.8497 100 55.2232 100L55.2221 99.9999ZM50.798 29.752C50.3798 36.5532 47.0212 42.7137 41.6347 46.4364C34.1818 51.5882 29.7942 60.3832 29.8997 69.9638C30.0629 84.8248 41.3396 97.0009 55.0374 97.1067L55.221 97.1074C62.8746 97.1074 69.9957 93.435 74.8334 87.0138V71.6944C74.8334 71.3816 74.9265 71.0768 75.0999 70.8267L79.2127 64.8763H78.0702C77.3345 64.8763 76.7374 64.2285 76.7374 63.4301V57.2319C76.7374 56.7641 76.9414 56.3487 77.259 56.0845C75.2095 52.1618 72.303 48.8436 68.771 46.4116C63.4057 42.7176 60.0607 36.5667 59.6444 29.7529L50.798 29.752Z" fill="#424B25"/>
<path d="M90.065 99.9999H81.3065C77.7371 99.9999 74.8326 96.8483 74.8326 92.9751V71.6937C74.8326 70.8953 75.4297 70.2474 76.1655 70.2474H95.2068C95.9426 70.2474 96.5396 70.8953 96.5396 71.6937V92.9751C96.5396 96.8483 93.6352 99.9999 90.0658 99.9999H90.065ZM77.4982 73.1403V92.9747C77.4982 95.2532 79.2064 97.1069 81.3063 97.1069H90.0648C92.1646 97.1069 93.8729 95.2533 93.8729 92.9747V73.1403H77.4982Z" fill="#424B25"/>
<path d="M95.2057 73.1403H76.1644C75.6598 73.1403 75.1981 72.8311 74.9723 72.3411C74.7465 71.8512 74.7955 71.2645 75.0981 70.8262L80.8102 62.5619C81.0618 62.1981 81.4569 61.9834 81.8764 61.9834H89.4926C89.9122 61.9834 90.3073 62.1974 90.5589 62.5619L96.2709 70.8262C96.5736 71.2645 96.6225 71.8512 96.3967 72.3411C96.171 72.8311 95.7092 73.1403 95.2047 73.1403H95.2057ZM78.831 70.2478H92.5401L88.8273 64.8759H82.5439L78.831 70.2478Z" fill="#424B25"/>
<path d="M93.303 64.8759H78.0706C77.3348 64.8759 76.7378 64.2281 76.7378 63.4297V57.2315C76.7378 56.4331 77.3348 55.7853 78.0706 55.7853H93.303C94.0388 55.7853 94.6358 56.4331 94.6358 57.2315V63.4297C94.6358 64.2281 94.0387 64.8759 93.303 64.8759ZM79.4034 61.9835H91.9702V58.6778H79.4034V61.9835Z" fill="#424B25"/>
<path d="M102.822 99.9999H17.1395C16.4037 99.9999 15.8066 99.3521 15.8066 98.5537C15.8066 97.7553 16.4037 97.1074 17.1395 97.1074H102.822C103.558 97.1074 104.155 97.7553 104.155 98.5537C104.155 99.3521 103.558 99.9999 102.822 99.9999Z" fill="#424B25"/>
<path d="M59.0293 29.752H51.4131C50.6773 29.752 50.0803 29.1041 50.0803 28.3057V21.8964C48.8447 22.9619 47.3071 23.5537 45.701 23.5537C43.7964 23.5537 42.0195 22.742 40.7029 21.2973C40.1562 21.4242 39.5986 21.4877 39.0369 21.4877C34.627 21.4877 31.0398 17.5954 31.0398 12.81C31.0398 8.02463 34.6268 4.13236 39.0369 4.13236C40.909 4.13236 42.7137 4.85548 44.1342 6.12827C45.7914 3.61062 48.4829 2.06618 51.413 2.06618C53.4606 2.06618 55.4013 2.81144 56.9655 4.15956C58.3949 1.63303 60.9722 0 63.7894 0C67.3874 0 70.4311 2.55524 71.4348 6.11939C72.7112 4.8672 74.3936 4.13217 76.1657 4.13217C80.0499 4.13217 83.2108 7.56107 83.2108 11.7767C83.2108 15.9924 80.0501 19.4213 76.1657 19.4213C74.9063 19.4213 73.7007 19.0664 72.6419 18.4001C71.1119 21.511 68.083 23.5534 64.7415 23.5534C63.1917 23.5534 61.6861 23.1166 60.3622 22.3101V28.3054C60.3622 29.1038 59.7651 29.7516 59.0294 29.7516L59.0293 29.752ZM52.7459 26.8596H57.6965V19.308C57.6965 18.7066 58.0399 18.1679 58.5581 17.9554C59.077 17.7429 59.6625 17.9008 60.029 18.3517C61.2224 19.8193 62.9402 20.6613 64.7414 20.6613C67.5397 20.6613 70.0258 18.6218 70.7869 15.7012C70.9167 15.2039 71.2812 14.8194 71.743 14.6925C72.2054 14.5656 72.6943 14.7161 73.0262 15.0873C73.8578 16.017 74.9731 16.5291 76.1658 16.5291C78.5805 16.5291 80.545 14.3974 80.545 11.7772C80.545 9.15694 78.5805 7.02522 76.1658 7.02522C74.48 7.02522 72.9248 8.09516 72.2033 9.75179C71.9999 10.2189 71.5824 10.5325 71.1084 10.5753C70.6351 10.6173 70.1748 10.3834 69.9034 9.95914C69.764 9.74147 69.611 9.5297 69.4471 9.32973C69.2445 9.08106 69.1269 8.76377 69.1139 8.43246C68.9949 5.32601 66.6557 2.89318 63.7894 2.89318C61.4325 2.89318 59.3271 4.60729 58.6703 7.06219C58.5315 7.5824 58.1358 7.97421 57.6462 8.07825C57.1559 8.1823 56.654 7.98012 56.3446 7.55584C55.143 5.90591 53.3457 4.95923 51.4132 4.95923C48.8943 4.95923 46.6265 6.58554 45.6351 9.10179C45.4474 9.57919 45.0374 9.9105 44.562 9.97029C44.0867 10.0308 43.6182 9.80795 43.3353 9.38958C42.333 7.90938 40.7261 7.02531 39.037 7.02531C36.0972 7.02531 33.7057 9.62041 33.7057 12.8104C33.7057 16.0003 36.0972 18.5954 39.037 18.5954C39.6143 18.5954 40.1855 18.4943 40.7343 18.2943C41.2749 18.0973 41.872 18.2958 42.2181 18.788C43.0552 19.9789 44.3249 20.6615 45.7012 20.6615C46.9912 20.6615 48.2104 20.0468 49.0455 18.9754C49.3529 18.5814 49.8302 18.3947 50.2981 18.4862C50.6721 18.5592 51.0468 18.5954 51.4133 18.5954C52.1491 18.5954 52.7461 19.2433 52.7461 20.0416L52.7459 26.8596Z" fill="#424B25"/>
<path d="M55.2221 91.7355C43.9882 91.7355 34.849 81.8183 34.849 69.6286C34.849 68.8302 35.4461 68.1824 36.1818 68.1824C36.9176 68.1824 37.5146 68.8302 37.5146 69.6286C37.5146 80.2232 45.4586 88.8434 55.2225 88.8434C55.9583 88.8434 56.5553 89.4913 56.5553 90.2897C56.5553 91.0881 55.9583 91.7359 55.2225 91.7359L55.2221 91.7355Z" fill="#424B25"/>
<path d="M55.2222 66.9425C52.3872 66.9425 50.0813 64.4403 50.0813 61.3641C50.0813 58.2879 52.3872 55.7857 55.2222 55.7857C58.0571 55.7857 60.3631 58.2879 60.3631 61.3641C60.3631 64.4403 58.0571 66.9425 55.2222 66.9425ZM55.2222 58.6781C53.8574 58.6781 52.7469 59.8831 52.7469 61.3641C52.7469 62.8451 53.8573 64.05 55.2222 64.05C56.587 64.05 57.6975 62.8451 57.6975 61.3641C57.6975 59.8831 56.587 58.6781 55.2222 58.6781Z" fill="#424B25"/>
<path d="M63.7906 87.6023C60.4306 87.6023 57.6976 84.6368 57.6976 80.9909C57.6976 77.3449 60.4306 74.3794 63.7906 74.3794C67.1506 74.3794 69.8835 77.3449 69.8835 80.9909C69.8835 84.6368 67.1506 87.6023 63.7906 87.6023ZM63.7906 77.2718C61.9009 77.2718 60.3632 78.9402 60.3632 80.9909C60.3632 83.0416 61.9007 84.7099 63.7906 84.7099C65.6804 84.7099 67.2179 83.0416 67.2179 80.9909C67.2179 78.9402 65.6804 77.2718 63.7906 77.2718Z" fill="#424B25"/>
<path d="M95.2057 89.6689H81.8775C81.1417 89.6689 80.5447 89.021 80.5447 88.2226C80.5447 87.4242 81.1417 86.7764 81.8775 86.7764H95.2057C95.9415 86.7764 96.5386 87.4242 96.5386 88.2226C96.5386 89.021 95.9415 89.6689 95.2057 89.6689Z" fill="#424B25"/>
</svg>
