<svg width="260" height="564" viewBox="0 0 260 564" fill="none" xmlns="http://www.w3.org/2000/svg">
<path d="M236.372 461.31C240.558 463.735 244.698 466.3 249.209 468.399C243.907 469.332 238.512 464.108 233.302 462.523C231.395 463.362 229.628 464.295 227.488 464.901C231.395 468.492 236.884 470.404 241.767 472.969C232.605 473.249 225.86 462.336 215.814 467.839C219.395 470.684 225.023 473.342 228 475.627C223.023 476.653 217.814 469.332 212.047 468.725C207.674 468.259 203.674 470.917 198.233 470.777C202.14 471.477 205.442 476.187 210 476.84C214.233 477.446 218.884 475.627 221.256 479.451C217.442 478.192 214.233 478.425 209.395 478.612C211.163 480.291 212.977 482.016 214.512 483.928C220.558 484.581 227.302 484.441 230.372 488.405C226.093 487.519 222.419 485.934 217.07 486.26C217.674 487.752 220.372 490.177 221.535 492.322C226.279 492.975 231.349 493.255 234.233 495.913C231.581 496.286 227.86 494.608 224.419 494.608C224.372 496.426 226.93 498.385 228.465 499.644C232.279 499.691 237.209 498.572 239.628 500.157C238.326 501.043 233.116 501.323 230.977 501.276C231.86 503.002 233.535 503.841 234.651 505.287C232.093 506.08 229.628 503.795 227.907 502.442C227.209 504.028 227.907 506.872 227.163 508.411C225.488 504.308 226.372 498.245 222.093 496.426C221.581 499.504 221.674 503.142 221.86 506.872C218.93 504.447 220.93 497.685 219.535 493.722C218.512 490.83 216 489.991 215.07 487.659C213.907 491.856 214.651 496.986 214.279 500.577C211.814 497.779 212.791 490.084 213.256 485.98C211.442 483.462 209.581 481.037 207.023 479.311C207.209 483.509 206.512 486.26 206.884 491.157C203.395 488.172 206.279 480.804 204.512 477.306C203.116 474.601 200.698 475.068 198.093 473.435C199.209 476.327 200.093 481.363 198.977 484.534C196.744 481.363 197.907 474.461 194.93 472.176C182.651 473.062 172.651 473.109 163.721 473.995C165.209 475.487 166.558 477.446 168.791 478.659C174 481.41 183.395 479.265 188.419 482.296C187.349 483.415 185.767 482.016 184.233 481.783C180.605 481.27 175.907 481.97 172.047 480.944C173.395 483.042 174.512 486.446 177.581 487.659C182.698 489.664 192.186 485.421 193.442 492.136C189.814 488.312 183.07 489.524 179.07 489.338C180.558 492.322 182.837 494.468 184.651 497.079C189.395 499.038 198.698 496.007 202.465 499.038C201.488 500.623 200.512 498.945 198.977 498.851C195.07 498.572 189.814 500.25 186.14 499.084C186.419 501.463 188.186 502.162 188.465 504.541C193.581 504.727 200.884 505.427 205.302 507.572C200.744 508.132 195.907 505.753 190.326 506.546C190.372 507.992 192.233 510.557 193.023 512.329C200.512 513.821 208.372 514.94 211.535 521.236C206.512 517.459 201.07 514.754 194.512 514.381C195.535 517.505 197.86 519.184 199.023 522.169C205.721 523.708 212.558 525.06 216.093 530.097C211.907 527.672 207.442 525.48 201.581 524.827C202.093 526.925 205.349 529.211 206.419 531.915C202.14 530.656 201.116 525.806 198 523.241C197.116 527.159 196.698 531.775 198.233 535.413C193.907 532.988 195.86 525.293 196.512 521.189C195.488 518.764 194.093 516.806 192.419 515.127C190 518.811 190.093 525.62 191.116 531.915C188.512 530.936 188.558 526.879 188.651 524.034C188.791 519.977 190 514.987 191.628 513.075C190 510.37 188.512 507.479 186.744 504.96C184.837 509.95 183.302 518.251 184.512 523.894C179.86 519.557 184.14 509.018 185.256 502.955C183.907 500.53 182.093 498.618 180.791 496.193C177.209 499.924 177.302 509.857 178.14 513.728C173.395 508.785 177.349 499.084 178.977 493.815C176.837 490.784 174.233 488.312 172 485.421C170 490.877 171.256 499.877 171.488 504.634C168.791 502.349 169.163 497.033 169.163 492.183C169.209 485.607 171.023 480.944 164.744 479.125C164.512 486.307 164.186 489.245 164.791 495.167C160.093 487.659 166.791 475.721 156.512 473.948C151.395 473.062 144.093 475.441 137.07 474.508C138.698 483.275 154.744 477.073 158.744 484.301C154.233 481.317 147.953 481.55 141.581 481.27C142.326 483.602 142.791 484.628 143.907 486.027C148.698 487.846 156.884 485.887 159.395 490.177C155.209 488.125 149.907 489.245 144.372 488.452C144.651 498.292 156.372 493.768 162.465 496.659C161.767 497.965 160.279 496.566 158.977 496.473C154.465 497.219 150.837 497.872 147.535 496.659C148.977 503.095 154.791 505.66 161.907 506.453C164.047 506.686 166.837 505.66 168.558 507.525C162.93 508.411 156.279 507.339 151.07 504.867C152 515.78 162.047 516.666 172.186 517.459C168.047 518.671 159.721 518.391 155.442 516.153C156.093 518.624 157.163 520.583 158.186 522.635C159.721 522.915 160.465 524.407 162.465 524.873C166.233 525.806 171.86 523.801 173.349 527.485C168.884 525.946 164.651 527.951 160.419 525.993C162.372 535.926 179.442 531.123 182.558 538.537C177.86 535.273 170.605 535.553 165.302 533.781C170.14 540.31 176.465 545.16 180.744 552.248C174.93 547.212 170 541.149 163.674 536.672C162.605 541.382 163.767 545.253 164.605 549.17C158 545.113 165.814 533.081 159.86 529.164C157.674 532.242 156.558 537.418 156.977 541.849C153.209 537.698 157.302 530.843 158.372 526.786C157.163 524.827 156.047 522.775 154.605 521.049C152.279 524.594 151.07 529.164 150.698 534.48C147.488 530.749 151.767 522.775 153.442 518.671C152.093 516.386 150.791 514.054 149.953 511.163C147.395 514.381 145.116 517.832 144.93 523.241C141.907 519.65 145.814 514.148 147.535 511.629C148.837 507.339 146.698 503.608 145.256 500.25C143.349 504.401 140.372 509.344 137.442 511.443C140.093 504.308 147.581 497.546 140.93 489.338C138.837 493.535 137.349 498.292 135.302 502.489C133.86 497.219 138.651 492.043 139.442 486.586C138.372 484.628 137.302 482.576 136.047 480.804C133.628 483.555 133.767 488.685 132.791 492.789C129.488 486.027 137.721 477.399 130.186 474.088C121.628 474.555 112.605 473.156 104.419 473.202C104.512 474.321 106.884 476.094 107.07 478.285C111.86 480.944 118.605 481.457 124.326 483.042C119.674 484.395 114.279 482.063 108.93 481.317C109.442 483.415 110.326 485.141 111.256 486.773C114.698 491.157 125.488 487.472 127.907 492.975C124.744 490.131 117.442 491.856 113.163 490.177C115.116 501.696 130.977 497.872 135.814 506.22C130.558 502.489 123.349 500.95 116.698 498.758C117.209 501.23 118.14 502.629 118.744 505.613C125.907 507.712 132.93 509.95 137.907 514.474C132.651 513.215 126.977 509.204 120.233 508.318C120.465 510.37 122.698 513.448 123.395 516.199C130.046 518.391 137.953 519.231 141.209 525.153C136.233 521.562 131.302 520.023 124.558 518.624C125.442 521.656 126.605 524.407 127.721 527.205C133.86 527.625 141.395 529.63 144.512 534.62C140 532.055 135.023 529.957 128.605 529.444C128.651 531.356 130.884 534.014 131.721 536.252C136.698 538.024 145.488 538.677 148.326 542.455C142.977 540.962 139.209 540.076 133.581 538.957C135.023 542.501 137.023 545.439 138.884 548.471C144.791 552.062 154.744 551.269 158.093 557.704C153.86 554.3 147.395 553.414 141.814 551.502C142.744 554.347 147.814 557.518 148.837 560.223C145.721 559.989 143.814 555.233 140.884 553.6C139.209 557.285 137.86 561.295 135.116 564C134.419 561.109 138.372 556.818 139.116 552.994C138.512 550.243 136 549.59 134.372 548.004C131.209 551.315 129.814 558.031 125.488 559.243C127.116 556.585 129.023 552.854 130.93 549.59C131.953 547.864 133.953 546.605 133.814 544.553C133.674 541.942 130.93 541.056 130.372 537.745C127.256 540.449 126.326 545.16 124.279 548.844C122.651 545.206 126.744 539.75 128.884 535.739C127.767 532.568 126.047 530.097 124.977 526.879C121.07 531.309 120.14 538.444 117.07 543.621C117.767 535.833 120.372 529.77 124.186 524.827C123.07 522.682 121.814 520.583 121.07 518.018C116.698 521.376 115.023 527.159 112.326 532.009C111.628 526.226 116.93 520.257 119.907 515.64C119.07 512.795 117.814 510.417 117.07 507.385C112.977 510.184 109.674 518.391 107.349 522.822C106.465 522.961 106.837 521.376 106.884 520.77C107.488 515.22 113.721 509.857 115.535 504.681C115.209 502.722 114 501.743 113.581 499.877C110.047 503.515 107.814 508.411 105.163 512.842C103.86 508.365 110.419 502.116 112.465 497.872C111.814 495.54 110.512 493.955 109.767 491.716C106.279 495.307 105.535 501.37 100.233 503.328C103.07 498.898 106.186 494.747 108.279 489.711C107.442 487.099 105.674 485.514 104.837 482.902C101.721 486.633 99.6279 492.975 94.5581 493.861C97.4418 489.431 105.814 483.648 101.116 477.539C98.3256 482.016 94.3721 485.374 90.5116 488.825C91.7674 482.949 98.2325 481.876 99.3023 475.86C97.3953 473.296 94.8837 475.954 92 476.187C90.4186 475.767 93.4419 474.275 93.9535 473.669C81.907 471.477 70.7442 472.969 57.1628 475.021C60.6511 480.617 76.186 473.902 80.6511 479.498C79.1628 480.85 77.3953 478.938 75.0698 478.705C70.6977 478.285 65.3023 480.197 61.2093 479.358C61.1628 483.928 71.2093 482.762 71.1163 482.716C76.5581 483.275 82 485.001 85.6279 488.312C80.9302 485.421 71.0232 485.421 64.2325 484.441C64.7442 485.934 65.8604 486.82 66.5116 488.172C74.7907 490.364 84.9767 490.55 89.5349 496.846C84.1395 492.509 75.1628 492.043 68.0465 490.55C70.0465 502.722 85.6744 499.877 92.4651 506.826C86.3721 503.795 78.1395 503.095 72.3256 499.737C72.186 500.763 73.6744 503.095 74.2791 504.541C76.9767 507.852 80.5581 509.717 85.0232 511.722C89.0232 513.495 94.2325 513.635 95.3953 518.205C89.907 514.287 82.3256 512.609 76.186 509.344C76.6046 512.189 78.1395 513.774 78.6046 516.573C87.6744 518.671 95.5814 525.2 100.884 532.615C96.0465 529.49 91.3488 523.801 85.3488 520.443C83.7209 519.51 81.6744 519.417 80.0465 518.578C79.9535 520.023 81.5349 522.822 82.4186 524.407C88.6512 527.811 94.7442 531.309 98 537.978C93.0232 534.574 89.2558 529.817 83.5814 527.159C86.7442 535.366 92.0465 541.289 96.0465 548.517C92.4186 546.792 90.9767 542.641 88.3256 539.797C86.186 541.709 87.7209 548.004 87.4418 550.662C83.7209 547.025 87.907 538.491 84.9767 534.76C82.3721 537.791 80.9767 541.988 80.6977 547.165C77.2558 542.828 81.9535 536.066 83.814 532.382C83.2558 530.796 82.2791 529.677 81.8604 527.951C77.8139 531.029 77.1163 537.185 74.5116 541.522C73.907 535.18 77.4884 529.863 80.7442 525.899C79.7674 523.801 78.8372 521.702 78 519.417C74.0465 522.915 72.8837 528.977 69.9535 533.408C69.2093 527.392 76.186 518.251 77.2558 518.438C76.6046 515.733 74.9767 514.148 74.4651 511.256C70.7907 514.054 66.6046 519.184 64.6511 524.594C63.0232 517.972 70.2325 513.728 72.9767 508.878C72.4186 506.453 70.9767 505.007 70.2791 502.722C65.7674 506.593 62.3256 513.215 56.6046 514.847C60.6046 509.95 66.0465 506.36 68.7907 500.344C68.3721 497.872 66.4186 497.079 66.093 494.561C62.3256 498.572 55.2093 508.598 54.9767 509.717C53.7209 506.406 57.1163 503.282 59.0698 500.81C61.3023 497.965 63.1163 495.307 64.5581 492.183C63.3953 490.084 62.186 487.985 60.7907 486.073C57.907 489.944 55.7674 496.333 55.907 500.95C52.0465 496.426 57.5814 488.219 59.3023 484.395C58.7907 482.996 57.5814 482.389 56.7442 481.363C53.7674 485.747 50.5116 489.897 49.8139 496.333C46.2791 490.41 53.7209 485.094 54.6046 479.731C54.2791 479.125 53.7674 478.705 53.1628 478.425C50.4651 480.617 49.2558 484.208 46.2325 486.073C45.8139 482.716 49.8604 480.804 50.6977 477.493C45.9535 476.14 41.3023 481.736 37.0232 482.996C32.9302 486.726 29.3023 500.437 23.7674 517.412C23.0697 516.619 22.3721 515.826 21.6744 515.034C21.0697 513.821 20.4186 512.609 19.8139 511.349C20.7907 511.349 20.6511 511.676 21.6279 511.256C22.3256 511.489 21.6279 513.215 22.4186 513.308C24.2791 511.023 21.1628 506.733 22.7442 504.914C24.6511 504.634 23.3953 506.733 24.5581 506.593C24.6511 504.028 23.7674 502.582 23.907 500.017C24.6976 499.178 26.0465 498.851 25.4883 496.799C24.8372 495.727 24.1395 496.986 23.3953 496.193C23.5349 494.328 25.0698 492.509 23.4884 490.97C26.2325 491.25 23.9535 486.959 27.1628 487.659C27.3488 489.058 26.4651 489.431 26.6046 490.83C27.2558 489.758 28.6046 487.892 29.6744 489.991C29.3488 488.778 30.3721 488.265 29.5814 487.566C29.2093 486.726 27.0698 487.892 27.4418 486.26C29.1628 485.374 30.7907 484.908 31.907 484.674C31.1163 483.742 27.9535 485.374 28.0465 483.462C28.7907 482.576 30.8837 482.949 31.8139 482.249C30.7442 482.296 30.0465 482.016 29.6744 481.317C30.9767 479.871 33.3953 481.596 34.093 479.358C32.9302 479.545 32.093 479.358 32.2791 478.052C33.6279 477.073 35.6279 478.752 36.0465 476.84C35.1628 476.56 33.6279 477.026 33.5814 475.907C36.3721 474.555 41.1163 475.487 45.3953 475.347C45.3023 474.461 44.6977 474.275 45.6744 473.948C54.5581 473.995 61.907 468.865 74 469.845C77.0232 469.798 74.6977 469.192 72.9302 469.565L67.7209 469.798C62.1395 469.984 54.2791 470.731 47.6744 472.13C44.4651 472.783 39.9535 475.301 37.5814 472.27C38.6046 471.01 38.6046 468.072 39.3953 466.627C40.8372 466.487 39.907 467.933 40.5116 467.979C40.7907 467 41.2558 466.207 41.4419 465.134C45.0232 462.196 48.2791 457.673 52.3721 453.476C56.3256 449.419 59.3953 444.615 62.5581 441.164C63.2093 440.418 65.9535 437.946 66.5581 437.853C66.9302 437.807 67.3953 438.646 67.6279 438.506C69.3488 437.48 71.2093 433.936 73.5814 431.931C76.2791 429.645 79.3488 426.801 81.2558 424.609C84.4186 420.878 87.5349 417.474 91.2093 414.023C101.349 404.369 110.047 393.83 118.605 382.778C123.256 376.808 128.512 371.259 132.372 365.056C137.86 356.242 140.512 344.257 140.93 331.899C141.395 316.976 141.488 307.089 139.767 291.513C136.744 264.092 127.907 243.013 117.116 222.867C118.977 226.831 119.674 231.588 121.209 235.925C122.512 239.702 124.605 242.967 125.86 246.185C135.349 270.155 140.279 299.162 138.698 327.515C138.093 338.102 137.209 349.294 133.86 357.735C132.744 360.533 130.279 363.611 128.372 366.689C126.512 369.766 124.605 373.031 122.512 375.689C108.186 393.97 92.2326 409.313 76.186 425.961C60.8372 441.864 45.1628 457.859 29.6744 472.736C29.0698 473.389 30.1395 473.715 29.3953 474.508C27.907 473.249 28.6977 476.094 27.0232 475.674C25.907 474.461 28.9302 472.689 27.2093 471.85C26.6511 472.549 26.8837 473.995 25.5814 473.995C24.2325 471.523 28.3256 469.751 27.3488 467.653C27.0697 466.767 25.8139 468.958 25.5814 467.373C25.4884 464.901 28.7442 463.595 27.0698 461.73C26.5116 460.611 25.6744 463.176 25.3023 461.45C25.3488 459.398 26.9302 458.745 27.1628 456.833C26.8837 455.574 26.093 454.828 25.6279 453.756C25.907 452.217 26.5581 451.051 27.1628 449.838C26.6046 448.346 24.8837 446.294 25.5349 444.662C25.8604 444.662 25.9535 444.382 26.2325 444.289C27.7209 444.848 27.0232 447.833 28.5116 448.346C28.9767 444.988 24.5581 442.004 25.2558 438.366C25.5814 438.366 25.6744 438.086 25.9535 437.993C27.3488 439.485 27.7209 442.144 29.0232 443.776C27.9535 439.252 26 436.874 24.3256 432.49C24.8372 432.304 25.1628 431.931 25.6744 431.744C27.1163 433.936 27.907 436.874 29.1628 439.252C28.9302 433.749 25.5349 428.666 23.5814 423.816C23.6279 422.837 24.8372 422.977 25.2558 422.324C24.9302 419.479 20.7442 415.935 23.1163 413.696C25.1163 415.842 25.7674 421.484 27.3488 422.93C26.3721 419.106 24.7907 415.981 23.7209 412.297C22.8837 412.391 22.0465 412.437 21.9535 411.691C19.3953 391.125 18.0465 373.544 14.8372 355.916C14.3256 355.869 13.5814 356.103 13.4419 355.636C12.7442 348.128 12.4186 337.495 11.3953 326.816C11.3488 326.256 10.4186 326.676 10.3256 326.163C10.4651 323.925 9.76744 322.665 9.72093 320.613C11.4419 318.981 10.5581 313.292 9.62789 311.193C10.2326 300.701 7.90696 289.601 7.44185 278.875C7.16278 272.253 4.8372 264.559 6.97673 261.108C6.51163 251.454 6 248.656 6 240.215C6 229.862 5.44186 217.597 6.13953 205.706C6.41861 200.622 7.58141 188.824 8.7907 188.171C10 187.518 8.93021 189.85 9.81394 188.124C10.7907 186.212 10.3256 182.342 11.5349 180.383C9.67441 180.896 11.3953 184.673 8.60465 184.347C9.6279 179.73 9.34882 173.901 12.1395 170.916C12.7907 170.963 12.3256 174.087 12.9302 172.968C13.1163 170.916 13.4884 169.051 14.0465 167.325C13.2093 167.419 12.3721 167.465 12.2791 166.719C14.9302 149.837 22.4651 137.386 28 123.116C28.4186 122.603 29.6279 122.836 30.0465 122.323C30.5116 117.24 33.907 112.436 35.9535 107.773C38.3256 108.845 38.6512 105.394 39.9535 104.462C39.7674 103.249 38.4186 103.855 39.1628 102.41C39.3023 101.244 40.7907 102.55 41.2558 102.317C42.2791 101.804 41.8605 100.031 43.1628 98.3992C43.814 97.5598 44.5116 98.3526 44.8837 97.6064C45.3953 96.4872 44.9302 94.9016 45.3953 94.1088C46 94.0622 46.4651 94.1554 46.7907 94.3886C46.8837 92.7098 47.0233 91.0309 48.3256 90.4713C48.9767 91.1242 48.3256 92.43 48.093 93.2694C51.7674 88.6525 60.2791 86.6473 59.6279 79.1391C59.0698 81.191 58.8372 83.5228 57.1163 84.5021C56.5116 82.4968 58.6512 81.2843 57.5814 79.9318C56.7907 81.8905 56.4651 85.9944 54.7442 85.9944C54.8837 84.2223 55.4884 82.9165 55.907 81.4242C53.4884 82.6366 54.6512 88.9323 52.093 88.9323C52.0465 87.3001 53.6279 85.4348 52.5581 84.0357C50.5116 85.155 52.2326 88.6059 50.0465 90.0982C49.3488 89.7718 50.6512 87.5799 49.5349 86.9737C30.8837 107.353 20.2326 135.054 9.95349 163.082L10.0465 165.18C2.13951 189.197 1.39534 218.39 1.44185 242.267C1.48836 258.076 3.72093 274.865 3.72093 291.653C3.72093 304.618 4.74418 318.189 6.23255 330.92C7.95349 345.796 10.8372 361.326 12.7907 375.223C14.9302 390.053 16.2326 404.556 17.6279 419.293C19.0232 434.262 23.0698 450.491 21.8604 465.461C21.5349 469.378 20.8837 473.202 20.6512 477.026C20 487.333 18.279 495.773 16.093 504.261C15.7209 503.468 15.3023 502.675 14.9302 501.883C14.8837 501.836 14.8372 501.743 14.7907 501.696C17.2093 492.089 18.6977 482.389 18.9767 470.777C19.2093 461.217 18.9302 450.771 18.279 441.164C17.6279 431.464 15.1628 420.831 14.0465 410.339C13.1628 401.898 13.1163 393.504 11.8605 386.042C10.186 376.062 9.44184 365.942 7.6744 355.916C5.53488 343.698 3.48838 329.987 3.44184 317.396C3.39534 302.846 1.06974 291.327 0.232556 278.502C-0.558153 266.144 -0.0930344 251.174 -0.23256 238.77C-0.465134 219.23 0.930222 202.161 3.81395 183.834C5.81395 171.243 9.76744 159.397 13.5814 147.459C17.2093 136.08 22.093 124.934 27.3488 114.768C36.7442 96.6737 47.9535 82.217 64.2791 71.2112C59.0698 70.1386 59.4419 62.8635 55.7674 60.1121C55.4419 58.4799 56.1395 57.7804 56.6512 56.9409C52.6047 57.5005 52.3256 53.2102 51.3953 48.8265C50.8837 46.2616 49.3488 44.4429 49.3488 42.6241C49.4884 34.1366 67.8605 31.665 77.6279 30.1727C69.6744 28.1207 64 29.7529 54.6512 29.1467C50.4186 24.4832 55.3488 17.6746 58.1395 14.3635C65.0698 14.8765 70.6977 14.5967 76.6512 16.2755C74.6047 13.8505 65.9535 13.6639 67.5349 7.27495C69.3489 5.82928 71.1628 4.89666 71.8605 3.21777C79.2558 -0.746163 84.8837 4.94323 90.4651 7.22839C90.2326 5.50286 88.2326 4.24377 88.8837 2.75146C92.6512 -1.58558 101.023 0.419732 103.907 4.15051C108.326 -0.839423 119.86 1.30578 119.814 9.70001C126.698 6.20245 138.837 2.75146 145.163 8.86059C152 15.5294 145.302 31.4318 142.186 34.7894C144 34.976 145.767 35.2092 147.116 35.9553C148.651 39.313 152.047 49.3861 146.744 50.5986C152.047 53.9097 150.791 58.6198 147.721 63.7963C146.698 65.5218 144.698 69.8121 143.163 69.952C139.349 70.2785 137.442 59.8323 135.628 57.7338C137.907 66.5477 140.977 79.4189 136.279 86.9737C133.395 91.6372 126.884 91.2641 120.558 92.943C119.628 91.7771 118.419 90.891 118.605 88.5127C116 91.4506 115.116 99.5651 108.279 98.7723C106.558 98.5391 105.581 96.8603 102.93 95.8809C99.3023 94.5285 94.7442 95.6944 94.0465 92.1035C93.5349 89.3987 97.5349 84.502 99.1628 82.1237C105.07 73.4496 111.86 62.3972 114.837 52.7905C110.884 59.1794 104.512 68.7396 97.8605 76.5742C94.6047 80.4449 90.7907 84.6886 87.2093 87.1602C85.1628 88.5593 82.6512 89.7718 80.3721 89.5853C77.4884 89.3521 76.0465 86.3208 73.4884 83.616C71.8605 81.8905 70.2326 81.7506 69.814 78.9059C39.2558 96.0675 26.2791 129.271 16.093 165.087C9.30231 190.549 7.81393 214.1 7.81393 241.801C7.86046 265.025 10.8372 290.068 12.5581 313.758C13.1628 322.059 13.2558 329.801 14.3721 337.728C15.814 348.035 18.6511 357.875 20.279 367.761C25.9069 401.478 32.6046 435.708 31.5349 467.979C35.5349 466.16 37.7674 459.865 42.5116 457.72C46.7442 452.496 51.5814 447.786 56.7907 443.449C68.5581 428.993 121.023 378.394 121.535 370.699C121.953 364.45 114.512 356.522 116.698 349.294C122 352.605 123.535 359.833 124.465 367.062C134.047 354.004 136.233 332.505 136.465 311.053C136.512 306.25 136.372 301.587 135.814 297.156C131.814 265.818 120.744 234.899 106.93 213.82C105.907 215.172 107.209 220.116 105.581 222.587C99.6744 226.132 94.2791 227.717 90.9302 221.188C88.5116 216.525 87.6744 208.271 86.6512 203.98C85.3023 212.188 86.8372 221.608 82.8837 227.857C79.0698 228.836 76.093 228.277 72.4651 227.997C67.5349 215.825 69.2558 201.462 71.3023 187.984C67.3488 199.503 68.3256 215.172 64.7907 227.344C57.7674 228.557 52.5116 224.779 53.4884 216.012C48.5116 215.639 46.8372 211.628 43.4418 209.53C44.9767 198.571 50.0465 188.404 56.3721 181.036C59.5814 177.305 62.093 173.994 67.4419 172.502C64.9302 162.848 57.7209 135.567 65.7674 129.365C69.3953 126.567 76.093 129.271 79.1163 131.883C85.2093 137.246 95.5349 148.345 98.6512 155.713C99.2558 157.066 99.5349 157.719 99.1628 159.164C109.116 156.133 127.628 159.397 135.209 164.434C136.791 165.507 139.814 168.118 139.953 169.424C140.233 172.269 136.605 173.341 136.093 176.233C135.116 176.745 133.674 176.792 132.605 176.372C135.907 179.031 140.419 182.108 140.419 187.145C138.837 189.244 137.581 190.829 135.86 193.627C132.558 198.99 126.977 191.435 123.488 189.337C125.07 192.228 128.605 196.146 130.233 200.156C129.953 204.26 127.535 206.359 122.884 206.405C116.558 213.167 112.558 207.198 109.581 201.182C123.07 229.256 137.488 258.823 140.977 296.876C141.442 301.726 142.326 304.385 141.86 308.675C144.605 309.095 146.14 313.292 149.442 314.271C149.488 311.147 148.977 309.468 149.442 306.95C147.209 304.944 142.698 301.866 143.814 298.509C145.721 300.188 146.558 303.032 148.93 304.198C151.581 298.928 150.512 296.41 147.674 292.073C146.605 290.394 144.837 288.995 144.326 287.363C147.907 287.829 148.605 291.42 150.512 293.705C152 289.601 152.558 284.705 156.279 282.653C155.256 285.591 154.326 288.669 153.581 291.84C158.465 292.166 163.023 288.296 167.209 285.964C167.674 287.363 165.488 288.995 164.279 289.928C161.535 292.073 158.093 293.519 153.349 294.265C152.791 295.757 152.698 297.669 152.558 299.535C157.209 300.467 162.791 296.224 165.907 294.731C163.488 298.975 158.698 301.027 152.698 301.96C152.047 303.126 152.651 305.504 152.605 307.183C157.209 306.483 161.581 304.898 164.651 304.525C161.581 307.043 156.651 307.882 152.698 309.608C152.977 311.66 153.488 313.385 153.674 315.484C158.14 313.665 160.977 312.219 166.326 311.053C163.209 314.085 157.628 314.877 154.465 317.862C155.023 319.168 154.884 321.313 155.395 322.712C158.977 321.546 162.512 318.608 165.628 318.049C163.535 321.36 159.116 322.526 156.233 325.09C156.326 327.282 157.535 328.308 157.209 330.966C161.302 328.681 165.163 326.256 170.14 324.764C167.07 328.495 161.442 329.94 157.674 333.018C157.535 335.863 158.372 337.589 158.698 339.92C164.465 336.003 174.651 329.101 179.442 322.899C180.326 321.733 182.093 318.422 180.884 316.556C179.395 314.551 175.116 315.624 173.767 313.385C176.744 313.059 179.256 313.199 181.116 314.085C180.512 307.836 172.512 309.654 169.628 305.924C171.814 305.224 176.791 307.463 179.814 308.255C180.047 306.157 179.163 304.664 178.558 303.778C176.837 300.561 170.372 302.566 169.302 298.649C171.814 299.301 174.744 299.488 177.349 300.001C177.86 299.395 176.651 297.623 176.512 296.55C176.372 295.804 175.907 295.524 175.395 294.731C175.721 292.446 173.07 294.964 172.512 292.913C173.488 292.4 173.395 292.819 174.93 292.819C173.256 289.182 172.558 284.472 169.907 281.907C165.628 281.347 161.953 280.181 160.605 276.404C163.907 277.383 165.86 279.901 170.14 279.808C168.884 274.492 163.581 273.606 161.953 268.709C165.674 268.756 165.535 273.093 168.465 273.979C169.209 272.44 168.884 269.922 170.698 269.362C170.651 271.647 170.186 272.16 170.233 273.932C173.86 273.373 172.14 265.072 176 263.533C174.93 268.476 174.279 273.746 171.395 277.01C172.233 280.088 172.93 283.399 174.233 285.917C178.512 283.632 175.163 274.352 179.86 272.393C177.721 277.337 179.535 284.985 175.023 288.296C175.767 289.928 176.419 291.653 177.023 293.426C181.302 291.56 180.419 284.985 184.186 282.653C182.651 288.016 181.721 292.12 178.186 295.85C178.465 298.229 179.628 299.628 179.86 302.053C183.814 300.327 185.767 296.783 187.442 293.006C188.698 297.483 183.953 302.239 180.698 304.804C181.209 306.576 181.907 308.115 182.326 309.934C185.209 308.255 188.093 303.638 192.047 301.82C190.186 307.369 181.86 309.748 184.047 316.836C188.465 312.079 193.163 307.602 196.558 301.96C197.907 295.85 193.442 295.198 191.209 292.12C193.023 291.187 194.512 293.519 196.186 293.985C196.465 287.55 188.884 289.835 186.791 286.057C189.116 285.871 193.023 286.617 194.884 288.109C194.465 285.871 193.628 284.099 192.884 282.28C190.512 280.601 186.093 281.254 185.395 277.756C187.721 277.896 190 279.528 191.395 279.575C191.395 273.373 181.814 272.58 181.395 266.797C184.279 267.916 185.488 270.854 188.233 272.067C186.837 269.175 187.116 267.357 186.837 264.465C189.116 266.284 190.465 270.761 192.14 274.305C193.535 271.6 194.047 268.056 194.837 264.745C195.488 264.699 196.279 268.196 193.163 275.564C192.279 277.663 194.837 281.067 195.674 282.839C198.326 279.855 200.372 275.191 200.326 270.761C202.186 271.974 201.721 275.238 201.302 277.01C200.605 279.901 197.581 283.352 196.465 285.264C197.442 286.99 197.349 289.881 197.814 292.166C198.791 292.12 200.14 291.234 200.837 290.301C202.186 288.436 201.535 284.891 203.674 283.912C205.953 287.41 201.442 292.866 198.605 294.964C198.93 296.923 199.628 298.462 199.581 300.84C202.651 297.11 209.349 290.721 208.14 283.026C207.535 279.062 204.837 276.777 203.86 272.766C207.953 273.746 207.767 279.435 209.86 282.606C217.023 275.798 204.698 270.388 205.163 263.299C206.744 263.533 207.07 266.331 208.186 268.056C209.349 269.828 210.744 271.461 212.233 272.393C212.512 273.559 213.395 274.025 213.767 275.098C214.93 272.906 216.791 271.834 215.581 268.756C214.047 264.885 208.279 259.755 211.535 256.724C213.163 259.522 214.14 265.351 217.256 267.59C218.93 265.445 217.628 260.595 220.698 259.755C221.442 260.361 220.651 264.699 220 267.124C222.558 268.243 224 265.491 226.186 265.072C226.558 267.87 222.558 269.222 219.116 269.595C218 271.227 217.721 273.652 216.977 275.611C222.419 275.285 225.86 273.093 228.93 270.528C228.837 274.772 222.326 276.59 216.744 277.476C215.116 279.109 214.698 281.813 213.581 283.912C219.814 283.539 225.023 282.14 229.395 280.041C226.419 285.731 217.535 283.959 212 287.13C210.605 288.995 209.535 291.094 208.465 293.239C211.628 291.7 215.721 290.954 220.186 290.581C215.721 293.705 207.628 295.804 207.07 295.85C205.674 298.462 200.744 303.918 199.023 306.25C210.837 306.39 212.744 294.591 225.256 294.218C222.93 295.85 220.093 296.224 217.767 297.716C215.488 299.162 210 304.944 208.372 305.457C209.302 306.39 211.488 305.924 212.605 306.67C213.395 305.084 223.395 299.162 226.837 298.322C227.814 298.089 231.302 297.436 232.093 299.115C225.581 299.348 221.488 304.478 216.465 307.183C225.535 312.452 230.372 300.421 238.837 302.286C234.326 303.312 230.372 307.043 225.953 309.141C231.302 314.458 236.558 303.965 241.488 307.043C241.349 308.349 240.744 307.229 239.442 307.509C237.256 308.395 236.326 310.447 234.047 311.24C235.86 312.359 247.721 315.67 250.047 318.515C246.744 319.214 244.047 316.416 240.884 315.81C241.907 320.8 245.116 323.365 247.628 326.629C242.558 325.137 240.605 320.194 238.744 315.204C236.093 313.852 232.698 313.525 230.279 312.826C231.488 317.302 233.07 324.624 235.535 328.961C230 326.769 231.116 317.256 227.814 312.592C225.814 311.24 222.93 310.914 220.419 310.167C221.535 314.971 224.419 319.588 225.907 323.505C221.023 321.313 220.698 314.131 217.953 309.561C216.093 309.281 214.279 308.955 212.047 309.141C212.791 313.199 216.465 317.163 217.86 321.779C213.442 319.214 212.279 313.059 209.256 308.955C206.047 308.628 204.047 310.074 200.279 310.074C205.674 312.546 209.86 316.37 213.302 320.987C206.698 318.515 204.419 311.287 195.488 311.38C190.14 316.836 184.837 322.292 180.279 328.495C191.535 332.692 194.233 320.101 203.907 320.753C198.279 322.945 194.279 326.629 190.093 330.127C197.721 335.677 203.907 327.096 212.884 326.956C211.349 329.288 208.093 329.008 205.721 330.08C203.395 331.106 201.674 333.158 199.256 333.531C203.023 335.117 205.674 337.215 210.465 335.443C213.488 334.324 216.791 331.619 220 330.827C221.442 330.453 224.326 329.427 225.581 331.246C218.791 331.806 215.116 335.21 210.233 337.542C216.326 343.231 223.953 336.423 231.721 335.863C228.512 338.288 224 339.454 220.14 341.273C224.465 344.071 230.837 344.584 235.349 347.195C232.186 346.636 228.837 346.309 225.907 345.563C226.512 347.195 229.302 349.62 229.721 352.698C227.163 351.253 224.093 345.237 224.837 345.237C223.256 344.397 221.256 344.071 219.535 343.371C221.767 346.915 222.605 352.139 224.977 356.009C221.349 355.963 221.256 350.6 219.721 347.195C218.744 345.05 216.93 344.071 216.698 342.112C214.837 341.506 212.744 341.086 211.07 340.293C211.907 344.49 215.116 350.833 215.907 355.077C211.535 352.092 211.349 344.49 208.605 339.734C206.837 338.661 204.605 338.055 202.558 337.215C202.233 342.858 207.302 347.568 208.419 351.579C203.86 348.921 201.07 342.345 200.419 336.609C198.372 335.583 195.907 334.977 193.349 334.511C194.93 340.34 196.93 344.957 199.581 348.874C194.651 347.475 193.349 338.941 190.884 333.578C188.744 333.531 187.535 332.412 185.256 332.459C186.884 336.143 189.116 342.019 189.721 346.216C186.047 343.045 186.14 335.816 182.465 332.599C180.651 332.179 178.14 332.459 175.86 332.552C169.581 338.148 162.512 342.998 156.465 348.781C166.186 351.253 168.093 342.858 176.651 342.252C172.372 344.537 169.302 347.988 164.837 350.133C172.047 353.398 178 343.978 186.884 345.61C180.977 347.009 176.279 349.947 171.209 352.278C172.279 354.284 174.837 354.61 176.605 355.869C178.93 352.092 185.442 350.413 191.349 351.019C187.116 352.698 182.186 353.724 178.372 355.823C183.023 362.585 192.465 354.424 199.581 356.242C196.372 358.528 190.093 358.015 187.256 360.673C191.535 364.404 201.07 360.02 206.326 359.787C202.884 362.585 198.651 362.678 194 364.217C197.023 366.875 202.047 369.254 204.419 371.399C202.186 372.145 198.279 368.461 195.209 367.668C194.465 369.673 196.558 374.71 194.651 377.788C192.93 373.637 194.233 368.134 191.628 365.383C189.442 364.357 187.581 363.004 185.209 362.212C186.186 365.896 188.698 371.399 187.535 374.99C185.302 373.73 186.047 370.373 185.488 368.134C184.744 365.196 182.93 363.004 182.372 360.626C180.605 359.787 178.791 358.947 177.023 358.108C176.698 362.585 179.86 366.082 180 369.813C176.93 369.02 175.721 361.186 174.93 357.828C173.814 356.616 171.767 356.429 169.953 355.963C169.86 357.735 171.256 363.611 170.465 367.108C167.023 364.077 170.744 353.165 163.628 354.191C163.163 357.315 165.209 362.678 165.535 364.916C161.674 363.797 162.884 357.128 161.163 353.631C156 351.626 149.07 352.652 146 356.103C146.047 358.015 147.07 358.761 147.302 361.279C150.233 363.751 156.791 362.305 158.977 365.616C156.651 366.735 152.465 363.844 148.512 364.357C148.093 366.455 150.233 368.741 150.233 371.585C153.767 373.544 159.349 370.979 162.465 373.124C159.674 374.71 155.86 373.684 151.721 374.337C152.093 376.482 153.581 377.415 154.047 379.467C158.093 380.119 163.488 379.327 166.326 381.332C164.605 383.244 159.023 380.213 155.581 381.845C156.465 388.187 164.465 386.695 168.465 389.633C166.186 391.312 163.953 388.887 161.163 389.26C162.186 391.685 166.558 393.55 167.767 396.955C165.163 396.395 164.558 393.69 162.372 392.664C160.14 395.555 162.326 399.846 161.442 402.83C158.558 401.245 159.581 394.53 160.558 391.731C159.442 389.773 157.767 388.467 156.186 387.068C154.791 389.027 157.395 394.296 155.581 396.488C152.977 393.737 154.93 388.094 154.326 384.363C153.767 380.912 151.023 378.907 150.14 376.202C147.814 380.073 150.698 387.021 149.395 389.819C147.256 386.602 146.279 376.249 149.349 373.777C148.512 371.725 147.767 369.673 147.302 367.248C144.93 370.419 144.558 375.409 142.279 378.627C141.581 371.679 148.279 365.01 142.791 359.787C135.674 362.771 131.721 371.212 126.605 377.974C115.535 392.524 102.977 405.256 89.907 418.36C72.5581 435.755 56.5116 453.522 40.2325 471.244C49.0698 470.684 61.0698 470.031 65.3023 464.155C66.186 459.072 59.5349 460.611 60.7907 456.367C62.8837 458.233 65.5349 459.398 67.3023 461.637C68 458.699 72.0465 456.274 72.4651 453.009C72.8372 449.838 70.093 448.02 70 445.128C72.5581 444.102 72.4651 448.952 73.7209 450.538C75.4419 447.833 77.6744 444.009 78.8837 441.91C79.0698 439.672 76.1395 439.252 77.2558 437.107C79.2558 437.014 79.3953 438.879 80.186 440.092C83.3023 438.086 85.2558 434.262 83.5814 430.531C86.0465 430.112 86.1395 433.936 85.5349 435.661C88.8837 433.843 91.3023 428.293 95.5349 426.148C92.9302 430.531 88.5581 433.33 86.6977 438.413C88.1395 439.392 91.8605 437.853 93.3023 438.786C92.0465 440.605 87.2093 440.698 84.6977 440.232C83.5349 441.491 82.5116 442.89 81.7674 444.569C84.6046 444.475 88 445.361 91.4884 444.475C90.3721 448.066 84.9767 445.828 80.7907 446.714C78.6977 448.486 77.2558 450.818 75.8605 453.196C78.6977 452.217 83.3953 452.357 86.9302 452.31C84.9302 455.854 77.7209 453.149 74.6046 456.041C73.8139 457.44 72.9767 458.745 72 460.005C74.6511 460.378 80.8372 459.352 83.8604 461.17C81.0698 463.595 74.5581 460.145 70.7442 462.849C69.3953 464.482 68.186 466.3 66.7907 467.933C79.3488 466.44 91.907 469.518 101.209 468.072C102 466.627 104.326 464.295 104.419 462.01C104.558 456.88 97.1628 453.756 97.5814 449.092C100.465 452.123 103.116 455.434 105.674 458.839C106.651 457.16 107.488 455.621 107.535 453.849C107.628 448.672 101.256 443.496 104.465 439.719C104.651 444.056 107.535 445.408 108.372 448.952C110.744 446.434 109.256 443.03 111.116 441.164C109.953 435.988 106.93 432.863 104.651 428.899C108.651 430.112 110.046 434.169 112 437.62C113.209 435.428 113.721 432.537 114.791 430.158C114.186 426.801 110.233 420.598 113.163 418.033C113.395 420.505 114.837 424.096 115.674 426.987C119.116 423.303 120.558 416.588 118.744 410.805C120.558 411.598 120.744 414.209 121.442 416.261C124.884 412.857 127.163 407.541 130.605 403.996C131.86 402.691 134 400.918 136.047 400.965C133.953 404.836 130.279 407.261 128.186 411.085C131.953 411.131 136.14 408.893 140.651 409.826C136.093 412.297 130.558 411.971 127.023 415.329C125.116 417.147 124.14 419.246 122.791 421.811C126.372 420.831 130.372 418.5 133.767 418.5C133.023 419.899 130.884 420.831 129.395 421.484C126.791 422.604 123.767 423.21 121.535 424.656C120.093 426.241 119.209 428.293 118.326 430.392C122.046 429.879 126.791 427.22 129.674 428.107C126.326 431.278 119.674 430.252 116.698 433.609C115.116 435.382 115.721 437.527 114.186 439.672C117.953 438.646 122 436.174 126.233 436.687C123.116 439.579 117.07 439.858 113.256 442.19C112.698 444.102 111.86 445.828 111.814 448.206C115.302 447.833 120.884 444.755 124.884 444.802C120.326 449.279 109.07 447.646 110.186 457.346C114.512 456.507 120 454.082 125.721 454.548C119.86 458.419 107.86 456.694 107.442 465.508C113.256 464.668 118.837 461.917 123.953 461.59C120.326 466.487 109.349 464.668 105.535 469.425C110.093 470.731 115.488 470.311 120.884 470.777C126.233 471.244 130.372 473.156 132.651 469.192C132.14 463.689 127.116 457.999 129.814 452.59C130.186 457.207 132.465 462.476 133.953 467.046C135.488 466.254 135.907 464.388 136.884 463.083C135.953 461.217 136.326 458.979 135.86 456.507C134.93 451.377 131.116 445.361 134.186 442.657C134.233 448.719 138.372 454.222 138.093 459.911C139.907 456.74 142.14 454.875 142.558 451.331C143.256 445.641 138.837 438.133 142.419 433.563C141.767 437.853 143.86 443.916 144.14 447.786C146.186 446.76 147.07 441.77 148.977 439.532C149.442 436.92 149.907 434.122 149.256 430.438C148.605 426.801 145.442 423.163 147.07 420.785C149.442 424.516 150.651 429.506 151.535 434.869C153.721 432.444 154.884 429.039 157.442 426.941C157.535 426.148 153.907 416.121 156.093 413.043C157.628 416.075 159.442 420.692 158.698 424.096C161.07 421.811 163.07 419.199 165.302 416.821C165.535 413.603 164.791 409.453 165.907 407.028C167.209 408.613 166.977 411.924 167.302 414.629C169.767 413.743 172.419 410.199 174.651 408.007C174.884 403.25 172.233 398.214 175.814 395.742C175.256 400.079 175.628 403.343 176.326 406.888C178.558 405.815 179.674 403.717 182.419 403.11C181.674 405.395 179.163 406.142 178.14 408.193C182.419 409.126 187.302 408.66 191.395 408.986C187.628 412.484 180.791 409.313 176.186 410.385C173.442 411.038 172.372 413.043 170.465 414.816C175.349 414.209 178.837 415.142 182.651 415.655C181.209 418.267 178.233 416.448 176.419 416.308C173.721 416.075 171.349 417.287 168.14 417.381C166.372 419.293 164.977 421.624 162.837 423.21C165.953 423.816 172.698 422.184 175.767 424.702C171.767 426.754 166.14 423.816 161.907 425.681C159.209 426.894 159.163 429.785 157.302 431.837C161.721 430.625 165.488 430.345 169.767 430.905C167.163 433.563 158.977 432.397 154.651 434.402C155.116 435.568 153.628 437.294 152.791 439.019C156.558 439.625 160.605 437.573 164.233 438.506C161.674 441.491 154 439.812 150.837 442.283C149.814 444.289 149.302 446.574 147.674 448.719C150.651 448.579 156.744 446.62 160.512 448.113C159.07 450.258 155.581 449.092 152.93 449.512C150.465 449.932 148.558 451.237 146.791 451.564C145.767 453.849 144.512 455.947 143.628 458.326C146.558 458.233 152.744 456.414 156.047 456.694C152.93 459.818 147.581 459.072 142.698 460.797C141.302 462.523 140.558 464.855 139.488 466.86C143.488 466.3 146.977 465.274 151.302 467C147.442 469.332 137.581 466.767 135.907 471.896C142.791 472.363 154.093 473.529 159.442 470.078C161.395 465.508 159.07 457.067 162.14 453.569C162 458.139 161.86 461.73 162.419 467.513C164.372 465.041 167.721 464.108 168.698 460.937C170.372 455.621 165.256 447.786 169.256 443.123C169.302 447.833 169.953 454.315 170.698 459.445C172.744 458.512 177.023 451.564 178.326 451.424C178.558 445.641 175.07 437.527 178.186 433.283C177.721 438.972 179.116 444.289 180.326 449.232C182 445.968 185.581 444.942 186.558 441.257C187.953 435.988 181.674 428.433 186.791 423.816C185.767 427.967 186.605 433.469 188.465 437.34C192.233 434.915 192.837 429.552 194.884 425.542C194.326 419.479 194.605 414.209 196.605 410.479C197.953 412.81 194.372 418.919 196.791 422.324C199.953 418.22 200.698 411.924 204.837 408.706C203.395 413.277 201.023 417.007 199.907 421.857C202.558 421.391 205.209 418.033 208.744 417.241C206.326 422.231 199.395 423.63 196.372 428.293C194.605 431.044 194.512 434.122 192.233 436.874C196.977 437.247 200.326 433.376 204.186 431.791C202.465 435.195 198.651 438.133 194.419 438.879C193.488 439.066 192.186 438.646 191.302 439.019C187.535 440.558 184.977 448.393 181.767 450.958C189.767 450.491 195.349 447.833 199.86 444.195C197.535 449.558 190.791 452.123 183.907 452.963C182.884 453.103 181.488 452.73 180.419 453.103C176.14 454.688 175.628 460.658 172.186 462.896C178.651 462.989 183.628 460.051 186.558 458.046C185.628 464.435 175.535 464.108 170.233 465.414C167.302 467.186 165.163 469.658 162.884 472.036C174.465 471.523 190.372 472.969 196.698 466.627C196.186 463.735 194.186 460.704 194.884 457.626C196.465 459.398 197.023 462.336 198.651 464.062C204.698 461.077 198.326 453.336 198.279 448.719C200.512 451.004 202 454.129 203.209 457.533C204.047 454.595 207.209 452.823 207.349 449.652C207.488 446.714 204.279 444.335 205.209 441.397C206.93 442.563 207.721 444.755 208.605 446.807C210.651 444.475 211.907 441.397 213.814 438.879C211.07 431.604 210.419 424.842 210.791 418.78C212.977 424.282 212.326 431.138 215.395 435.988C218.186 433.283 220.14 429.879 223.721 427.92C223.395 430.765 220.93 431.604 219.814 433.703C224.512 432.77 228.186 430.905 232.14 429.272C229.023 433.19 222.884 434.356 217.86 436.547C216.372 438.599 215.116 440.931 214 443.356C219.488 442.703 223.907 439.299 228.372 438.832C223.209 444.102 211.209 443.17 209.86 451.89C215.953 452.45 220.977 449.139 225.628 447.32C222.605 451.657 214.372 454.035 208.884 454.035C207.488 456.181 206.279 458.512 205.023 460.844C208.791 460.797 214.698 458.186 217.349 457.113C215.628 461.497 209.721 460.797 205.814 462.896C203.116 464.342 201.535 466.813 199.814 468.772C202.512 468.212 205.907 468.352 208.465 467.653C209.256 467.42 213.814 462.196 216.93 462.383C216.512 464.202 215.163 465.228 214 466.347C215.674 466.114 216.977 465.834 218.791 465.088C222.884 459.352 226.047 452.823 232.326 449.139C228.698 453.942 224.558 458.233 222.233 464.248C232.791 463.689 230.512 451.377 238.884 448.812C236.465 452.263 233.023 455.341 231.814 460.471C234.233 461.031 236.744 458.745 239.349 458.372C242.326 452.31 245.116 446.107 250.791 442.517C247.488 447.18 244.279 451.89 242.093 457.58C248.512 457.44 250.186 451.191 253.907 449.698C253.163 452.03 251.302 453.336 250.372 455.434C252.744 456.367 258.186 453.522 259.116 456.787C255.442 457.44 249.86 458.326 246.977 457.72C251.674 460.844 256.279 464.062 260 468.259C252.047 465.881 246.372 454.875 236.372 461.31ZM105.953 167.978C108.605 169.704 112.651 171.429 115.535 171.709C115.953 173.854 114.233 175.486 112.884 174.973C112.977 173.994 114.419 173.434 113.488 172.502C112.372 172.735 111.86 172.362 111.023 172.269C110.558 173.434 110.372 174.787 108.698 174.833C108.512 173.388 109.907 172.175 108.884 171.009C107.628 171.849 106.558 172.875 106.279 174.6C115.953 179.777 123.535 187.332 132.837 192.881C136.279 191.808 135.907 187.238 139.488 186.306C133.86 173.295 118.791 172.455 105.953 167.978ZM104.093 172.595C104.791 172.548 104.558 173.528 105.535 173.248C105.721 172.082 106.512 171.476 106.791 170.403C104.977 169.424 104.279 171.103 104.093 172.595ZM103.814 167.372C103.163 167.745 102.605 166.393 102.419 167.419C102.651 167.512 103.814 168.211 103.814 167.372ZM104.791 165.227C106.14 165.646 106.558 163.548 105.721 163.082C105.256 163.688 104.512 164.014 104.791 165.227ZM106.884 165.833C107.488 165.786 107.953 165.88 108.279 166.113C108.558 165.32 108.93 163.781 108.512 163.315L107.488 163.361C107.767 164.62 106.791 164.714 106.884 165.833ZM110.419 166.719C110.744 166.159 111.767 163.361 110.279 163.221C110.791 164.574 108.791 166.532 110.419 166.719ZM103.86 160.75C104.558 160.796 104.605 161.682 105.302 161.729C105.86 161.496 105.814 160.657 106.279 160.283C107.442 160.237 107.163 161.729 108.419 161.589C109.07 161.403 108.651 160.237 109.767 160.47C110.093 162.009 110.884 161.962 111.86 161.076C111.953 161.589 112.465 161.636 112.605 162.102C113.023 163.828 111.023 166.486 112.837 167.325C113.86 166.486 112.93 163.828 113.674 162.755C115.86 163.268 114.326 166.439 114.279 167.978C121.86 169.657 127.442 173.481 135.767 174.274C135.721 171.662 138.186 171.383 138.651 169.237C136.186 167.465 132.884 163.408 130.093 164.387C129.116 164.201 129.488 162.615 128.279 162.708C128.279 163.828 128.14 164.807 126.977 164.854C126.047 164.247 128.233 161.916 126.14 162.102C125.116 162.475 125.953 164.62 124.512 164.62C124.14 164.154 124.372 162.289 124.698 161.496C119.163 159.957 109.674 157.952 103.86 160.75ZM103.349 164.947C103.256 164.294 103.721 164.154 103.628 163.548L102.233 163.595C102 164.714 102.837 164.667 103.349 164.947ZM100.791 169.61C100.977 170.776 102 170.963 102.977 171.243C102.791 170.403 103.581 170.45 103.256 169.47C102.744 169.004 101.256 169.097 100.791 169.61ZM100.419 161.589C100.698 161.496 101.116 161.543 101.116 161.216C100.837 161.309 100.419 161.263 100.419 161.589ZM100.233 164.387C101.116 164.9 101.209 163.175 100.512 163.315C100.512 163.548 100.465 163.734 100.186 163.688L100.233 164.387ZM100.651 166.486C100.186 166.486 100.326 165.88 99.907 165.833C99.1163 166.253 100.419 167.419 100.651 166.486ZM100.093 169.284L100.047 168.584C99.3488 167.465 98.4186 169.704 100.093 169.284ZM98 161.356C98.3721 161.309 98.5582 161.822 98.6977 161.309C98.6512 160.983 98.0465 160.936 98 161.356ZM99.2093 173.155C99.1628 172.315 99.4419 170.683 97.6744 170.45C96.9302 171.569 98.2326 172.828 99.2093 173.155ZM95.7674 172.968C94.8372 174.087 97.0233 173.994 96.9302 175.346C97.814 175.346 98 174.74 98.2791 174.227C97.1163 174.134 97.1628 172.735 95.7674 172.968ZM95.7209 164.947C95.907 165.786 95.1163 165.74 95.4419 166.719C96.5582 167.185 97.0233 164.62 95.7209 164.947ZM94.093 160.144C95.0233 159.864 94.8372 160.796 95.5349 160.796C95.0698 159.724 95.0233 158.185 94 157.719L94.093 160.144ZM91.0233 160.657C90.7442 162.615 90.8372 164.574 91.9535 165.833C95.7674 164.994 93.6744 159.957 91.0233 160.657ZM92.093 169.331C92 169.564 91.3023 170.73 92.1395 170.73C92.2326 170.496 92.9767 169.331 92.093 169.331ZM90.8837 150.21C91.2558 150.164 91.4419 150.677 91.5814 150.164C91.5349 149.791 90.9302 149.744 90.8837 150.21ZM90.1395 157.206C91.9535 157.392 92.8372 156.786 93.5814 155.993C93.4884 154.547 91.5349 152.822 93.0233 151.843C89.7674 147.179 86.6512 154.874 90.1395 157.206ZM89.4884 165.227C86.3256 163.828 85.814 168.771 87.9535 169.844C89.7674 169.517 90.4651 167.139 89.4884 165.227ZM88.7907 172.968C89.5814 172.082 87.6279 172.129 87.7209 172.688C87.7209 172.642 88.9302 172.828 88.7907 172.968ZM87.1163 174.414C87.2093 175.3 87.6744 175.72 88.5581 175.72C88.6046 174.74 87.5349 174.927 87.1163 174.414ZM87.3488 149.324C88.7442 148.951 89.7209 148.158 90 146.759C89.0233 145.267 88.3256 143.495 86.6977 142.749C83.0698 143.588 86.0465 148.298 87.3488 149.324ZM85.907 155.294C87.3023 156.04 87.3488 153.102 86.186 153.521C86.4651 154.501 85.7209 154.454 85.907 155.294ZM83.2093 142.189C83.907 141.676 84.3256 140.977 84.5116 140.044C83.4419 139.298 83.0233 137.759 81.2558 137.759C80.6047 139.578 81.3488 142.049 83.2093 142.189ZM83.1163 148.112C82.4186 149.791 82.2326 152.309 84.3721 152.589C85.907 151.33 85.3023 148.252 83.1163 148.112ZM71.3488 157.019C71.6744 156.226 71.8605 155.247 72.2791 154.547C70.8372 154.128 70.5581 156.506 71.3488 157.019ZM71.814 159.444C73.9535 159.397 73.9535 157.439 74.4186 155.853C73.907 155.807 73.814 155.294 73.3488 155.2C73.1163 156.739 71.2093 158.185 71.814 159.444ZM74.7442 162.802C74.6047 164.201 73.3488 164.62 73.5349 166.346C75.2093 166.999 75.814 164.9 75.814 163.082C75.3953 163.082 75.3023 162.662 74.7442 162.802ZM75.3954 153.708C75.1163 153.801 74.6977 153.755 74.6977 154.081C74.9767 153.988 75.3954 154.034 75.3954 153.708ZM72.4186 164.994C72.9302 164.014 73.6279 163.221 74 162.149C73.5349 162.149 73.4884 161.729 72.9302 161.869C72.8372 162.708 71.3488 164.108 72.4186 164.994ZM74.4651 179.17C74.5581 178.937 75.2558 177.771 74.4186 177.771C74.7907 178.424 73.4419 179.031 74.4651 179.17ZM75.7209 168.351C74.6512 168.398 73.9535 170.496 74.4651 170.869C74.6977 169.844 75.4419 169.284 75.7209 168.351ZM75.5349 172.175C76.8837 171.895 77.9535 169.61 76.7907 168.958C76.7907 170.403 75.3023 170.543 75.5349 172.175ZM77.0233 166.159C76.7442 166.253 76.3256 166.206 76.3256 166.532C76.6046 166.486 77.0233 166.532 77.0233 166.159ZM77.1163 161.309C76.8372 161.403 76.4186 161.356 76.4186 161.682C76.6977 161.589 77.1163 161.636 77.1163 161.309ZM77.2558 148.718C77.4884 144.194 69.6279 144.894 72.4651 150.677C72.8372 150.164 72.6977 149.091 73.7674 149.231C74.3256 151.096 72.9302 151.096 72.8837 152.402C74.6977 151.283 77.1163 150.817 77.2558 148.718ZM77.7209 159.164C79.4419 158.978 80.4186 158.092 81.814 157.579C83.7209 154.454 80 150.77 77.4419 153.615L77.7209 159.164ZM78.3721 150.444C78.5581 149.604 79.4884 149.464 79.6744 148.625C78.6977 148.531 77.7674 150.21 78.3721 150.444ZM80.4186 149.977C80.4186 150.21 80.3721 150.397 80.093 150.35L80.1395 151.05C81.0233 151.563 81.0698 149.791 80.4186 149.977ZM79.4419 166.766C83.7674 167.232 84.3256 160.657 80.9302 161.123C78.1861 161.449 80 165.553 79.4419 166.766ZM79.3488 142.003C77.0233 142.376 77.5814 146.666 79.5814 146.853C82.0465 146.573 81.4419 142.236 79.3488 142.003ZM76.5116 140.417C77.4884 139.065 79.2558 138.458 79.4419 136.453C77.3023 132.256 73.5349 137.712 76.5116 140.417ZM73.7209 133.235C74.8837 134.121 75.2558 133.562 76.1395 132.769C76.3256 133.189 76.5581 133.562 76.8837 133.795C76.8837 133.235 77.814 133.562 77.907 133.049C76.6977 131.976 74.9302 131.556 73.6744 132.209L73.7209 133.235ZM71.5814 139.578C71.6744 141.536 70.4651 143.775 70.7907 144.847C74.8837 145.407 75.7674 139.391 71.5814 139.578ZM73.1163 135.334C72.7442 134.868 72.5116 134.308 72 133.981C71.3023 135.381 69.0698 135.287 69.3954 137.572C71.1628 138.458 72.8372 136.826 73.1163 135.334ZM68.4651 131.696C70.6977 131.323 70 132.536 69.9535 134.075C72.3256 134.028 71.7209 131.23 72.8837 130.111C70.5581 129.271 69.3489 129.831 68.4651 131.696ZM69.4884 153.615C68.4186 154.081 68.0465 155.154 67.8605 156.459C69.2093 156.273 68.8837 154.547 69.4884 153.615ZM68.6977 159.584C68.7907 160.05 67.3488 160.703 68.4186 160.983C68.3256 160.563 69.5349 159.631 68.6977 159.584ZM67.7209 131.043C67.4884 130.53 69.0233 130.111 68 129.971C68.093 130.344 66.5581 130.764 67.7209 131.043ZM67.5814 135.94C67.7209 135.147 68.1861 134.121 67.4884 133.515C66.8372 133.468 66.7442 133.935 66.1395 133.935C65.8605 135.427 66.7442 135.66 67.5814 135.94ZM65.7674 141.583C66.8837 141.21 66.2791 142.702 67.2093 142.562C67.7209 141.863 68.9302 139.578 67.3953 139.065C66.9767 139.997 66.3256 140.743 65.7674 141.583ZM67.1628 148.531C67.3023 147.552 67.9535 147.039 68.093 146.06C66.4651 145.454 66.3721 147.972 67.1628 148.531ZM67.0698 154.081C67.2558 153.335 67.7674 152.915 68.0465 152.309L66.6512 152.356C66.8372 152.869 66.3256 154.174 67.0698 154.081ZM67.814 177.771C69.3023 177.212 69.4419 178.891 70.2791 178.005C70.3256 177.352 69.8605 177.258 69.8605 176.652C68.6512 176.559 68.3721 177.305 67.814 177.771ZM66.186 179.917C67.7209 179.357 67.1628 181.036 68.3256 180.849C68.9767 179.963 68.2326 178.238 67.1628 178.098C66.9767 178.891 66.4651 179.31 66.186 179.917ZM62.6046 177.678C63.0698 177.632 63.3953 177.818 63.6744 177.958L63.6279 176.932L62.9302 176.979C62.9302 177.305 62.6512 177.352 62.6046 177.678ZM61.9535 179.45C61.4884 179.45 61.6279 178.844 61.2093 178.797C60.8837 179.497 61.8605 180.383 61.9535 179.45ZM60.8837 185.746C61.2093 185.28 61.1628 184.44 61.4884 183.974L60.4651 184.02C60.6512 184.533 60.1395 185.839 60.8837 185.746ZM58.5116 186.912C59.2558 187.285 58.8372 189.01 59.6744 189.29C59.4884 188.078 61.0698 186.819 60.2326 186.119C59.9535 187.052 58.5116 185.42 58.5116 186.912ZM57.6744 184.16C59.1628 184.347 58.6977 182.295 57.907 182.062C57.9535 182.855 57.3953 183.088 57.6744 184.16ZM55.9535 184.953C56.9302 184.86 55.6279 187.238 57.0698 186.632C56.8372 186.166 56.6977 183.694 55.9535 184.953ZM53.8605 213.96C54.5116 205.099 57.1628 196.332 58.9767 189.663C58.186 191.202 58.0465 187.052 57.2093 188.684C57.9535 188.591 57.4418 189.896 57.6279 190.409C57.0233 191.109 56.6047 190.036 55.907 190.829C55.7209 191.669 55.4884 192.461 55.6744 193.627C54.5116 193.627 55.0232 194.42 53.6279 194.746C54.4651 192.368 53.5814 191.855 53.3488 189.197C54.3256 189.197 54 190.643 55.1628 190.503C55.5814 189.057 56.2326 187.145 54.6046 186.352C50.8837 192.741 47.7674 199.643 45.4884 207.338C46.093 208.644 47.0233 209.53 48.3721 209.996C49.2558 208.597 49.2093 206.312 50.6046 205.379C50.6046 207.897 50.2326 210.136 49.1628 211.721C50.7907 212.468 51.4884 214.1 53.8605 213.96ZM69.1163 190.596C68.1395 190.363 67.7209 189.477 66.9302 188.964C65.8605 191.109 68.6046 192.182 67.8605 193.814C66.4186 194.327 66.8837 192.695 66.0465 192.508C63.8605 194.793 68 196.052 66.9767 198.058C65.3023 196.938 63.8605 195.633 63.3023 193.347C65.4884 192.275 66.2325 187.332 65.0233 185.233C68.186 185.14 67.2558 181.502 65.8605 180.336C59.7209 191.762 54.2326 206.079 56.3721 222.96C58.8372 223.94 60.186 226.085 63.8139 225.759C66.5581 214.66 66.093 200.529 69.1163 190.596ZM70.2326 185.326C68.9767 185.746 69.0698 184.627 68.4651 184.347C67.1628 186.119 67.7209 188.404 69.3954 189.523C69.1628 187.658 70 186.772 70.2326 185.326ZM70.8372 182.855C69.7209 183.228 70.093 181.969 69.3954 181.875C68.7442 182.761 69.907 184.02 70.2326 184.953C70.6977 184.487 70.3721 183.321 70.8372 182.855ZM70.6512 179.357C70.3256 180.336 70.4651 181.362 71.1163 182.108C70.8837 181.269 72.2791 179.357 70.6512 179.357ZM83.3953 184.021C83.0233 182.202 82.6046 179.544 81.0698 178.891C78.093 181.269 79.3954 187.565 77.0698 190.596C75.907 185.746 78.9302 181.222 77.5349 178.378L76.8372 178.424C71.0698 192.834 68.7442 210.229 74.186 225.945C76.6046 226.132 81.1163 227.437 82.8372 225.525C84 224.22 84.1861 218.81 84.4651 215.685C85.3954 205.333 85.3023 193.114 83.3953 184.021ZM84.7442 168.258C83.3954 166.206 80.8837 168.305 80.6512 170.17C82.6512 169.75 81.3953 172.082 81.1163 172.595C83.0233 171.802 84.6047 170.683 84.7442 168.258ZM84.4651 154.687C84.4186 154.268 84.3256 153.848 83.7209 154.034C83.814 154.454 83.7209 155.014 84.1395 155.06C84.1395 154.827 84.1861 154.641 84.4651 154.687ZM86.2791 163.315C88.6046 162.242 90.1395 157.579 86.6512 156.693L85.6279 156.739C85.4419 159.024 83.0698 162.708 86.2791 163.315ZM93.0698 175.207C93.0698 175.859 91.9535 175.486 92.093 176.279C92.9767 176.046 93.3488 176.372 93.1628 177.258C92.1395 178.284 91.3023 176.885 90.3721 176.699C91.4419 180.43 93.6744 183.787 93.3488 188.404C92.3721 186.072 91.2558 183.881 90.6046 181.222C90 181.036 88.6046 181.735 88.5116 180.989C88.1395 179.87 89.6279 180.43 89.8605 179.87C89.4419 179.031 89.5814 177.492 88.3721 177.492C86.6046 178.191 86.9302 180.663 86.8837 182.435C86.6512 188.264 87.1163 194.84 88.093 201.182C89.0698 207.431 92 223.287 97.1163 223.753C98.2791 223.847 99.9535 223.986 99.8139 222.214C99.907 221.235 97.9535 222.587 98.0465 221.608C99.6279 220.909 99.907 219.09 100.651 217.644C101.395 218.67 100.977 220.909 101.209 222.494C102.837 222.308 103.256 221.048 104.977 220.909C105.116 203.933 100.558 186.212 93.0698 175.207ZM111.953 199.736C113.163 202.068 114.744 206.825 116.837 207.198C118.93 207.571 121.488 205.519 122.605 203.794C122.419 203.281 122.047 202.954 121.86 202.441C120.512 202.534 119.674 204.307 118.744 202.954C119.209 201.928 120.93 202.068 121.07 200.762C120.651 198.897 117.349 197.638 118.744 196.006C120.419 196.985 121.535 198.524 122.419 200.343C123.209 200.483 124.233 199.177 124.465 199.876C123.767 200.996 122.698 201.788 123.256 204.12C131.581 204.493 127.628 196.985 125.209 193.581C119.628 185.653 108.512 177.398 101.302 172.735C101.256 173.434 100.372 173.481 100.326 174.181C103.116 175.253 106.372 177.725 107.209 179.777C105.488 179.217 104.419 178.564 102.326 179.31C102.093 178.238 103.349 178.471 102.93 177.212C101.535 177.072 100.977 178.658 99.814 177.725C99.8605 176.792 101.209 176.326 100.419 175.626C99.1628 175.02 98.9302 176.186 98.0465 176.792C101.814 182.855 107.767 191.762 111.953 199.736ZM119.907 356.242C119.07 355.823 119.86 353.631 118.744 353.491C118.651 354.75 119.302 356.989 119.907 356.242ZM67.4884 73.916C66.8837 74.8953 65.6744 77.1338 66.2791 78.1597C67.0698 77.2736 68 74.802 67.4884 73.916ZM70.8837 72.004C70 72.004 69.814 72.6102 69.1628 72.7967C70.0465 74.0092 67.9535 76.0611 68.6512 76.9939C69.6279 75.5015 70.2791 73.7761 70.8837 72.004ZM71.7209 74.3823C71.7209 72.9366 73.4884 71.3511 72.9302 70.5117C72.6977 71.7708 70.9768 73.403 71.7209 74.3823ZM112.698 51.2049C111.628 50.9251 111.023 50.1323 109.86 49.9457C108.558 51.6712 111.395 52.5107 111.023 53.0237C110.465 54.3761 109.628 53.3035 108.605 53.1169C106.047 56.3347 103.163 60.9982 99.6279 62.2573C102.465 59.2727 105.442 56.4279 107.163 52.5106C108.186 52.1376 106.326 52.0443 106.744 51.1583C108 50.8785 108.419 49.8058 108.698 48.64C108.047 48.5001 108.047 47.6606 106.93 48.0337C100.279 55.2621 89.7209 63.2367 80.8372 69.8122C77.3953 72.3771 72 75.7814 72.2325 79.6054C75.8605 81.0045 76.8372 87.2535 80.2791 87.953C86.0465 89.1189 94.6047 77.6001 96.6977 74.9886C102.651 67.7136 109.209 59.4126 112.698 51.2049ZM74.0465 72.5636C75.1628 71.7241 78.1861 69.3458 76.9768 68.5996C76.3721 69.4857 76 70.6049 75.0233 71.1179C74.9302 70.6982 75.0233 70.1386 74.6047 70.0919C74.9768 71.2112 73.0233 71.9107 74.0465 72.5636ZM78.7442 69.2059C79.4884 67.9001 83.5349 66.7342 81.6744 65.2419C81.0233 66.0347 80.2326 68.5996 79.3488 67.1073C79.2558 67.6669 77.814 68.6929 78.7442 69.2059ZM105.302 11.8452C105.023 11.7986 104.884 11.5654 104.93 11.1457C103.256 11.8452 101.628 12.5447 100.186 13.4774C101.023 13.6639 101.163 14.5967 102 14.7832C102.791 13.5241 104.605 13.1976 105.302 11.8452ZM94.2791 28.7269L96.3721 28.6337C96.3721 27.5611 95.4419 27.4678 94.5581 27.3279C94.6512 27.9808 94.1861 28.1207 94.2791 28.7269ZM92.4651 19.7265C92.5581 20.6125 93.0233 21.0322 93.907 21.0322C94.4186 20.7058 94.9768 20.4726 94.8837 19.5865C94.3721 19.5399 94.2791 19.0269 93.814 18.9336C93.5814 19.4466 93.1163 19.6799 92.4651 19.7265ZM92.3721 18.001C91.3023 17.9543 90.7907 17.3014 89.907 17.0683C90 18.0476 88.8837 17.9077 88.9302 18.8404C90.1396 19.3534 92.2326 19.9596 92.3721 18.001ZM98.5116 15.6226C96.8372 16.0889 95.6744 17.0217 95.1628 18.5606C96.8372 19.4466 98.8837 16.6019 98.5116 15.6226ZM95.3023 21.3587C95.2558 22.4779 96.8837 22.5712 97.3953 21.9649C97.6744 20.6125 95.814 20.7991 95.3023 21.3587ZM95.5349 25.8823C96.3721 25.6957 96.3256 26.4885 97.3023 26.162C97.3489 25.0428 96.7907 24.5298 95.814 24.4832C95.907 25.1361 95.4419 25.276 95.5349 25.8823ZM96.5581 33.1572C96.5581 32.2712 97.6744 32.4111 98.6047 32.3645C98.6977 32.7842 98.6047 33.3438 99.0233 33.3904C98.9768 32.4577 99.0698 31.3851 98.5581 30.9654C96.9302 30.5923 95.9535 32.5976 96.5581 33.1572ZM101.07 17.9543C99.5349 17.0683 98.5116 19.0269 97.6744 19.8663C99.2558 21.2654 100.14 19.0269 101.07 17.9543ZM100.186 21.452C100.977 21.4986 102.14 20.1928 101.488 20.0063C101.535 20.8923 100.186 20.5659 100.186 21.452ZM102.698 16.1356C103.86 17.2082 106.326 15.1562 106.744 13.524C104.93 13.9438 103.256 14.55 102.698 16.1356ZM113.767 29.1933C115.256 30.8721 121.023 31.8981 120.651 27.8409C118.605 25.6491 114.512 26.1154 113.767 29.1933ZM118.233 12.9645C118.233 12.5914 117.581 12.5447 117.535 13.0111C117.907 12.9644 118.093 13.4774 118.233 12.9645ZM117.86 35.3025C119.86 37.2145 123.163 35.5823 124.419 33.9501C123.07 30.5457 118.605 32.6909 117.86 35.3025ZM121.442 22.9443C121.163 23.0375 120.744 22.9909 120.744 23.3173C121.07 23.2241 121.442 23.2707 121.442 22.9443ZM138.605 40.6188C138.186 41.6914 137.07 42.1111 136.651 43.1371C138.465 43.5568 139.256 41.3183 138.605 40.6188ZM138.93 46.8679C138.186 46.5881 137.674 48.0804 138.279 47.9405C138.279 47.3809 139.116 47.614 138.93 46.8679ZM136.419 45.5621C135.814 46.6813 134.14 46.8212 133.767 48.127C134.14 48.1736 134.326 48.5001 134.512 48.7798C135.535 48.2669 137.767 46.1684 136.419 45.5621ZM135.256 50.8784C134.186 50.5054 133.814 52.4174 134.651 52.6506C134.791 51.951 135.628 51.951 135.256 50.8784ZM134.14 41.8314C134.372 40.7121 134.977 39.9659 135.395 38.9866C133.953 39.2197 133.721 40.5721 133.07 41.5515C130.93 41.6448 133.116 42.1578 134.14 41.8314ZM133.163 50.2722C133.442 50.1789 133.86 50.2255 133.86 49.8991C133.581 49.9924 133.163 49.9457 133.163 50.2722ZM133.349 39.0799C134.326 39.0799 134.186 38.0539 134.651 37.6342C133.581 37.5409 133.116 38.0073 133.349 39.0799ZM134.558 35.2092L134.512 34.1832C133.721 34.1366 133.209 34.3231 133.163 34.9294C133.628 35.0226 133.814 35.3957 134.558 35.2092ZM136.279 35.4889C137.163 35.6289 138.186 34.1832 137.256 33.7169C137.581 34.8827 135.86 34.1832 136.279 35.4889ZM137.488 30.8722C137.302 32.2712 135.209 31.8981 135.535 33.7635C136.558 33.3904 138.186 31.8049 137.488 30.8722ZM135.395 30.639C134.512 31.9448 132.605 32.2712 132.419 34.2765C133.628 33.6236 136.512 31.1986 135.395 30.639ZM133.163 27.6078C130.186 26.8149 127.535 28.7736 127.07 31.3851C129.628 32.9708 133.767 31.0587 133.163 27.6078ZM120.14 54.003C120.558 53.9097 121.116 54.003 121.163 53.5832C119.302 53.9097 118.326 53.3035 116.977 53.0703C117.442 54.2828 119.953 55.1222 120.558 54.9823C120.093 54.9823 120.093 54.516 120.14 54.003ZM116.837 42.9972C116.419 43.0904 115.86 42.9972 115.814 43.4169C116.233 43.3236 116.791 43.4169 116.837 42.9972ZM121.953 48.3602C121.256 47.754 121.07 48.3602 120.233 48.4534C120.233 49.0597 120.372 49.5261 120.651 49.8058C121.488 49.7126 121.953 49.2463 121.953 48.3602ZM123.442 43.4169L123.395 42.0178C121.07 41.8779 120.419 43.277 118.977 43.9765C118.884 45.0958 119.907 44.9092 120.419 45.2823C120.791 43.65 121.674 42.4842 123.442 43.4169ZM123.07 50.3655C124.465 50.4121 124.605 49.3395 125.442 48.8732C124.977 48.9198 124.651 48.7333 124.372 48.5934C124.186 49.3862 123.302 49.5727 123.07 50.3655ZM125.721 54.4227C125.023 53.7698 124.093 54.3294 123.302 54.516C123.256 56.0083 125.442 54.8424 125.721 54.4227ZM123.442 58.0602C124.558 57.6405 126.419 57.8737 126.512 56.5213C125.86 55.5419 124.651 56.801 123.721 56.6611C123.767 57.2208 123.674 57.7337 123.442 58.0602ZM129.023 36.1419C129.209 37.7275 127.628 37.7741 127.442 38.9866C129.907 38.9866 130.465 37.3077 130.744 35.3491C128.698 35.1159 124.512 35.8155 123.953 38.8001C126.279 39.6395 126.977 36.6548 129.023 36.1419ZM130.465 44.4429C130 44.4429 129.953 44.0232 129.395 44.1631C128.837 44.7693 129.163 45.9818 129.86 46.215C129.767 45.3755 130.326 45.1424 130.465 44.4429ZM127.721 45.6554C127.721 46.5414 126.233 46.0751 126.744 47.4275C127.442 47.1943 129.023 47.754 129.163 46.9612C128.372 46.8679 128.372 45.9352 127.721 45.6554ZM126.698 53.7232C128.233 54.6092 129.721 53.0703 130.465 52.1376C128.977 52.4174 127.488 52.7439 126.698 53.7232ZM127.86 56.1016C128.744 56.6612 131.86 54.9823 131.256 54.1895C130.651 55.3088 128 54.5626 127.86 56.1016ZM130.93 39.5462C131.116 40.3857 130.326 40.339 130.651 41.3183C131.721 41.4116 132 39.5929 130.93 39.5462ZM128.14 24.3433C126.698 22.3847 123.209 23.8769 122.279 25.3226C123.07 25.4159 122.372 27.188 123.07 27.3746C125.767 27.2813 127.395 26.2087 128.14 24.3433ZM115.674 32.5976C116.233 32.5976 116 33.4837 116.744 33.2505C116.977 32.5044 115.535 31.9914 115.674 32.5976ZM110.93 43.277C110.837 43.5102 110.14 44.676 110.977 44.676C110.651 44.0232 112 43.4636 110.93 43.277ZM110.512 41.5515C109.628 41.6448 108.744 41.6914 108.837 42.6707C109.628 42.5308 110.279 42.251 110.512 41.5515ZM112.837 32.3645C110 31.8049 108.419 33.1107 107.767 35.3957C108.791 35.7688 108.977 33.6703 109.488 34.603C109.767 35.6755 108.93 35.6755 109.256 36.7015C111.953 36.7015 114 34.8827 112.837 32.3645ZM112.837 39.6861C112.837 38.8 114.186 39.1265 114.14 38.2404C113.442 38.287 111.814 39.1731 112.837 39.6861ZM115.442 20.426C113.349 20.4726 112.233 21.4986 111.023 22.3846C111.581 22.6644 110.93 22.8976 111.442 23.7371C114 25.1361 117.674 23.1308 115.442 20.426ZM116.558 15.1096C114.047 13.151 112.233 16.4154 111.488 18.1409C113.256 18.3274 117.395 18.3741 116.558 15.1096ZM112.977 12.4981C112.698 12.5914 112.279 12.5447 112.279 12.8711C112.558 12.7779 112.977 12.8712 112.977 12.4981ZM112.884 10.4462C112.047 10.6793 110.326 10.1197 110.14 10.9125C110.651 11.3322 112.884 11.4721 112.884 10.4462ZM109.442 26.2554C108.512 27.0948 106.651 28.8202 107.163 29.8462C107.488 30.2193 110.651 30.2192 111.302 28.9601C111.488 27.188 110.465 26.7683 109.442 26.2554ZM107.349 26.3486C107.302 27.188 105.116 27.8409 106.047 28.4938C106.279 27.7942 108.279 27.0015 107.349 26.3486ZM109.953 14.7365C109.535 14.8298 108.977 14.7366 108.93 15.1562C109.349 15.063 109.907 15.1562 109.953 14.7365ZM108.837 13.3841C108.744 12.7313 108.558 12.2183 108.093 12.0317C107.581 12.5914 107.767 13.6174 108.837 13.3841ZM106.558 23.5971C108.558 24.2034 109.349 21.9183 108.512 21.0789C108.093 22.1515 106.977 22.5712 106.558 23.5971ZM107.907 15.9024C106.233 16.2288 104.93 16.9284 104.186 18.1875C105.86 17.8144 106.884 16.8351 107.907 15.9024ZM113.86 46.2617C113.814 46.9612 112.93 47.0078 112.884 47.7073C113.953 48.127 114.791 46.6347 113.86 46.2617ZM115.349 41.3183C116.186 40.1058 118.186 39.9193 117.953 37.7275C117.163 37.2145 116.093 38.8933 115.163 37.4943C114.837 38.9866 113.628 39.6395 113.256 41.0851C114.326 40.7587 114.558 41.3649 115.349 41.3183ZM122 57.4073C119.488 57.5938 116.326 53.0703 115.721 56.6611C117.86 57.0808 120.791 56.7078 121.395 58.853C119.767 59.1794 117.302 57.9203 115.07 57.7338C112.512 63.5165 109.07 68.5064 106.791 74.5222C103.116 80.165 98.9302 85.3415 96.1395 91.7304C96.8372 93.6424 100.93 93.7357 102.465 93.5026C101.814 93.1295 100.791 93.1761 100.977 91.8237C103.07 91.5905 104.465 92.1035 104.558 94.1088C103.907 94.2953 102.326 93.4559 103.163 94.1554C106.233 96.0208 109.628 98.2127 112.605 95.7877C120.047 89.8184 121.907 70.1385 122 57.4073ZM132.744 56.1948C131.256 56.8011 127.721 57.0342 128.698 58.8063C129.488 59.3659 131.953 56.8943 133.535 58.2467C132.651 59.7857 129.721 59.4126 128.791 60.9049C129.535 60.8116 129.023 62.1174 129.209 62.6304C130 63.5631 131.116 60.8117 132.326 62.1174C132 63.3766 130.186 63.2366 129.628 64.3559C131.023 67.014 131.488 72.4236 130.14 75.1285C129.86 70.465 129.209 66.5477 127.721 60.9516C127.209 60.765 125.953 61.4645 125.953 60.6717C126.14 59.7856 128.047 59.6457 126.884 58.5265C126.512 58.1068 124.372 58.853 123.814 59.366C125.349 70.465 120.047 80.3982 121.488 91.2175C131.163 89.7718 135.86 87.9064 136.93 79.3256C137.907 71.5842 136.186 61.1847 132.744 56.1948ZM139.674 47.8472C139.256 49.1529 137.07 50.552 137.767 51.7645C138.14 50.7852 139.581 49.6659 140.465 50.2256C139.116 51.3448 138.605 53.1635 136.791 53.8631C136.698 53.2568 137.07 52.0909 136.047 52.5106C134.744 53.9097 136.512 55.915 137.302 57.314C139.395 60.9982 140.744 65.4285 143.349 67.8534C145.023 64.1693 149.907 60.6717 149.442 56.428C149.07 53.0703 142.605 48.9198 139.674 47.8472ZM142.233 36.2352C141.767 37.7275 144.047 36.1885 144 37.2145C144.558 38.8467 143.163 40.4323 144.186 41.4116C144.326 40.339 144.14 38.9399 145.442 38.8933C145.535 39.1732 145.767 39.2664 146.14 39.2197C145.953 40.4789 145.628 43.3237 143.953 44.2097L143.86 42.1111C142.465 42.3909 142.93 44.3962 141.163 44.3495C140.977 42.9039 142.372 41.6914 141.349 40.5256C139.907 40.852 139.907 42.5308 139.395 43.7433C142.837 44.7227 144.14 48.0337 147.954 48.5934C148 44.1631 148.465 35.8621 142.233 36.2352ZM141.349 39.4063C142.419 39.7794 142.791 37.8674 141.953 37.6342C142.047 38.5203 141.488 38.7534 141.349 39.4063ZM142.279 21.9649C142 22.0582 141.581 22.0116 141.581 22.338C141.86 22.2447 142.279 22.2914 142.279 21.9649ZM143.442 17.3481C141.488 17.7678 139.209 17.9077 139.023 20.0063C141.349 21.1722 144.605 19.3068 143.442 17.3481ZM144.651 20.426C144.651 21.4053 144.093 21.9183 144.093 22.8976C145.349 23.3173 145.349 20.7991 144.651 20.426ZM141.209 14.3169C144.093 13.2909 144.558 15.576 146.419 14.0837C145.116 13.1044 145.581 12.4048 144.558 11.0524C141.907 10.8193 139.349 12.4048 141.209 14.3169ZM138.884 8.86059L139.581 8.81396L139.535 8.11444L138.837 8.16107L138.884 8.86059ZM138.791 14.4567C136.93 14.6433 135.535 15.2495 134.698 16.3688C135.209 17.9543 137.86 17.2548 138.884 16.5087L138.791 14.4567ZM134.14 11.8918C136 12.6846 137.954 11.6121 137.488 9.28027C136.791 9.32696 137.023 8.34759 136.047 8.62737C135.721 9.97979 135.395 11.3322 134.14 11.8918ZM134.093 25.1361C136.047 25.4159 138.698 25.6957 138.512 23.1775C136.698 22.478 134.326 23.3639 134.093 25.1361ZM133.488 19.913C131.116 19.7265 130.372 21.0789 129.442 22.1981C131.163 23.0375 133.86 22.1049 133.488 19.913ZM128.558 10.7259C129.349 11.4255 130.233 10.2596 131.674 10.5861C131.628 9.51348 132.326 9.18701 132.605 8.44085C130.651 8.67401 129.814 9.93316 128.558 10.7259ZM127.442 16.6952C128.884 16.975 130.977 17.1616 132.279 16.462C132.744 15.063 132.419 13.664 132.14 12.9645C129.349 13.151 127.488 14.0837 127.442 16.6952ZM128.558 18.7472C128.093 18.7472 128.047 18.3274 127.488 18.4673C127.023 19.3534 128.744 19.4467 128.558 18.7472ZM120.372 14.5967C122.465 14.5967 124.791 15.1097 125.907 13.664C126.279 8.2077 120.279 11.7053 120.372 14.5967ZM118.884 19.913C120.419 22.478 125.953 20.8923 125.721 17.8611C124.279 16.0424 118.233 16.6486 118.884 19.913ZM109.395 9.88659C111.535 9.56011 117.163 6.80865 117.767 10.213C116.372 10.4928 114.047 9.93316 113.256 10.7726C113.535 11.4721 115.302 10.4462 115.023 11.7519C116.372 11.6587 116.558 10.4929 118.093 10.5861L118 8.48754C115.023 6.99523 110 9.23364 108.884 7.18176C111.535 6.71539 115.628 6.52886 117.535 6.4356C114.093 2.19183 102.419 5.12981 109.395 9.88659ZM105.954 11.0991L107.349 11.0524C107.535 9.65337 105.814 9.97985 105.954 11.0991ZM91.3488 3.07787C92.8372 7.5548 96.9302 9.09374 99.7674 12.0784C101.023 11.5654 102.233 11.0058 103.163 10.1664C103.209 9.2337 101.209 8.67407 102.047 8.11443C103.163 8.53411 104.558 10.0265 105.907 9.00048C103.628 4.01061 97.6279 1.4923 91.3488 3.07787ZM88.5581 17.8144C88.6047 17.5347 88.5116 17.1149 88.8837 17.1149C88.5116 15.4827 86.3721 15.7159 85.9535 14.1303C87.4884 14.4101 88.5116 15.2029 89.8605 15.6692C91.1163 14.5966 92.093 11.5188 94.2326 12.3116C93.2558 13.7573 92.093 15.0164 90.9302 16.3221C92.093 16.5087 92.6977 17.3015 93.7674 17.5813C94.4651 16.3221 95.5814 15.4827 96.7442 14.6433C92.4651 8.76733 83.4419 3.45098 74.4651 6.24902C76.6047 6.20238 77.1163 7.92791 79.7209 7.41491C79.3953 9.14037 81.1628 8.53411 81.2093 9.79327C79.1628 8.76733 76.5116 9.8399 75.3023 10.0731C74.8837 8.8139 76.5581 9.46685 76.2791 8.30096C74.7907 7.74139 73.1628 7.32165 71.6744 6.76202C70.5581 7.60143 68.8372 8.67406 70.1395 10.6793C76.2791 12.8245 82.4651 16.8351 88.5581 17.8144ZM89.3954 28.2606C89.0698 27.0481 89.8605 26.9082 89.6279 25.789C87.2558 24.5765 82.9768 25.5558 81.2093 23.7371C84.6512 23.4573 87.3488 24.0635 89.9535 24.7164C91.0698 24.5298 90.8837 23.1308 92.3256 23.2241C93.4884 23.7371 90.8837 24.9029 92.7442 24.9495C93.6744 26.0221 94.5582 24.2034 94.7442 23.4573C85.0233 19.9596 64.6977 10.5861 56.3721 21.0789C61.0698 20.2395 67.3953 19.2135 71.3488 21.7784C68.7907 22.1515 67.2558 21.4053 64.7442 21.7317C64.0465 22.4313 62.6977 24.2501 62.0465 23.9702C61.4884 22.8976 63.5349 21.825 61.9535 21.8716C59.9535 22.6178 60.2326 25.4159 57.9535 25.8823C57.7209 24.25 59.0698 24.0168 58.8372 22.338C57.5814 22.3846 56.0465 22.7577 55.6744 21.7784C55.0233 22.9909 54.3256 25.0428 55.2093 26.675C66.6047 27.2347 78.9302 26.7217 89.3954 28.2606ZM93.1163 26.3486C92.0465 26.6284 92.0465 25.789 91.0233 26.1154C91.4419 27.4678 90.0465 27.188 90.4651 28.5871L92.8837 28.4938C92.5582 27.3746 93.3954 27.3746 93.1163 26.3486ZM100.186 36.4684C98.1395 35.6289 95.3023 34.09 91.7209 34.09C87.1163 34.0433 82.1861 36.4683 78.6047 36.0953C83.2558 33.7169 89.4884 32.2712 95.4884 32.8774L95.3954 30.7789C93.9535 29.7063 93.0233 31.3385 91.9535 31.6183C91.3954 31.3851 91.9535 29.8928 90.8372 30.2659C86.7907 29.8928 81.4419 31.1986 77.0233 31.9448C67.1628 33.6236 49.907 35.7222 52.2791 45.2823C55.2558 45.0957 57.3488 42.3909 60.186 43.1837C58.0465 44.5828 56 46.0284 53.0233 46.6347C53.1628 50.1323 53.5814 53.3035 55.4884 54.8891C67.5349 46.2616 83.1163 39.4996 100.186 36.4684ZM76.8372 65.102C84.8372 60.9982 90.1395 56.941 96.4186 52.3242C99.5349 50.0391 103.721 47.9871 104.419 44.6294C101.023 41.7381 95.5349 46.8212 92.3256 46.2617C95.0233 44.303 97.907 42.4842 102.558 42.2977C100.93 37.3544 94.7907 40.3856 91.0233 41.4582C85.6744 42.9506 80.7442 45.702 76.9768 45.9352C75.5349 47.4741 72.1861 48.127 69.814 49.3862C67.1163 50.8785 58.1395 56.4746 58.093 59.366C58.0465 62.5371 62.8372 64.9155 63.0698 68.8794C66.7907 70.2319 72.6977 67.2472 76.8372 65.102ZM63.5814 79.6521C64.8837 79.6987 65.2558 77.227 64.4651 76.4809C64.6977 77.9732 63.5814 78.2996 63.5814 79.6521ZM60.9302 81.8905C62.4651 80.8645 62.5116 78.4862 63.1163 76.5742C61.1163 77.6468 61.3953 80.9578 60.9302 81.8905ZM17.907 151.143C18 151.656 17.8605 152.449 18.3256 152.495C18.093 151.889 19.3023 151.003 17.907 151.143ZM11.8605 178.611C11.7209 176.932 12.9302 174.74 12.3256 173.714C12.2791 175.393 10.5581 177.725 11.8605 178.611ZM26.8372 426.474C26.7442 425.262 26.186 424.516 25.6744 423.723C25.6279 425.122 26.186 425.868 26.8372 426.474ZM28.7907 460.564C29.1628 460.051 28.7442 458.186 27.6279 458.186C27.6279 459.352 28.3721 459.771 28.7907 460.564ZM28.2325 463.735C28.2325 464.855 28.3256 465.834 29.0232 466.16C29.4418 465.088 28.9767 464.388 28.2325 463.735ZM28.8372 454.269C28.3256 453.382 28.6977 451.517 27.3023 451.564C27.6279 452.683 27.6279 454.175 28.8372 454.269ZM155.721 333.671C156.512 336.236 156.047 340.387 156.465 342.345C156.651 341.879 157.163 341.646 157.814 341.599C156.791 339.267 157.116 335.49 155.721 333.671ZM153.953 325.743C154.558 327.655 154.093 330.966 156 332.272C155.721 329.614 156.186 326.163 153.953 325.743ZM151.674 314.318C152.465 317.955 152.698 322.199 153.907 325.37C154.744 323.039 153.116 318.422 152.419 316.043C152.279 315.484 152.977 313.432 151.674 314.318ZM139.256 353.584C144.047 350.32 149.023 347.195 153.767 343.838C152.326 339.967 147.581 339.64 145.767 336.19C149.395 336.796 151.488 339.174 154.326 340.666C155.535 333.998 146.093 334.184 146.14 328.868C147.814 329.707 148.558 331.526 150.791 331.806C151.628 332.459 153.581 335.397 154.047 334.091C153.349 331.946 152.744 329.661 152.326 327.189C149.209 325.37 145.628 322.106 144.651 319.168C147.628 319.448 149.674 324.531 151.488 323.738C151.953 315.251 144.651 313.572 142.465 309.188C143.116 323.971 142.419 339.501 139.256 353.584ZM137.163 360.673C140.512 356.755 144.837 353.724 148.837 350.366C149.721 350.366 149.953 350.973 150.558 350.273C156.884 345.703 164.744 339.034 169.302 335.117C164.279 339.034 158.047 343.325 151.442 347.475C146.837 350.366 137.581 355.776 137.163 360.673ZM27.1163 492.369L25.7209 492.416C26.0465 493.628 25.2558 493.768 25.4883 494.887C26.6046 494.514 26.186 492.835 27.1163 492.369ZM53.1628 476.14C55.3023 476.607 56.7907 479.684 58.5116 479.358C56.9302 478.425 55.3488 474.042 53.1628 476.14ZM91.8139 469.798C87.1628 470.171 82.093 467.933 78.6046 469.378C84 469.285 87.6279 470.684 91.8139 469.798Z" fill="#BFD3B6" fill-opacity="0.6"/>
</svg>
