<svg width="326" height="610" viewBox="0 0 326 610" fill="none" xmlns="http://www.w3.org/2000/svg">
<path d="M-37.5967 607.546C-35.9079 608.353 -34.1457 609.086 -32.3836 609.82C-33.9255 599.772 -27.611 590.091 -24.4538 581.144C-26.1425 579.384 -25.7754 583.711 -27.5376 582.17C-28.125 579.897 -27.4641 579.53 -28.9326 577.917C-27.611 575.57 -26.2894 579.457 -24.0132 578.357C-24.8209 576.523 -26.2894 576.083 -27.2439 574.69C-35.9813 542.347 -41.5616 504.797 -39.726 476.195C-36.0548 507.511 -36.275 536.553 -24.3803 568.969C-22.6181 569.483 -20.856 568.456 -21.5168 571.39C-17.2582 570.289 -19.5343 566.916 -15.5694 566.696C-17.1113 564.276 -11.9716 562.002 -12.1185 558.775C-14.1009 557.602 -13.2198 560.975 -15.2023 559.802C-16.8911 557.602 -14.5415 557.455 -15.2023 555.695C-13.073 556.942 -11.0906 558.335 -8.66755 558.922C-7.78646 556.722 -12.1919 556.575 -12.559 553.421C-10.7969 554.741 -7.78645 553.421 -6.02428 554.668C-6.0977 552.835 -9.54864 550.048 -6.24455 547.921C-7.34592 546.307 -8.08015 548.948 -9.32836 548.948C-9.25494 545.134 -5.51031 546.821 -3.60127 547.701C-2.20621 545.647 -7.56618 544.841 -6.02428 542.42C-3.23415 540.954 -2.49992 543.594 -1.10486 544.841C1.1713 543.154 -3.08731 541.907 -3.52785 539.56C-2.79362 538.9 -2.35307 538.093 -2.27965 537.14C-0.590897 537.14 0.363625 538.607 1.83211 539.193C2.63978 538.093 -0.590881 536.627 -1.03143 534.72C-0.444038 533.84 1.02444 533.4 0.804176 532.079C2.78663 532.446 1.97895 535.16 5.06277 534.72C6.23756 533.693 4.69566 529.513 8.29344 530.246C7.92632 528.486 8.51371 526.066 9.54165 523.719C10.2759 523.939 10.643 524.892 11.8178 524.305C12.552 523.132 9.39481 522.325 11.2304 520.418C12.9926 519.245 12.7723 522.179 14.3142 521.445C13.2863 518.732 12.552 518.658 13.2863 516.385C15.1953 514.185 16.0764 516.678 18.2057 516.825C17.1778 514.111 14.4611 514.771 13.7268 511.544C15.7827 511.398 14.3142 509.491 16.3701 509.271C17.4715 510.444 18.6462 511.471 20.0413 512.131C21.5098 510.078 17.8386 509.858 17.7652 507.437C18.4994 507.291 18.7931 506.924 18.7931 506.411C20.7021 505.237 20.5553 508.317 22.0972 508.024C22.0972 506.411 19.7476 502.597 23.3454 501.497C24.2265 502.084 24.667 503.55 25.6215 504.137C26.8698 501.717 22.3175 499.223 24.5936 497.023C26.7229 495.776 26.7229 498.93 28.4851 498.417C29.8067 496.73 26.0621 496.436 26.2089 493.723C27.9711 491.889 28.4117 493.503 30.3207 493.723C29.4396 491.083 28.4851 491.229 29.513 489.249C31.2752 488.809 31.8626 490.716 33.4045 490.643C32.964 488.809 32.2297 487.562 30.9815 487.416C31.5689 485.435 33.6248 483.749 35.6807 485.142C35.1667 483.235 33.1108 482.135 34.0653 480.228C33.2577 478.101 32.45 482.208 32.0095 480.228C31.4955 475.608 35.8275 480.155 37.9568 479.642C39.0582 476.635 31.7158 475.901 34.2856 472.748C36.7086 472.674 38.1771 474.435 40.3798 474.801C39.6456 473.041 37.81 468.934 42.656 469.301C40.3064 467.981 40.0127 463.214 43.4636 463.58C41.8483 461.967 41.9217 460.28 42.4357 458.52C40.5267 457.493 41.628 459.84 39.5721 460.133C38.6911 457.126 42.5091 458.08 43.2433 456.833C43.0231 453.826 39.5721 457.346 39.5721 453.973C41.8483 453.533 43.0965 454.559 44.7118 452.946C44.565 449.426 40.4532 453.899 40.0127 451.112C39.9393 448.912 43.3902 450.526 43.6839 447.812C42.4357 445.979 42.4357 447.886 40.4532 448.252C39.9393 445.172 40.8204 445.979 43.3168 444.585C45.079 445.759 43.0231 450.452 46.1803 451.112C49.2641 449.206 48.8236 449.059 52.2745 449.059C53.5227 447.739 50.4389 446.639 50.2186 444.952C51.834 443.779 51.9074 443.778 53.8899 443.705C55.2115 443.192 53.3025 440.992 53.3025 439.818C54.4038 439.378 54.8444 440.112 55.9457 439.598C55.1381 437.618 55.652 435.564 56.5331 433.291C57.5611 433.291 58.3687 433.658 59.3967 433.731C60.498 431.897 57.0471 431.897 58.1485 430.064L61.2323 429.037C60.9386 427.937 60.0575 428.01 59.8372 426.764C61.3057 425.077 61.5994 425.224 63.0679 424.343C60.7183 421.63 63.3616 421.483 63.2882 418.843C64.3161 418.77 64.463 420.603 66.1517 419.283C67.8405 417.67 64.3895 418.183 64.5364 416.423C65.2706 414.149 67.3265 413.709 68.795 412.976C67.1062 410.556 67.6936 410.336 67.767 407.915C69.5292 406.815 69.5292 409.235 71.218 408.135C71.1445 406.302 68.0607 403.662 70.9977 401.388C71.7319 401.608 72.0991 402.562 73.2738 401.975C74.8158 400.435 71.8788 399.481 71.8788 397.721C72.8333 395.741 73.3473 398.235 75.1095 397.281C76.5045 396.914 74.6689 395.008 74.6689 394.054C79.9554 392.734 76.8716 387.014 82.5987 387.307C82.305 385.84 81.7176 385.033 80.5428 385.253C81.2037 383.347 82.2316 381.366 84.8014 381.806C83.9938 379.9 83.7735 378.726 84.8014 375.719C85.5357 376.013 86.4168 375.939 87.4447 375.499C86.0497 373.959 85.756 372.639 86.6371 371.026C88.4727 370.072 88.6195 372.419 90.7488 371.026C90.3083 369.485 88.9132 369.999 88.1055 369.192C87.7384 367.945 89.5006 367.872 88.5461 366.332C90.602 364.938 90.8222 367.285 92.6578 366.332C92.6578 363.618 90.2348 365.745 90.2348 363.105C91.1893 361.198 92.5844 363.545 94.7137 362.298C94.5669 359.805 92.0704 362.078 91.8502 359.878C92.8781 357.091 94.1263 359.071 96.7696 358.264C96.9899 355.991 92.7313 357.678 94.4935 355.624C93.6858 352.544 96.2556 355.624 97.5773 354.597C98.8989 352.397 93.9795 353.204 95.5214 350.49C102.203 351.004 101.836 344.33 104.699 341.323C104.479 344.99 99.3394 348.804 102.276 352.324C97.1367 366.552 87.7384 378.726 84.9483 394.128C83.9938 394.641 83.7001 393.908 82.8924 394.128C88.9132 402.415 102.203 392.001 111.234 395.521C105.067 396.621 98.3849 396.401 95.5214 399.408C94.1998 399.628 94.4934 396.768 92.8781 397.574C91.483 398.381 90.7488 399.555 89.7943 400.655C88.179 401.095 88.0321 398.675 86.9307 398.235C86.1965 399.041 85.3154 399.775 85.9028 401.315C85.0217 401.388 84.8749 399.921 84.5078 399.041C76.064 409.455 69.0152 420.53 64.5364 432.924C57.8548 439.745 58.5156 450.306 52.2745 457.42C47.502 473.921 39.8658 488.956 31.7158 503.697C29.6599 509.638 26.7963 517.338 21.5098 519.978C24.5936 524.159 16.8841 527.972 21.7301 532.813C27.0166 532.96 32.1563 532.446 37.5163 531.273C38.9848 528.559 40.6735 525.919 42.3623 523.352C42.5091 523.059 42.5825 522.839 42.7294 522.545C37.81 523.572 32.8905 523.645 27.8243 522.619C41.9217 497.096 52.2745 463.214 66.5922 434.904C70.4103 427.277 76.5045 411.362 83.1127 406.962C93.0984 400.288 104.699 403.882 116.154 399.995C123.496 406.522 139.135 410.042 148.02 401.608C151.544 398.235 153.82 392.514 151.25 386.94C145.376 374.106 119.311 377.479 113.731 390.607C105.36 391.634 94.1263 393.247 87.5916 393.907C94.6403 377.919 100.221 361.125 109.031 346.017C136.933 364.132 187.889 352.397 213.147 327.608C210.21 336.849 209.476 345.137 205.437 353.277C197.654 368.899 160.795 382.613 159.547 399.188C186.053 400.801 218.433 393.174 233.853 373.079C248.978 353.277 260.579 325.848 248.684 297.466C257.275 301.719 276.732 311.474 281.358 321.888C282.166 323.721 280.697 326.728 282.166 328.415C287.305 334.429 299.127 325.555 292.959 318.001C290.683 315.214 289.508 318.734 288.7 317.414C277.687 303.406 261.607 294.019 247.877 288.885C259.624 290.205 269.684 294.972 279.963 299.299C287.085 306.927 297.585 312.647 303.238 322.108C304.633 324.455 303.752 328.708 308.158 328.635C313.298 327.168 315.5 320.274 313.077 316.827C311.609 314.701 309.993 316.021 307.57 314.554C303.606 312.207 301.55 307.293 298.98 305.166C302.651 303.846 303.165 298.566 305.515 298.199C308.819 299.959 311.242 302.16 313.151 305.166C314.546 307.367 313.298 312.794 316.748 313.454C330.626 316.314 329.671 288.372 316.161 299.373C315.28 296.439 312.416 297.392 311.242 294.899C316.308 292.112 316.234 286.832 314.693 280.818C333.856 277.004 326.954 246.348 314.472 235.347C315.647 236.007 318.07 236.3 318.951 234.54C322.035 228.38 319.685 216.645 313.444 211.878C307.35 199.851 304.413 199.411 298.98 201.097C296.41 204.178 298.906 206.891 299.567 211.072C291.344 218.992 279.008 227.646 264.691 230.873C281.285 223.173 288.7 210.925 293.693 197.43C295.235 199.044 298.98 198.604 300.228 196.624C304.12 190.536 293.987 179.022 287.599 183.203C283.561 185.843 288.407 193.03 287.599 197.504C286.571 203.518 279.376 212.318 272.694 218.112C264.617 225.153 257.495 229.48 246.188 232.413C258.083 223.319 269.316 212.612 273.942 201.391C276.439 201.391 278.641 202.124 279.449 199.557C281.652 192.517 270.565 181.589 265.131 187.31C262.635 189.95 265.498 193.983 267.554 196.697C263.589 208.945 254.338 218.626 242.223 226.913C242.37 223.099 243.838 218.919 242.443 215.325C238.478 204.911 235.468 197.87 229.961 190.243C227.318 186.576 221.591 180.856 217.919 178.655C213.514 175.942 202.06 170.148 197.508 168.461C181.721 162.741 160.061 176.602 148.093 185.623C139.796 191.93 135.097 194.57 137.667 205.424C149.121 213.712 176.141 197.357 187.669 198.237C200.959 202.638 206.832 226.84 212.192 241.068C188.403 225.3 159.254 213.272 125.405 223.759C124.157 220.019 128.562 191.343 129.737 187.823C131.132 183.716 134.95 178.435 141.925 169.268C146.404 163.327 151.397 158.34 155.362 152.547C167.183 154.087 176.875 143.159 181.061 133.772C180.84 131.058 176.875 133.038 177.977 130.691C190.312 122.257 202.574 111.476 197.728 96.2216C193.396 93.6548 189.798 89.6944 185.246 87.4942C176.582 87.1275 169.533 90.0611 164.026 97.3217C161.97 105.169 160.135 113.016 158.152 120.864C158.226 119.25 156.537 118.004 155.289 117.93C149.562 125.558 139.502 135.458 148.754 147.266C141.191 156.874 133.922 166.408 125.478 173.375C125.111 159.514 122.174 141.912 121 129.371C123.055 128.271 124.01 128.198 126.947 126.731C136.419 118.077 135.684 102.969 140.604 92.2613C141.779 89.7677 145.23 87.9343 144.275 84.9273C136.786 86.3208 131.059 95.6349 127.975 99.2286C128.048 84.7807 133.775 69.3793 137.52 50.531C140.457 35.8631 140.016 11.881 126.066 4.03364C124.01 2.8602 121.293 3.44692 118.136 2.64018C115.419 1.98012 113.143 -0.073387 110.573 0.366651C105.874 1.24673 104.626 4.25366 99.5597 6.08715C66.0049 18.1149 104.112 80.3803 102.423 90.0611C98.6052 87.2009 95.8885 81.9937 90.3817 82.5071C96.0354 97.9085 86.7105 113.97 99.1926 125.117C102.35 127.978 106.682 129.151 110.206 131.645C115.052 161.567 114.905 189.07 111.454 214.812C99.4129 209.311 91.1159 196.33 82.6721 183.643C85.9028 172.348 85.4623 159.22 80.9834 144.112C78.3401 144.919 78.487 147.119 76.8716 146.166C71.8788 129.298 58.9561 100.329 53.743 79.1335C52.0543 72.3129 53.5962 64.8322 51.9074 59.3318C49.411 51.1911 40.9672 41.5836 34.1387 42.8303C29.8802 43.6371 29.2928 49.5042 25.181 52.5845C24.1531 51.3377 22.4643 49.2109 20.2616 48.1108C7.63262 41.6569 -1.76568 47.6708 -3.01389 61.972C-11.6045 60.9452 -11.8248 71.6528 -13.4401 69.526C-16.9645 64.8323 -24.3803 68.7926 -29.7403 69.526C-33.7052 73.9997 -32.3836 83.2405 -30.7682 88.8877C-35.0268 89.7677 -42.6629 92.848 -43.3238 93.068C-43.0301 93.8748 -43.0301 117.563 -0.590889 138.245C9.24795 143.086 18.2791 155.773 30.541 166.261C36.5618 185.403 56.5331 189.07 72.1725 189.07C83.9204 205.058 97.5038 217.379 110.94 229.847C104.479 234.98 96.6227 235.42 92.9515 241.288C89.574 246.641 91.8502 252.142 89.8677 258.596C95.3011 264.756 103.525 265.343 111.895 265.49C111.087 282.725 107.563 298.639 104.553 314.847C96.0353 307.147 86.9308 288.445 82.305 276.711C86.7105 268.057 86.9308 255.515 78.4135 248.768C73.2738 244.735 68.795 239.601 61.6728 241.434C44.1245 245.908 56.6066 278.324 70.4837 279.938C77.3122 295.706 89.3538 310.814 99.266 327.462C98.3115 331.935 95.6682 335.529 96.1822 340.736C87.7384 355.331 83.6267 374.032 75.6234 389.067C74.1549 391.781 70.1166 394.201 68.281 397.648C64.3161 404.908 61.8931 413.489 58.5156 421.337C55.2115 428.817 52.2011 436.518 47.2817 442.752C42.2888 412.389 39.205 381.073 35.387 350.197C32.8905 329.882 26.6495 310.08 30.8347 291.892C44.1979 284.485 47.2083 263.656 38.1771 246.641C32.3766 249.722 29.7333 257.056 26.9432 259.916C12.9926 236.374 12.4786 202.711 2.19923 181.809C0.290199 177.995 -5.29004 168.975 -5.36346 168.828C-18.6532 146.899 -36.4219 150.64 -43.7643 154.087C-49.8585 157.02 -55.3653 163.181 -56.9807 165.381C-64.9839 178.289 -43.0301 217.966 -42.8832 217.892C-29.2998 238.501 -6.31797 246.935 4.10826 272.897C-0.737732 269.67 -4.48237 264.17 -11.0171 264.316C-11.3108 267.103 -9.54864 269.67 -8.59412 271.65C-5.65716 277.664 -2.57334 283.531 2.05238 287.125C6.01729 290.205 13.8003 291.305 16.1498 294.679C17.6183 296.732 16.8841 301.94 17.398 306.487C17.8386 310.447 19.0868 314.774 19.6742 319.321C21.2161 331.202 23.1985 337.949 25.181 352.177C27.2369 367.139 37.5897 439.231 35.4604 454.119C35.0933 456.466 30.8347 474.288 29.9536 476.341C24.2265 489.982 15.6359 503.477 7.11865 517.925C-2.20622 533.693 -13.073 548.581 -19.9749 558.922C-20.1217 552.321 -18.8001 538.9 -16.7442 529.953C-13.8807 517.558 -6.75851 509.344 -10.2094 492.403C-11.2374 487.416 -14.1009 482.135 -14.3212 476.121C-14.5415 469.667 -10.65 462.92 -8.22701 455.733C-0.00349426 431.237 3.08032 398.601 -6.02428 366.625C-9.54864 354.304 -16.8176 341.323 -22.9853 330.175C-30.6948 316.167 -41.635 302.673 -51.4004 290.058C-54.4842 286.025 -69.3159 259.256 -78.7877 257.056C-86.1301 300.179 -108.157 340.296 -104.633 386.28C-102.21 417.45 -88.3328 447.519 -74.3822 476.781C-66.6727 492.916 -67.4069 510.664 -60.6519 525.919C-53.0892 543.007 -39.2854 556.722 -31.2088 573.223C-35.4674 580.117 -40.7539 597.425 -42.2224 599.332C-42.6629 598.599 -43.1769 597.865 -43.6909 597.058C-43.9846 598.819 -44.4986 600.652 -45.2328 602.339C-45.2328 602.412 -45.3062 602.486 -45.3062 602.559C-45.3796 602.779 -45.3796 602.926 -45.4531 603.146C-44.4986 602.852 -43.4706 602.339 -43.0301 602.926C-42.8098 603.659 -43.1769 604.026 -43.6909 604.392C-42.5895 604.979 -41.5616 605.566 -40.4602 606.153C-40.6805 605.786 -40.8273 605.419 -41.0476 604.979C-39.726 605.052 -38.1841 606.226 -37.5967 607.546ZM-18.5798 566.256C-19.7546 566.989 -20.0483 565.742 -20.4154 564.862C-19.9015 564.789 -19.6078 565.302 -19.0204 565.082L-18.5798 566.256ZM-16.5239 560.169C-15.7163 562.075 -16.3037 563.322 -17.919 564.056C-18.9469 562.075 -18.9469 560.535 -16.5239 560.169ZM127.094 401.461C127.094 399.921 130.471 399.995 130.545 401.682C129.296 401.828 128.562 400.875 127.094 401.461ZM131.719 401.315C130.251 400.728 134.51 401.021 135.17 399.481C134.803 397.794 133.629 397.721 132.087 398.455C134.216 396.108 135.684 397.868 139.429 396.034C140.971 396.548 134.95 397.501 138.181 400.508C135.831 401.241 133.555 401.682 131.719 401.315ZM122.762 386.574C130.251 379.753 141.191 383.64 146.845 387.38C148.534 393.834 146.404 399.921 138.915 400.215C139.062 398.455 143.761 398.895 143.981 397.134C140.971 394.348 143.981 395.301 144.422 392.221C137.373 393.027 125.332 396.988 118.944 393.247C122.321 389.434 130.471 388.627 136.272 388.114L137.079 390.534C140.457 390.681 139.796 388.92 140.53 386.647C135.831 384.227 129.076 385.84 122.762 386.574ZM289.875 326.802C290.536 323.428 288.04 322.988 285.763 324.748C284.222 321.448 287.672 320.641 290.022 319.248C291.491 322.621 292.812 324.748 289.875 326.802ZM289.655 193.69C286.718 191.71 288.26 189.803 287.232 186.356C293.179 183.936 295.235 189.436 298.246 192.883C295.969 194.35 293.914 192.223 289.655 193.69ZM122.395 6.82055C121.807 6.96722 121.66 6.23383 121.367 5.79379C121.954 5.57377 122.101 6.38051 122.395 6.82055ZM103.598 9.68079C103.451 8.9474 104.112 9.16742 104.185 9.46077C106.755 5.72045 112.703 1.24673 117.035 5.20707C115.713 8.50736 112.336 7.62728 109.913 10.3409C108.738 6.60053 105.727 12.101 103.598 9.68079ZM103.671 83.0205C105.067 82.6538 104.773 85.514 105.507 86.4675C104.112 86.9075 104.332 83.9739 103.671 83.0205ZM101.175 67.5458C98.8989 70.8461 104.993 78.2534 104.039 82.2138C94.934 61.8253 82.305 29.0425 99.1192 12.4677C103.084 12.3944 103.525 14.6679 107.049 13.8612C107.636 17.8948 105.36 20.4617 103.378 23.2486C102.57 32.1961 101.395 43.6371 103.598 52.4378C106.021 46.7173 102.203 37.8432 107.49 33.4429C106.755 30.2159 105.287 34.1763 104.846 31.6094C104.699 29.8492 107.783 29.6292 108.517 28.3091C108.003 27.2823 106.976 27.2823 105.654 27.869C105.58 25.0821 109.325 27.3557 111.748 25.8155C110.867 23.9087 108.224 25.3021 106.241 25.5955C106.462 21.2685 109.913 21.4885 114.171 20.9018C113.804 18.6282 111.748 19.655 109.913 20.3151C110.867 16.5014 113.143 19.1416 116.227 18.9216C124.671 36.6698 119.898 51.9245 120.926 67.6192C123.349 65.9323 122.615 62.7054 121.514 59.2584C124.23 46.7907 125.919 26.2556 115.346 14.3745C117.549 11.5876 119.237 8.50736 123.716 6.82055C126.947 8.43402 129.076 10.2675 130.692 13.3478C143.981 38.3566 128.709 61.2386 126.433 80.0136C126.213 80.6003 125.332 80.8203 125.038 81.3337C125.038 81.7004 125.111 82.1404 125.185 82.4338C124.818 81.9204 124.891 81.5537 125.038 81.3337C124.818 77.74 127.755 72.7529 128.048 68.5726C123.129 72.8996 123.202 79.7202 122.321 86.1008C118.136 82.8005 117.475 79.9402 117.035 74.2931C113.363 75.3932 117.989 80.5269 114.758 81.8471C114.979 74.6598 114.538 67.1058 113.29 59.1851C110.647 67.1791 114.612 73.0463 111.087 80.967C114.758 83.3872 112.776 86.6875 111.895 89.5477C107.93 84.7073 111.014 76.1999 107.196 71.4328C106.094 75.6132 108.958 81.9204 108.811 88.521C106.168 83.1672 106.241 72.2396 101.175 67.5458ZM106.462 89.5477C105.654 90.3545 107.636 92.4813 105.434 92.628C106.315 91.8213 104.332 89.6944 106.462 89.5477ZM95.448 95.2682C96.0353 95.1215 96.1822 95.8549 96.4759 96.295C95.8885 96.515 95.7417 95.7083 95.448 95.2682ZM98.1647 111.403C98.752 111.256 98.8989 111.99 99.1926 112.43C98.5318 112.576 98.4584 111.843 98.1647 111.403ZM115.272 124.017C114.171 123.504 113.29 124.237 112.996 125.411C110.94 125.411 113.143 123.577 112.776 122.771C109.619 124.531 112.262 119.544 108.664 120.717C108.444 118.737 108.444 116.903 110.5 116.023C110.206 114.997 109.545 114.557 108.664 114.63C106.168 115.95 107.122 118.957 104.406 120.13C104.993 117.563 106.755 115.51 106.682 112.576C105.507 111.696 103.965 114.923 103.818 116.243C100.367 113.31 104.406 109.789 104.846 107.076C102.717 105.756 102.13 109.423 101.175 110.376C97.5038 108.836 103.671 104.436 103.598 101.429C103.304 100.989 102.79 100.989 102.57 100.402C100.074 102.529 98.6052 105.242 97.6507 108.176C96.329 105.829 100.221 101.649 101.322 98.7885C99.1926 96.955 99.1192 96.0016 100.294 93.7281C107.71 99.0819 103.378 111.843 111.748 113.676C109.325 108.029 113.363 103.336 111.308 100.255C112.262 98.6419 112.996 97.0284 114.538 95.7816C114.391 94.6815 113.657 94.7549 112.923 94.9749C113.437 91.6746 116.594 89.6944 119.237 87.4209C123.202 96.515 120.412 103.409 124.744 110.083C125.038 109.643 125.772 107.003 127.02 108.689C128.856 102.602 132.013 99.3752 135.611 93.5814C135.024 101.649 131.793 112.723 126.873 120.277C125.038 120.277 128.122 118.59 126.433 117.05C122.982 120.937 118.283 124.237 116.007 128.711C113.07 128.491 114.905 125.338 115.272 124.017ZM118.356 169.928C117.769 166.701 119.825 164.868 120.632 162.374C120.118 161.347 119.091 161.347 117.769 161.934C116.447 159.881 120.339 160.467 119.384 158.707C119.237 156.947 117.695 157.974 116.961 157.46C117.182 154.893 120.779 153.207 116.961 151.373C118.43 151.08 119.237 150.493 119.017 149.32C114.905 146.679 119.164 141.472 116.741 140.519C114.171 140.225 117.475 139.125 117.402 138.392C120.339 147.339 120.339 159.147 121.44 168.901L118.356 169.928ZM117.989 174.768C116.888 173.228 118.356 172.862 117.549 171.542C118.356 171.468 120.706 173.228 120.779 171.101C122.762 171.028 121.073 173.228 121.807 174.182C120.412 174.695 119.678 173.742 117.989 174.768ZM33.8451 45.1772C39.7924 43.6371 47.3551 56.5449 48.5299 62.7054C53.8899 90.2811 62.5539 121.23 74.6689 151.153C70.7774 145.066 68.4278 140.152 65.858 133.038C63.5818 138.832 71.2914 146.899 72.0256 153.427C68.9418 150.126 67.0328 144.332 64.6832 139.565C63.0679 143.012 66.7391 147.486 67.9873 151.373C53.3025 128.784 44.565 95.8549 26.5026 76.1999C24.3733 68.4992 23.8594 59.3318 27.09 53.5379C28.118 51.7044 32.8905 45.3972 33.8451 45.1772ZM67.5468 154.233C67.4733 153.5 68.6481 153.427 68.3544 152.62C69.0887 152.473 69.2355 153.573 69.6026 154.233C68.6481 154.747 68.3544 154.013 67.5468 154.233ZM22.3909 59.8451C19.3805 58.7451 18.7931 52.8045 16.4435 50.2376C18.6462 49.5042 22.0972 56.2515 22.3909 59.8451ZM15.2687 48.6242C15.5624 54.2713 19.7476 59.7718 21.5832 65.5656C18.2791 63.3655 17.6183 55.8848 14.2408 53.758C16.003 61.3853 19.9679 68.1325 22.8314 73.3397C18.3526 69.4526 13.8737 61.8253 11.3773 55.3714C8.36686 58.2317 14.1674 63.0721 15.2687 66.9591C10.9367 63.7322 8.95425 55.8115 5.28304 51.2644C4.40195 56.3982 10.8633 63.5855 13.2863 69.0126C11.8912 68.1325 3.0069 57.7183 2.63978 53.5379C2.05238 46.424 9.39481 47.8908 15.2687 48.6242ZM18.2791 72.0929C16.7372 72.2396 14.975 70.5527 15.8561 68.8659C17.1043 69.086 17.398 71.2128 18.2791 72.0929ZM-0.444046 60.6519C0.0699234 60.5785 0.363625 61.0919 0.951019 60.8719L1.39156 62.1187C0.143349 62.8521 -0.0769272 61.6053 -0.444046 60.6519ZM0.510475 55.5914C3.37402 56.6915 4.47538 61.1653 6.23756 64.5389C3.88799 62.9254 -0.150345 59.1851 0.510475 55.5914ZM-13.1464 77.8134C-16.3771 76.1266 -19.0938 72.6063 -20.4888 70.0394C-16.8176 70.2594 -15.7163 75.4665 -13.1464 77.8134ZM-25.9957 88.2276C-31.0619 88.4476 -30.7682 75.5398 -28.8592 71.5062C-26.5831 71.0661 -24.6006 71.0661 -21.8839 69.8927C-19.828 75.9799 -15.4226 77.3 -13.2933 83.3139C-17.0379 79.9402 -20.4888 75.9799 -23.4992 71.0661C-23.9398 77.6667 -15.3492 83.0938 -12.0451 89.0343C-16.8176 85.5874 -19.9749 79.1335 -24.674 75.6132C-24.8209 80.6736 -18.5064 84.1939 -14.8352 88.6676C-11.5311 92.7013 -9.47521 96.8817 -6.3914 101.942C-6.0977 102.162 -5.804 102.382 -5.43688 102.529C-5.804 102.602 -6.17113 102.676 -6.24455 102.089C-6.31798 102.015 -6.31797 101.942 -6.3914 101.869C-13.2198 97.2484 -19.7546 84.5606 -27.5376 79.2802C-28.3452 83.3139 -20.342 86.4675 -18.5798 91.8946C-20.7825 92.2613 -21.2231 88.961 -23.8664 90.2811C-22.3244 87.2742 -26.1425 85.294 -28.125 83.5339C-29.2998 84.7806 -27.2439 88.301 -25.9957 88.2276ZM8.14659 141.399C-1.03143 133.845 -11.5311 127.098 -19.6077 121.451C-22.9853 119.104 -26.9502 117.637 -29.8137 115.363C-36.9359 109.643 -42.0021 97.5418 -40.9742 94.4615C-18.7267 83.0205 -6.90537 111.916 6.75153 124.971C11.8178 129.811 19.1602 132.085 17.1778 135.752C24.5936 145.359 35.4604 153.573 41.7014 162.227C33.4045 155.627 26.7229 146.019 17.6183 141.032C25.0341 150.713 36.3415 158.047 42.5091 166.701C39.0582 164.061 36.0478 160.614 32.3031 158.56C32.964 163.547 39.6456 164.868 42.0686 169.561C28.6319 164.574 20.849 151.813 8.14659 141.399ZM46.7677 169.341C47.502 167.875 45.96 165.821 44.7118 165.234C45.8866 163.327 47.7957 168.608 49.411 169.121C49.4844 171.101 48.0159 168.021 46.7677 169.341ZM-0.664307 104.949C-7.05222 94.8282 -12.1919 85.6607 -9.84233 73.3397C-8.30042 65.1989 -7.56619 64.0255 1.75868 65.419C11.5241 73.1196 23.1985 76.6399 31.5689 87.4209C45.0055 104.729 49.6313 131.425 64.463 151.226C61.526 151.593 58.075 144.259 55.8723 139.785C55.7255 144.773 58.2219 149.466 55.8723 154.087C47.7957 141.619 39.9393 128.784 30.9815 118.224C35.9009 135.605 55.1381 150.273 57.7079 169.781C55.7989 170.515 55.1381 168.828 53.0088 170.001C38.9113 149.1 14.4611 128.858 -0.664307 104.949ZM42.2154 174.182C43.6839 171.322 44.8587 177.702 46.6943 177.409C45.5195 179.829 43.4636 175.282 42.2154 174.182ZM51.6137 175.869C50.2921 176.382 50.5858 173.815 49.9984 173.008C51.5403 171.982 51.6137 173.815 52.8619 173.448C53.1556 174.548 50.9529 174.475 51.6137 175.869ZM53.6696 173.815C55.7989 173.962 56.2394 174.915 55.2849 176.675C54.0367 177.189 54.3304 174.548 53.6696 173.815ZM48.383 176.235C50.6592 176.235 49.0439 178.069 50.806 179.462C49.2641 179.976 48.897 177.849 48.383 176.235ZM52.6416 178.875C53.3759 178.729 53.5227 179.829 53.8899 180.489C53.1556 180.636 53.0088 179.609 52.6416 178.875ZM70.8508 176.235C70.19 174.182 67.6202 175.942 66.372 174.988C67.9139 174.768 68.795 172.128 65.9314 171.762C65.6377 170.588 67.8405 170.661 67.1796 169.341C66.6657 167.581 64.9035 168.388 63.949 167.728C64.0224 161.567 60.7917 160.467 59.0296 153.06C64.3895 157.387 77.5325 166.114 72.9067 174.255C74.9626 176.162 72.3193 175.575 73.4941 178.142C71.218 179.316 70.4837 177.335 68.2076 178.582C67.3265 176.895 71.6585 177.849 70.8508 176.235ZM64.463 179.682L64.9035 180.929C63.7287 181.662 63.435 180.416 63.0679 179.536C63.5818 179.462 63.8755 179.902 64.463 179.682ZM57.7813 181.956C58.5156 181.809 58.6624 182.909 59.0296 183.569C58.2219 183.716 58.075 182.616 57.7813 181.956ZM79.0009 178.289C79.0009 178.215 79.0009 178.215 79.0744 178.142C78.8541 177.482 78.0464 175.282 76.7982 173.595C76.3577 173.668 76.064 173.815 75.9171 174.035C76.7248 171.395 79.6618 165.894 76.5779 162.741C76.5045 161.861 77.973 161.714 78.8541 161.347C78.8541 158.56 76.8716 159.881 76.4311 158.12C78.487 156.947 78.1933 154.6 79.5149 152.987C80.6163 160.174 82.305 171.395 79.1478 178.142C79.0744 178.362 79.0744 178.435 79.0009 178.289ZM56.166 250.455C56.7534 250.308 56.9003 251.042 57.1939 251.482C56.6066 251.628 56.4597 250.895 56.166 250.455ZM56.6066 255.736C58.075 256.029 58.8827 260.209 58.4422 261.236C56.166 260.576 58.1485 257.789 56.6066 255.736ZM58.4422 263.289C58.9561 263.216 59.2498 263.73 59.8372 263.509L60.2778 264.756C59.0296 265.416 58.8093 264.243 58.4422 263.289ZM59.8372 265.563C62.9945 268.203 66.372 275.464 70.0432 273.704C68.5747 269.817 61.8931 267.617 60.6449 259.842C64.0224 263.143 66.0783 271.944 72.6864 271.43C69.2355 267.69 64.2427 261.969 63.0679 256.982C61.7462 255.735 61.012 258.449 60.4246 257.202C58.8827 252.142 59.7638 248.695 58.3687 244.955C69.9698 241.581 83.4064 259.843 80.2491 273.704C76.7982 265.636 74.4486 256.469 67.3999 251.482C70.19 257.569 78.487 269.523 75.7703 276.564C68.3544 277.077 62.921 273.704 59.8372 265.563ZM236.055 363.105C235.027 363.105 236.055 362.225 235.468 361.271C229.888 384.52 188.403 396.401 162.851 396.401C164.1 385.253 177.316 385.327 184.879 376.819C187.448 376.306 186.861 376.526 189.137 375.426C197.801 368.165 205.437 360.465 210.357 351.37C212.266 338.903 216.01 327.315 220.342 316.094C221.958 319.321 216.231 325.848 219.535 329.955C220.71 327.315 220.71 324.088 221.37 321.155C222.839 320.568 223.573 321.448 224.821 321.375C225.556 319.981 223.867 319.028 222.178 319.541C222.325 317.047 224.161 315.581 226.657 316.681C226.51 314.334 222.472 313.894 222.766 311.18C224.454 310.3 225.115 308.98 224.821 307.073C225.996 307.513 227.758 306.707 228.052 308.687C227.832 310.814 226.437 309.42 223.94 310.74C225.115 312.134 227.098 311.914 228.639 312.574C229.447 309.2 231.283 307.513 230.255 303.186C231.136 303.48 232.164 303.48 233.485 302.746C231.136 310.96 234.88 322.108 230.842 329.442C239.726 323.795 234.146 306.633 236.716 296.219C239.58 294.606 239.947 297.246 241.782 295.192C257.495 316.167 248.537 346.457 236.055 363.105ZM227.244 302.16C227.244 301.133 227.612 300.326 227.685 299.299C229.3 299.446 231.503 298.493 232.971 298.859C233.632 300.179 233.632 301.206 233.412 302.086C231.283 302.16 229.888 300.913 227.244 302.16ZM228.272 303.186C229.814 305.46 227.391 306.853 225.849 306.047C225.776 304.653 225.996 303.406 228.272 303.186ZM265.572 300.913C272.914 305.68 281.064 311.254 285.396 319.468C281.505 318.881 280.11 314.847 277.613 312.574C268.435 304.066 255.66 296.952 244.132 291.819C241.122 291.745 238.258 291.379 236.349 288.958C233.853 289.838 231.503 290.499 230.622 288.152C243.471 289.105 255.072 294.165 265.572 300.913ZM310.948 318.441C311.095 321.961 311.389 325.408 306.836 326.582C306.689 324.088 307.644 324.528 306.029 322.108C307.13 320.641 308.231 319.101 310.948 318.441ZM305.221 319.614C288.554 298.273 265.719 289.105 240.901 283.971C239.433 284.558 239.58 283.605 240.681 283.385C250.814 284.118 259.698 287.492 269.684 288.665C278.348 293.799 287.452 297.979 295.382 304.58C297.658 310.74 306.469 313.014 305.221 319.614ZM223.133 279.718C228.786 276.564 237.45 277.517 245.6 277.664C259.037 277.957 271.593 279.571 282.533 284.338C287.746 286.612 291.564 287.858 295.162 293.725C295.676 294.679 294.941 294.972 295.162 295.779C277.246 278.324 250.74 277.811 223.133 279.718ZM225.409 284.411C228.786 282.064 234.734 283.385 238.699 283.385C235.468 285.365 229.521 283.971 225.409 284.411ZM171.075 280.744C173.865 279.278 177.169 275.831 179.665 275.831C179.372 277.224 177.756 277.957 177.389 279.278C177.83 280.011 179.078 279.278 180.033 279.058C181.061 278.544 181.061 277.517 180.473 276.197C181.575 276.417 182.749 276.491 183.116 278.031C181.795 278.251 181.207 278.764 181.721 279.864C182.97 281.258 184.879 278.764 185.98 278.471C185.613 281.771 186.788 284.411 190.679 284.411C190.532 285.365 189.725 285.951 188.623 286.465C188.476 285.071 187.669 284.998 187.228 284.191C181.868 287.638 176.068 283.531 171.075 280.744ZM174.379 276.271C173.718 278.471 169.533 277.371 170.708 279.498C169.606 279.278 168.432 279.204 168.064 277.664C171.369 277.151 171.809 276.051 174.379 276.271ZM228.199 270.55C225.115 270.99 221.37 271.87 220.049 270.55C226.216 269.377 231.87 269.303 237.817 268.717C239.286 268.937 232.311 270.037 228.199 270.55ZM302.064 216.719C301.403 221.633 295.015 225.006 290.242 228.16C273.869 238.867 254.999 243.268 237.377 247.155C237.083 246.641 237.45 246.495 237.817 246.348C257.201 241.728 285.543 232.413 302.064 216.719ZM302.284 221.413C303.018 221.266 303.165 222.366 303.532 223.026C282.459 240.774 252.429 248.695 224.381 252.802C249.198 245.835 284.736 239.967 302.284 221.413ZM306.396 225.446C306.249 227.94 300.595 230.14 298.613 228.746C299.714 226.913 303.018 226.18 303.899 224.273C305.294 223.613 305.221 225.74 306.396 225.446ZM222.325 254.855C244.793 252.875 273.648 243.708 292.739 235.42C293.693 237.767 289.802 238.061 287.819 239.087C267.481 249.575 231.797 256.762 217.038 257.276C217.112 254.415 219.608 255.222 222.325 254.855ZM240.681 256.909C257.936 252.289 279.669 247.375 294.134 239.747C293.693 241.068 295.823 243.928 297.218 244.808C291.05 251.408 274.53 255.809 266.6 255.002C274.603 252.142 286.718 250.088 294.795 243.561C292.665 240.774 289.288 244.588 286.645 245.615C263.443 254.855 240.901 258.302 217.626 261.163C221.077 259.769 234.367 256.689 240.681 256.909ZM304.12 245.248C303.826 243.781 305.294 243.268 306.396 243.854C306.469 244.735 305.001 244.808 304.12 245.248ZM259.624 256.689C258.083 258.962 253.457 258.816 251.474 258.742C252.723 257.056 256.908 258.082 259.624 256.689ZM225.996 265.856C238.405 262.996 246.408 263.509 257.862 261.383C248.023 264.316 231.062 268.203 219.461 266.736C218.801 264.61 224.968 264.683 225.996 265.856ZM296.997 248.328C301.843 248.402 299.641 254.782 301.256 259.109C296.263 259.182 297.144 251.628 296.997 248.328ZM298.686 273.557C299.641 271.137 296.337 270.037 294.795 272.164C292.665 269.083 296.997 269.23 296.41 266.883C295.529 264.83 294.648 269.157 293.767 267.103C294.207 264.683 296.704 264.17 293.546 262.409C298.98 257.569 306.175 271.43 298.686 273.557ZM308.452 266.223C308.378 267.47 307.35 266.663 306.616 266.81C306.689 265.636 307.717 266.37 308.452 266.223ZM307.424 269.303C308.745 269.303 309.626 270.403 310.287 271.724C308.965 271.724 308.084 270.623 307.424 269.303ZM290.683 266.003L291.711 269.083C277.76 267.763 263.222 267.543 248.023 268.717C261.166 265.856 277.246 266.003 290.683 266.003ZM242.737 269.083C242.81 267.176 245.38 268.35 246.408 267.837C248.17 268.937 244.059 268.203 242.737 269.083ZM262.708 261.749C272.253 258.082 282.313 258.229 294.941 254.415L295.529 256.249C284.515 258.376 273.648 259.989 262.708 261.749ZM265.792 272.97C280.257 273.19 293.62 275.831 303.752 284.778C279.743 274.584 253.016 269.963 221.517 274.804C234.66 271.504 252.355 268.863 265.792 272.97ZM292.372 299.446C279.743 291.379 265.939 285.731 251.107 281.918C266.967 282.871 284.589 285.731 292.372 299.446ZM298.025 302.306C296.263 301.206 298.833 298.933 297.438 296.366C298.906 295.779 300.375 295.266 301.329 295.779C302.651 299.153 299.861 300.546 298.025 302.306ZM316.822 307.587C317.409 307.44 317.556 308.173 317.85 308.613C317.262 308.833 317.116 308.027 316.822 307.587ZM323.577 299.226C325.266 304.14 322.696 306.927 321.154 310.227C316.748 310.374 320.713 302.086 318.511 302.306C316.234 301.133 321.521 298.566 323.577 299.226ZM314.179 301.719C310.14 300.913 308.084 296.292 303.532 296.439C303.973 295.266 303.752 294.679 302.724 294.019C289.435 282.871 273.722 276.491 255.146 275.904C272.327 274.584 289.949 281.111 303.532 290.352C305.661 297.026 310.948 297.246 314.179 301.719ZM312.93 289.912C310.361 286.832 311.682 290.572 308.672 291.305C309.479 288.885 308.892 288.445 306.396 288.665C306.689 285.805 306.836 285.218 306.836 281.698C312.637 279.351 313.444 284.631 312.93 289.912ZM304.78 281.698C296.263 275.611 283.12 273.337 274.603 270.697C279.963 270.843 285.543 270.623 290.536 271.504C292.665 273.63 294.721 276.124 297.658 276.564C300.815 276.124 301.77 274.584 303.385 273.264C304.633 275.244 306.763 275.244 307.644 277.957C305.588 278.764 305.588 280.451 304.78 281.698ZM315.574 240.774C313.077 242.021 317.336 245.541 317.85 247.521C318.878 247.008 318.878 245.981 318.29 244.661C319.685 246.055 321.741 253.682 323.797 259.109C322.108 257.349 322.108 257.789 321.374 259.916C324.825 259.549 323.797 263.509 324.017 265.856C323.136 267.25 323.21 266.076 321.594 266.663C325.119 268.35 321.888 271.577 321.374 274.217C318.731 271.944 315.133 276.564 313.591 273.41C315.867 273.997 318.804 273.264 321.962 271.944C320.126 268.497 313.444 274.73 311.976 270.55C314.839 270.697 319.612 270.403 321.154 267.47C318.217 267.176 314.032 269.377 311.388 268.717C308.158 266.076 313.591 264.096 309.112 264.023C308.598 262.263 311.315 262.043 313.004 261.383C312.196 258.889 308.598 262.043 308.084 258.962C309.847 259.916 309.993 257.789 312.343 257.569C311.829 255.442 309.112 257.936 309.259 254.489C310.067 253.829 312.637 254.122 312.123 252.875C312.196 249.942 308.745 254.122 308.892 251.262C310.361 250.968 311.242 250.382 311.756 249.648C311.095 247.888 308.819 249.428 308.305 247.375C306.836 247.668 306.029 248.255 306.249 249.428C304.927 249.942 305.221 247.375 304.633 246.568C307.35 245.981 309.406 246.788 311.609 244.955C311.315 242.534 308.231 245.615 308.158 242.681C310.067 242.534 311.388 243.634 312.857 244.515C312.49 243.121 313.518 241.214 311.609 238.794C313.665 237.767 314.546 239.381 315.574 240.774ZM308.231 239.087C308.305 239.674 308.672 239.601 309.039 239.527C309.7 240.628 306.542 241.361 306.983 239.527L308.231 239.087ZM300.889 243.634C296.483 243.048 296.116 238.134 294.795 233.44C295.529 233.294 295.823 232.927 295.823 232.413C301.623 230.727 302.578 240.554 300.889 243.634ZM309.847 227.72C309.553 230.433 305.368 231.24 302.724 232.854C301.476 229.26 307.57 227.94 309.847 227.72ZM304.12 237.107C304.413 236.374 304.34 235.494 303.899 234.467C307.13 233.88 308.452 232.34 311.021 231.387C311.168 233.367 312.416 233.44 312.857 234.834C310.507 233.147 306.836 235.934 304.12 237.107ZM316.969 232.78C314.693 233.294 314.472 229.627 312.49 229.553C314.105 225.813 311.168 225.446 311.242 221.779C316.602 220.972 317.703 228.746 316.969 232.78ZM313.738 214.885C312.784 217.746 309.993 221.559 308.525 223.539C308.452 223.833 308.305 224.126 308.011 224.273C308.158 224.053 308.305 223.833 308.525 223.539C309.112 221.999 307.497 219.139 305.368 220.386C305.441 215.839 310.361 210.852 313.738 214.885ZM302.064 210.558C305.368 208.431 301.329 204.398 298.76 204.838C302.431 200.217 313.811 211.878 305.515 212.758C308.084 209.898 304.046 210.412 302.064 210.558ZM295.529 217.526C297.364 215.839 298.172 213.418 300.815 213.052C302.284 214.885 296.116 216.645 295.309 218.992C278.421 233 248.023 241.654 223.059 247.155C245.674 238.721 279.302 232.487 295.529 217.526ZM217.626 248.915C216.818 247.301 219.682 247.595 219.461 246.275C220.196 246.201 220.269 247.375 221.077 247.081C221.444 248.475 218.58 248.255 217.626 248.915ZM280.036 213.859C284.442 208.651 286.204 201.611 290.463 196.11C283.561 217.966 263.296 234.467 232.531 240.554C250.96 233.66 268.582 227.28 280.036 213.859ZM224.528 241.214C226.73 241.434 222.545 242.534 221.664 242.828C219.461 242.608 223.647 241.508 224.528 241.214ZM268.215 194.717C267.334 192.663 265.719 192.297 265.131 189.656C271.519 187.896 275.411 193.763 277.393 197.797C273.942 197.504 272.621 193.03 268.215 194.717ZM268.582 197.944C274.676 201.904 263.883 208.651 263.075 214.079C254.632 220.972 245.233 232.56 233.045 234.247C249.859 226.62 263.589 213.125 268.582 197.944ZM148.387 204.764C146.257 202.564 141.779 205.058 140.016 202.124C146.258 200.437 148.974 194.424 155.949 194.79C156.684 194.13 157.124 193.323 157.198 192.37C151.911 188.85 143.467 196.917 139.87 201.537C138.915 190.977 148.387 188.19 160.061 184.596C161.236 186.723 158.446 186.87 157.785 188.043C158.74 190.61 161.163 190.17 162.044 192.737C160.796 192.883 160.355 191.343 158.593 192.517C160.942 195.67 163.145 192.883 166.523 193.91C166.743 191.417 161.75 191.49 160.575 188.41C164.76 187.823 166.816 191.563 169.753 193.47C165.128 195.377 158.079 196.184 156.904 199.777C162.705 199.484 172.764 192.223 178.124 194.057C171.148 198.971 157.051 201.537 148.387 204.764ZM192.882 197.357C182.456 189.73 168.652 189.95 159.841 179.829C168.211 174.842 186.421 167.214 196.406 171.028C203.969 173.962 216.671 181.809 221.077 185.916C226.804 191.197 229.08 197.284 232.311 205.278C235.688 213.565 243.618 221.999 236.422 229.773C234.44 229.627 231.944 230.507 229.521 231.387C225.335 218.259 221.444 190.17 205.805 188.996C212.339 195.084 218.654 202.418 221.958 212.832C223.793 218.699 223.133 224.786 225.849 230.58C225.556 230.873 225.262 231.24 224.968 231.607C225.409 231.607 225.556 232.267 225.849 232.633C225.335 232.78 225.115 232.193 224.895 231.753C222.839 234.54 220.856 238.207 216.231 240.628C206.098 224.273 206.098 207.038 192.882 197.357ZM121.293 223.319C119.898 223.393 117.402 225.74 117.182 223.319C118.65 223.099 121 223.613 120.632 221.486C121.66 221.413 120.632 222.366 121.293 223.319ZM127.975 180.269C127.314 179.976 127.02 178.729 126.139 178.875C126.433 176.822 128.636 179.242 130.031 178.289C129.884 179.169 129.076 179.829 127.975 180.269ZM131.646 174.988C132.894 176.969 130.031 176.675 129.37 176.382C129.37 174.475 130.104 175.429 131.646 174.988ZM184.291 120.717C183.998 121.451 183.484 122.037 182.896 122.551C181.207 122.844 183.41 120.937 184.291 120.717ZM174.085 92.188C173.865 93.288 172.397 93.7281 171.442 94.4615C171.075 93.068 172.543 92.628 174.085 92.188ZM168.725 96.6617C166.523 99.5219 169.46 100.402 169.533 103.189C172.617 102.529 173.571 100.769 174.232 98.9352C173.131 96.8817 170.708 99.3019 170.781 100.769C169.313 98.4952 174.819 95.3416 177.903 93.6547C179.078 94.3881 179.445 96.6617 180.987 96.735C172.617 103.629 163.145 112.576 164.467 122.624C168.358 114.703 174.012 100.695 185.246 101.429C186.274 107.369 185.613 112.503 184.438 117.343C190.239 119.25 188.77 100.622 189.725 110.816C191.927 109.716 191.854 107.443 192.001 105.316C191.193 103.042 189.578 106.049 189.137 104.876L188.697 103.629C189.211 100.329 190.899 104.656 193.763 102.602C189.064 98.7152 182.823 97.9818 179.665 91.0145C184.879 89.4744 187.669 92.7013 191.12 94.6815C191.413 95.8549 189.211 95.7816 189.871 97.1017C190.899 98.4218 192.735 98.1285 193.983 99.1552C194.791 101.722 194.571 103.849 192.588 105.096C193.029 106.563 194.277 106.563 194.424 108.543C191.78 112.796 188.109 116.61 183.998 120.204C181.281 118.81 176.288 124.751 176.435 128.124C172.69 128.418 171.075 133.845 167.477 135.898C165.495 135.532 167.551 132.965 167.477 131.791C169.68 132.965 169.166 131.791 171.148 130.545C171.075 129.445 168.211 129.225 168.505 130.765C167.037 126.584 171.442 121.01 172.617 116.463C168.064 119.544 165.421 124.824 158.152 128.124C163.218 118.37 161.53 105.316 168.725 96.6617ZM151.397 128.271C151.471 129.004 150.296 129.078 150.59 129.885C148.827 130.251 149.929 127.978 151.397 128.271ZM146.698 138.685C147.285 138.539 147.432 139.272 147.726 139.712C147.139 139.859 146.992 139.125 146.698 138.685ZM146.698 140.739C147.726 141.472 149.782 141.839 148.974 143.379C147.873 143.159 147.432 141.692 146.698 140.739ZM151.25 148.073C151.838 147.926 151.985 148.66 152.278 149.1C151.617 149.246 151.544 148.513 151.25 148.073ZM149.415 152.767L148.974 151.52L150.222 151.08L150.663 152.327L149.415 152.767ZM162.851 148.293C163.512 146.606 160.869 145.506 159.988 143.819C157.345 145.359 162.411 146.826 161.016 148.953L159.18 149.54C157.859 149.1 158.813 145.139 156.757 144.259C153.233 144.919 157.785 147.193 155.142 147.486C154.334 146.313 154.554 143.232 153.086 143.379C153.453 142.572 153.894 141.766 154.334 140.959C152.719 139.565 152.572 140.886 150.443 141.546C150.957 140.152 152.792 136.779 148.827 138.685C149.268 136.999 151.764 136.412 152.278 134.798C150.81 132.525 149.782 135.678 147.139 135.825C149.048 134.065 149.562 132.085 153.453 130.325C153.233 128.784 151.911 129.371 151.838 127.464C153.233 126.291 153.38 124.531 155.289 123.577C156.757 129.004 151.764 134.505 154.481 137.439C158.813 135.018 157.932 129.958 163.659 128.271C163.953 131.278 160.649 132.305 163.218 135.238L160.135 136.265C160.502 137.219 160.649 138.685 161.53 138.539C161.53 140.372 159.694 137.585 158.666 138.099C158.226 138.392 158.226 138.905 157.638 139.125C159.768 142.572 164.393 141.326 166.596 139.565C167.477 142.059 171.515 142.572 172.103 139.785C174.379 140.666 170.194 142.572 170.047 143.892C168.505 143.892 168.285 141.252 166.596 141.619C164.907 143.452 168.358 143.379 168.432 145.066C166.523 145.139 167.11 146.459 165.568 146.679L164.32 143.012L163.072 143.452C161.603 145.139 166.669 147.339 162.851 148.293ZM142.88 159.66C144.348 157.68 145.744 155.627 148.607 154.38C147.873 157.46 144.789 156.727 145.376 160.907C144.128 161.201 144.202 159 142.88 159.66ZM140.237 163.988C139.796 162.374 141.999 161.787 143.1 162.374C143.321 164.428 141.705 163.694 140.237 163.988ZM137.373 165.601L139.209 165.014C139.723 165.968 138.988 166.261 139.209 167.068C138.695 167.141 138.401 166.628 137.814 166.848L137.373 165.601ZM135.538 168.241C137.52 168.168 135.831 170.368 136.566 171.322C134.216 171.542 135.097 169.415 135.538 168.241ZM117.549 179.682C115.713 176.895 120.853 177.629 121 175.795C121.734 175.649 121.881 176.749 122.248 177.409C121.66 178.655 119.311 179.022 117.549 179.682ZM81.0568 188.483C79.9554 186.87 79.2212 189.51 77.973 189.51C77.0185 187.31 81.2771 187.75 79.2212 185.036C81.2771 185.696 81.4974 190.096 83.333 191.123C83.6267 191.637 83.2595 191.783 82.8924 191.93C82.305 192.003 82.3784 192.37 82.4519 192.737C80.1023 193.103 80.2491 189.51 81.0568 188.483ZM84.9483 196.037C83.4798 196.33 83.7001 193.47 83.9203 192.957C85.0217 193.177 85.756 194.057 86.1965 195.597C85.4623 195.377 84.8015 195.23 84.9483 196.037ZM86.7839 199.484C86.1231 198.164 86.1231 197.137 86.3434 196.257C87.4447 196.477 87.8853 197.944 88.6195 198.897L86.7839 199.484ZM88.9866 200.071C89.7209 199.997 89.7943 201.171 90.6019 200.877C90.6754 201.611 89.5006 201.684 89.7943 202.491C88.2524 202.931 88.9132 200.511 88.9866 200.071ZM91.2628 202.711C92.3641 203.151 93.0984 204.398 93.6858 205.938C91.7767 206.818 90.6019 204.031 91.2628 202.711ZM94.7137 207.038C95.6682 207.185 96.2556 207.991 96.7696 209.091C95.5214 208.871 93.9061 208.431 94.7137 207.038ZM97.5773 211.512C98.3115 209.825 101.469 211.732 101.836 214.152C99.4129 215.325 99.266 211.878 97.5773 211.512ZM104.112 214.739C104.332 215.619 104.626 216.499 105.36 216.352C105.507 217.085 104.406 217.232 103.745 217.599C102.864 216.132 101.836 215.619 104.112 214.739ZM105.727 219.652C105.948 218.919 106.902 218.552 106.315 217.379C107.636 217.379 108.517 218.479 109.178 219.799C108.444 219.946 108.15 220.312 108.15 220.826C106.829 221.559 106.902 219.359 105.727 219.652ZM116.154 218.186C116.814 205.791 117.622 193.47 117.182 180.489C118.797 181.516 120.632 182.102 122.468 180.049C124.01 182.176 124.891 180.489 127.167 181.882C125.258 186.723 122.101 190.903 124.304 197.797C123.349 198.971 121.44 198.017 121.881 200.657C127.094 200.951 121.881 208.431 116.961 208.431C117.916 209.678 121.514 210.852 122.468 208.651C124.451 208.578 121.367 210.045 122.688 211.292C120.045 212.758 118.87 211.438 116.741 211.878C117.182 215.472 121 212.172 121.881 214.959C119.384 216.719 118.063 213.565 116.814 215.985C117.842 217.305 119.091 218.186 121.293 217.232C121.22 220.239 117.402 218.846 116.154 218.186ZM109.619 223.099C109.766 222.146 110.573 221.559 111.675 221.046C112.923 222.733 110.647 222.586 109.619 223.099ZM114.098 228.38C115.346 226.84 110.72 225.74 112.042 224.273C113.584 223.759 112.923 224.493 113.07 225.3C114.245 226.033 116.08 225.373 117.328 225.886C117.842 227.573 115.713 227.866 114.098 228.38ZM117.182 259.989C109.986 261.529 97.2101 264.316 93.3186 255.736C95.6682 254.489 97.4304 257.642 100.661 257.349C101.909 255.075 97.6507 255.222 97.2101 253.095C100.955 251.702 102.937 248.328 104.773 251.262C104.185 248.915 107.343 245.615 108.664 248.622C108.738 245.615 113.51 242.974 115.419 246.348C116.961 245.248 115.199 242.534 118.063 242.094L119.091 245.175C121.073 242.168 120.632 239.381 124.01 243.561C123.569 240.187 124.818 240.848 125.625 238.281C113.731 238.647 103.378 245.835 93.9795 251.555C93.7592 248.255 94.42 245.321 95.0074 242.388C106.608 236.3 124.23 224.639 142.146 222.586C159.4 220.606 186.053 229.407 199.123 236.227C205.437 239.527 219.241 247.815 212.78 256.836C194.057 241.581 170.487 235.934 145.597 233C143.834 233.294 145.817 235.494 144.569 236.08C166.302 238.061 198.609 246.421 214.615 262.336C215.423 263.143 216.745 268.863 216.671 272.53C193.543 287.125 174.893 267.323 156.684 261.969C145.23 261.676 130.765 257.056 117.182 259.989ZM158.813 276.711C158.593 275.244 161.897 275.171 162.484 275.464C162.411 277.591 160.208 275.537 158.813 276.711ZM166.155 272.237C166.743 272.09 166.89 272.824 167.183 273.264C166.596 273.41 166.449 272.677 166.155 272.237ZM150.076 276.931C147.946 277.811 149.708 274.364 146.845 275.317C149.048 273.044 155.362 273.997 160.942 272.677C156.831 275.757 151.177 273.85 150.076 276.931ZM123.129 263.436C138.475 261.016 151.177 263.876 162.925 268.497C163.292 269.157 163.145 269.597 162.705 269.89C148.313 270.77 137.373 272.677 123.349 276.197C122.541 271.65 125.478 268.863 123.129 263.436ZM117.182 268.13C118.797 267.617 119.311 269.303 120.412 269.743C120.486 271.724 118.577 269.45 117.328 270.77C116.741 269.597 117.255 269.083 117.182 268.13ZM109.472 306.12C109.472 305.533 114.318 307.953 115.419 305.533C115.199 303.773 111.895 303.26 111.748 304.726C109.986 304.286 110.28 303.553 110.133 301.866C112.189 300.766 113.143 304.066 114.245 301.866C113.363 300.546 112.262 299.666 110.353 300.473C109.692 298.419 111.675 297.686 110.794 295.559C112.629 295.266 113.143 297.686 114.905 297.612C116.08 296.146 113.29 294.165 111.822 294.532C110.867 292.699 111.895 291.819 111.822 290.425C112.923 291.232 113.877 292.479 115.272 292.699C116.888 289.692 111.234 288.372 112.849 285.365C114.465 284.925 114.391 287.785 116.521 286.171C115.64 283.238 112.336 284.045 113.217 280.451C115.126 279.278 114.832 282.651 116.888 281.258C118.063 279.424 114.832 278.031 113.584 277.591C113.51 276.564 115.346 276.417 114.024 274.73C115.346 275.171 115.786 277.371 117.475 277.004C118.356 275.831 116.007 272.457 114.612 272.53C115.126 271.284 118.65 272.604 120.118 272.75C118.577 275.391 120.045 279.424 121.587 281.111C129.59 277.371 136.419 276.051 146.111 274.951C144.642 276.197 145.67 278.397 148.167 277.004C146.184 279.204 140.677 279.718 137.373 281.258C137.153 278.984 135.831 278.911 134.95 278.031C132.747 278.471 135.684 281.478 134.363 282.284C132.747 283.531 132.821 281.258 132.307 280.231C127.975 280.304 131.646 284.338 127.608 284.485C126.58 282.651 128.122 282.211 126.58 281.404C124.597 282.064 124.818 283.898 125.332 285.878C124.083 286.025 124.377 283.091 122.248 284.851C119.605 292.039 118.87 300.179 116.961 307.66C113.217 309.493 111.675 307 109.472 306.12ZM108.664 307.733C110.059 308.247 111.014 309.787 112.776 309.787C112.189 311.474 108.958 309.86 108.664 307.733ZM108.224 310.594C109.545 310.08 109.252 312.647 109.839 313.454C109.252 313.307 108.664 313.16 107.783 313.454C107.416 312.207 109.252 312.06 108.224 310.594ZM98.8255 319.174C97.5773 317.561 99.8534 317.634 100.881 317.121C100.074 313.747 98.6786 315.581 96.6227 316.534C95.448 314.774 98.3115 314.994 98.4583 313.894C97.9444 312.574 96.4759 313.087 95.0074 313.674C96.7696 310.227 92.2173 310.594 90.5285 308.393C90.1614 306.78 91.8502 308.907 92.9515 307.587C88.3258 306.047 91.1893 301.646 86.6371 300.839C87.2979 298.419 86.7105 295.486 83.5532 295.779C84.214 291.452 78.1198 288.958 80.1023 283.311C78.2667 280.671 76.1374 284.998 75.1829 280.891C77.0919 281.038 77.8996 281.918 79.6618 280.084C85.5357 295.486 93.3921 307.147 103.378 318.368C101.542 317.928 100.441 317.634 98.8255 319.174ZM103.378 320.348C104.259 322.328 101.102 322.255 100.294 323.428C100.074 321.741 101.102 319.321 103.378 320.348ZM107.049 317.121L108.297 316.681L108.738 317.928L107.49 318.368L107.049 317.121ZM111.675 316.901C112.703 318.441 110.867 318.514 111.234 319.761C110.573 320.348 109.986 316.827 111.675 316.901ZM118.063 317.488C116.814 314.994 119.678 309.714 120.706 305.02C121.734 300.326 122.248 295.119 123.569 291.159C136.052 285.145 151.397 281.404 164.76 280.158C170.781 284.851 177.536 287.932 184.952 289.765C172.323 305.753 140.751 318.368 118.063 317.488ZM102.937 333.402C113.143 335.016 124.157 337.216 137.447 332.742C136.786 329.662 133.629 331.495 131.132 332.155C128.709 330.982 132.307 330.615 131.352 328.708C130.251 327.682 127.975 330.395 129.076 332.155C127.461 331.642 124.891 333.109 123.129 332.742C121.954 330.835 125.332 331.129 123.937 329.075C122.688 327.535 120.339 332.302 122.321 332.302C121.66 332.962 114.318 333.842 115.566 330.469C111.601 332.889 107.269 330.029 103.965 328.195C117.108 317.121 136.859 320.714 151.911 314.921C165.274 309.787 175.333 302.6 184.952 293.725C185.686 294.019 186.274 294.532 186.788 295.119C187.155 293.212 187.448 291.452 189.651 289.398C190.973 289.178 190.973 291.452 192.294 291.232C190.165 286.758 195.378 283.385 200.445 281.038C200.445 282.578 198.242 285.658 196.186 284.485C195.452 286.685 194.35 288.665 193.543 290.792C198.315 290.352 198.682 283.091 202.941 286.318C204.409 284.485 202.647 281.038 206.392 280.378C207.787 282.798 206.906 284.045 205.951 285.291C208.007 286.465 210.504 283.531 211.018 282.211C210.871 280.084 208.741 281.991 207.934 281.184C210.137 277.224 211.752 283.018 213.074 284.265C215.643 283.825 212.706 280.671 212.633 278.984C217.038 277.077 217.773 282.358 219.168 286.318C211.164 298.273 198.829 308.1 187.742 318.514C202.427 313.234 211.605 300.326 220.783 289.105C230.328 297.539 219.021 311.914 212.853 320.274C200.224 336.996 174.893 349.537 149.782 351.517C136.272 352.617 122.982 347.997 112.189 344.99C108.444 341.25 103.965 338.536 102.937 333.402ZM98.8989 339.563C99.6331 337.216 102.35 339.343 102.79 340.956C101.175 341.03 100.441 339.489 98.8989 339.563ZM99.4863 341.396C101.248 342.203 100.074 343.376 99.9268 344.623C98.0178 345.21 97.0633 341.543 99.4863 341.396ZM96.4025 348.51C96.4025 347.483 96.7696 346.677 96.843 345.65C98.0912 345.87 99.1192 347.263 98.4583 348.51C97.871 348.364 97.2836 348.217 96.4025 348.51ZM-4.48238 272.677C-5.58374 269.303 -1.61882 270.99 -1.03143 272.897C-2.20621 273.044 -2.64677 271.504 -4.48238 272.677ZM35.5338 253.902C38.9113 261.383 38.1037 274.657 33.0374 283.165C31.7158 281.844 31.7892 284.411 32.45 284.045C31.7892 285.071 31.0549 286.025 30.1739 286.905C32.964 284.118 26.9432 282.064 27.5306 276.931C29.8802 277.151 31.0549 277.517 32.45 275.317C32.0094 273.19 29.4396 275.244 29.3662 272.237C31.4221 272.017 30.6878 272.237 32.45 271.21C32.2297 267.69 27.9711 268.57 28.7788 266.296C29.7333 267.103 30.9815 267.323 32.8905 266.296C32.0829 263.069 31.0549 265.123 29.6599 264.683C29.4396 260.063 33.6248 257.569 35.5338 253.902ZM25.9887 276.124C25.4013 276.271 25.2544 275.537 24.9607 275.097C25.5481 274.951 25.695 275.757 25.9887 276.124ZM22.9049 258.816C21.8035 259.036 21.1427 258.229 20.849 256.762C21.8035 256.909 22.4643 257.716 22.9049 258.816ZM-31.2088 155.92C-31.0619 156.874 -32.971 156.727 -32.6038 157.754C-34.5863 157.094 -32.8975 155.333 -31.2088 155.92ZM-47.9495 162.814C-47.1418 163.988 -46.2607 164.794 -44.2783 163.621C-43.7643 161.641 -47.3621 163.327 -45.5265 162.007C-44.2049 159.807 -42.9566 164.354 -40.3868 163.034C-38.7715 161.054 -43.8377 160.834 -42.4427 158.927C-38.3309 157.314 -38.6246 156.947 -35.1003 156.507C-32.2367 167.361 -47.6558 169.488 -54.9248 172.642C-54.4108 170.515 -50.2991 165.748 -47.9495 162.814ZM-55.2919 179.536L-55.7325 178.289L-53.8969 177.702L-53.3095 179.536C-53.9703 179.316 -54.6311 179.169 -54.5577 179.976C-54.9982 180.269 -55.1451 179.902 -55.2919 179.536ZM-48.1698 180.562C-48.6103 181.736 -48.39 182.322 -47.3621 182.983C-46.2607 182.322 -46.8481 180.856 -44.7188 180.709C-44.8657 181.296 -45.0125 181.882 -44.7188 182.762C-46.8481 183.276 -49.4914 184.889 -51.0333 184.229C-51.7675 182.836 -50.3725 182.542 -51.4739 181.002C-50.0788 180.269 -49.7117 181.662 -48.1698 180.562ZM-47.1418 177.482C-46.3342 177.922 -44.7923 176.895 -44.7188 178.729C-45.5265 178.289 -46.995 179.316 -47.1418 177.482ZM-38.4044 173.228C-38.2575 174.842 -40.24 175.355 -41.4882 176.309C-41.3413 174.768 -40.6805 173.595 -38.4044 173.228ZM-51.841 177.702L-49.418 176.895L-48.8306 178.729C-49.5648 177.922 -51.7675 179.902 -51.841 177.702ZM-21.4434 236.227C-37.0827 223.466 -51.4004 201.171 -55.5856 181.002C-53.6032 179.902 -50.6662 186.063 -52.5018 186.063C-50.2991 187.09 -47.8026 185.769 -43.9112 185.256L-42.6629 188.923C-45.0859 188.556 -44.6454 190.023 -46.7747 190.977C-42.149 195.377 -39.8728 204.398 -35.3205 208.945C-35.6877 210.265 -38.3309 210.485 -39.212 211.585L-40.6071 207.331C-39.1386 207.038 -38.3309 206.451 -38.5512 205.278C-38.9183 203.884 -40.8273 205.718 -41.7819 205.718C-42.4427 203.518 -43.9112 200.877 -42.3693 199.777C-47.1418 198.971 -45.2328 191.197 -48.904 188.336C-49.5648 197.577 -43.3238 208.065 -36.6422 218.919C-33.4849 218.259 -36.3485 214.299 -37.6701 213.859C-37.3764 211.952 -34.1457 211.512 -32.7507 210.192C-35.6142 203.151 -43.3238 195.597 -41.3413 190.61C-31.5025 210.485 -18.3596 222.513 -5.58374 238.501C-4.62923 240.334 -6.6851 240.701 -6.3914 242.168C-7.05222 241.801 -8.00673 239.527 -10.0626 239.307C-10.136 237.914 -9.40179 236.887 -9.25494 235.64C-10.3563 234.027 -11.0906 236.667 -12.3388 236.667C-13.8807 234.614 -15.2757 233.66 -14.1744 231.167C-15.2757 229.553 -16.01 232.193 -17.2582 232.193C-18.9469 229.26 -22.0308 227.866 -19.6812 224.859C-21.2231 224.126 -21.2231 225.3 -22.765 225.886C-24.0866 223.979 -26.1425 222.659 -24.6006 220.386C-25.2614 218.992 -26.7299 219.506 -26.4362 220.972C-28.125 220.386 -30.548 217.672 -29.7403 215.252C-30.4745 214.225 -32.6038 215.839 -32.971 214.079C-32.7507 215.985 -32.5304 216.792 -33.1912 219.139C-31.0619 219.359 -28.0515 221.853 -28.7123 224.419C-27.1704 225.373 -23.1321 226.766 -24.2335 229.7C-22.4713 230.067 -18.1393 232.707 -18.1393 235.787C-19.5343 236.52 -19.828 235.127 -21.4434 236.227ZM-13.2198 244.368C-13.2198 241.654 -15.6429 243.781 -15.6429 241.141C-14.9086 241.434 -14.0275 241.361 -12.9996 240.921C-13.1464 239.894 -13.9541 240.041 -14.2478 239.307C-15.7897 239.527 -15.2023 240.848 -17.1113 240.921C-17.5519 239.087 -19.0938 239.527 -19.5343 237.694L-15.8631 236.447C-12.7793 238.281 -13.3667 241.801 -10.3563 242.754C-12.2653 242.828 -11.6779 244.148 -13.2198 244.368ZM-10.3563 246.788C-10.5766 245.468 -9.10809 245.028 -9.32836 243.708C-8.81439 243.634 -8.52071 244.148 -7.93331 243.928C-7.71304 245.248 -9.18152 245.688 -8.96124 247.008C-9.47521 247.081 -9.76891 246.641 -10.3563 246.788ZM-7.71304 248.622C-5.06976 246.935 -3.30759 247.815 -2.64677 245.541C-3.16074 244.881 -3.82155 244.515 -4.92291 244.955C-5.65716 243.194 -4.18867 242.608 -4.92291 240.848C-2.94046 240.334 -1.2517 239.601 -1.03143 238.207C-1.91252 235.274 -3.38101 239.307 -4.48238 237.987C-4.92292 235.714 -1.5454 235.347 -1.2517 233.514C-3.23415 231.02 -3.16074 234.687 -5.51031 234.907C-4.70264 233.367 -4.77607 231.607 -7.56618 232.854C-8.59412 231.313 -6.75851 231.24 -7.12564 229.993C-7.56618 228.893 -9.32837 230.287 -9.98919 229.553C-8.66756 225.813 -13.9541 227.06 -12.6325 223.613C-24.4538 214.079 -31.7962 201.611 -40.3868 185.329C-36.275 184.963 -38.4044 180.709 -34.88 181.442L-35.6877 179.022C-36.7156 177.335 -36.789 180.049 -38.1106 179.829C-37.817 179.096 -37.8904 178.215 -38.3309 177.189C-36.4953 176.235 -35.4674 177.702 -34.6597 175.942C-34.8066 174.548 -35.9079 175.062 -36.9359 175.355C-36.8624 173.888 -36.1282 172.715 -33.852 172.275C-34.366 170.515 -35.9079 171.028 -37.5233 171.468C-37.3764 168.388 -33.4849 170.295 -30.9885 168.608C-14.6149 178.069 -6.6851 210.192 3.15375 227.94C4.10826 226.546 6.45783 225.886 5.79701 223.686C4.76907 221.999 4.69566 224.713 3.37402 224.493C-3.381 205.131 -8.37386 193.983 -16.01 178.655C-15.1289 178.435 -14.2478 178.142 -14.3946 177.409C-14.7618 174.255 -17.7721 178.802 -17.8456 177.189C-18.6532 175.282 -16.1568 174.988 -15.5694 173.742C-16.0834 172.055 -19.1672 173.155 -18.6532 174.768C-20.1951 174.768 -20.4154 172.128 -22.1042 172.495C-21.5902 171.101 -20.0483 170.148 -20.0483 168.388C-21.6636 167.508 -22.6916 169.268 -22.6916 170.661C-24.2335 170.661 -24.4538 168.021 -26.1425 168.388C-26.2159 166.848 -24.674 166.041 -24.7474 164.501C-27.5376 163.034 -26.8767 168.681 -29.6669 166.114C-30.9885 163.768 -27.097 163.988 -28.4187 161.641C-29.0061 160.174 -30.4745 162.154 -30.034 162.887C-31.1354 162.667 -31.5759 161.201 -32.3101 160.247C-25.188 153.573 -18.0658 161.347 -13.2933 168.168C-17.9924 165.308 -21.8839 160.834 -27.1704 159.22C-27.611 159.514 -27.611 160.027 -28.1984 160.247C-22.251 163.621 -17.1848 168.828 -11.2374 172.275C-8.30043 170.735 -13.8072 169.635 -12.4856 168.608C-3.89497 173.815 -0.0769196 184.816 3.66772 194.497C8.36686 206.745 8.8074 222.513 14.0939 237.914C11.9646 236.961 10.9367 239.747 7.99974 239.967C9.24795 242.314 10.0556 240.628 12.1115 239.967L13.1394 243.048C12.6255 244.001 11.2304 244.441 9.6885 244.881C9.90877 247.448 13.066 244.221 13.9471 245.468C13.4331 247.668 15.4156 249.208 15.1953 251.188C13.8737 249.428 12.6989 247.375 9.6885 248.915C7.63262 243.121 4.10825 240.334 1.75868 235.274C0.143349 237.621 4.10825 241.508 5.42989 244.221C3.81456 245.615 3.08032 245.321 0.143349 246.641C0.143349 245.248 2.86005 245.321 2.56635 243.781C2.05238 242.461 -0.150345 244.368 -1.32513 244.368C-1.61883 247.008 -5.73058 253.389 -7.71304 248.622ZM5.50332 245.615C7.11865 248.328 4.32854 248.768 2.05238 249.502C1.75869 247.448 4.32853 246.861 5.50332 245.615ZM-4.04182 253.535C-3.30759 251.848 -1.91252 250.528 0.069931 249.428L0.877594 251.848C-1.10486 252.435 -2.1328 254.489 -4.04182 253.535ZM4.32853 252.142C4.32853 250.675 6.53126 249.135 7.5592 249.722C8.88084 251.702 5.42989 251.335 4.32853 252.142ZM3.88799 256.982L3.44744 255.736L4.69565 255.295L5.1362 256.542L3.88799 256.982ZM7.99974 252.949C9.17452 251.995 11.2304 251.482 11.0836 249.868C12.8457 250.455 12.8457 254.489 13.9471 256.396C10.5696 258.009 9.98219 253.975 7.99974 252.949ZM14.5345 258.229C14.3876 257.349 17.1043 259.182 19.0134 257.422L20.0413 260.503L17.6183 261.309C19.7476 257.936 16.0764 259.622 14.5345 258.229ZM25.9887 286.318C24.5202 289.032 19.0868 285.511 19.6742 289.765C16.9575 287.565 14.9016 289.178 11.8912 288.958C11.2304 285.511 14.7548 285.365 16.5904 286.685C18.4994 284.558 16.1498 282.064 19.821 280.158C17.5449 277.151 16.1498 282.725 14.0939 281.404C13.2129 278.397 17.0309 277.811 18.3526 275.904C18.2057 274.877 17.398 275.024 17.1043 274.29C13.2863 276.491 11.8912 279.864 9.76192 282.871C10.129 284.558 12.9926 281.184 12.8457 283.898C10.4227 283.605 9.54165 287.785 6.89838 286.538C7.63261 285.218 9.61507 284.485 9.76192 282.871C9.46823 282.431 8.95425 282.431 8.73398 281.844C5.72359 282.211 6.31098 284.338 3.66772 284.925C3.59429 282.651 6.75153 282.064 6.75153 279.791C6.23756 279.058 5.35647 279.204 4.91592 278.397C3.52087 279.204 1.90554 279.938 2.63978 281.844C-0.737732 281.478 3.81456 278.177 5.06277 276.931C5.72359 278.984 7.77947 278.324 8.29344 280.598C11.157 277.297 14.8282 274.364 16.4435 270.403C12.0381 269.45 12.7723 275.391 8.88084 276.344C9.83535 273.41 17.5449 266.516 12.552 266.956C10.0556 266.15 14.6813 264.683 13.1394 262.703C18.2791 264.756 24.2999 274.51 23.5657 281.624C25.6216 282.211 26.2824 285.805 28.8522 285.291C29.9536 287.052 27.5306 287.052 28.6319 288.738C27.8977 287.932 26.2089 288.518 25.9887 286.318ZM23.1251 320.568C23.4188 319.834 23.3454 318.954 22.9049 317.928C23.4188 316.974 24.8139 316.534 26.3558 316.094C25.9152 314.261 24.5202 314.334 23.4922 313.674C22.1706 311.254 26.1355 313.747 25.3279 311.034C25.5481 308.54 23.1251 311.327 22.9049 309.787C21.5832 307.733 25.3279 308.32 25.3279 306.927C25.181 304.433 22.6846 306.707 22.4643 304.506C25.1076 303.773 24.9607 301.719 25.695 300.033C27.5306 301.866 24.9607 312.72 27.5306 319.834C26.1355 320.054 25.0341 319.614 23.1251 320.568ZM31.1284 368.899C32.5234 364.498 28.4117 363.471 31.5689 359.951C31.1284 359.144 29.6599 360.318 29.2928 359.365C28.4851 357.238 32.0829 357.384 31.3486 355.257C30.9081 354.524 29.6599 355.257 28.7054 355.478C27.4572 351.957 27.8977 349.317 26.8698 345.87C29.2928 346.237 29.5865 345.137 30.1004 343.45C29.8067 341.69 26.9432 345.063 26.6495 343.23C25.7684 341.103 29.1459 341.03 27.8977 338.756C23.7859 339.636 27.604 336.703 27.6774 334.062C27.2369 333.329 25.9887 334.062 25.0342 334.282C24.2265 332.009 26.5761 331.349 26.8698 329.589C26.3558 328.928 25.695 328.562 24.5936 329.002C27.1635 326.508 24.4468 326.215 23.3454 323.281C23.7125 321.228 26.6495 323.575 26.7963 321.448C30.1004 330.982 28.9256 341.543 31.1284 348.584C31.1284 349.757 28.1914 349.537 28.4851 350.857C34.873 351.077 30.7612 361.931 33.6248 368.165L31.1284 368.899ZM35.6072 394.568C30.7612 391.267 36.8555 388.847 32.5234 385.4L34.9464 384.593C35.0933 381.22 32.3766 383.64 31.8626 381.513C33.4045 378.066 33.1842 375.353 31.0549 372.932C29.9536 370.805 33.6982 371.172 33.3311 369.485C35.3135 378.139 34.5059 386.94 37.4428 398.015C36.8555 398.895 35.387 399.335 35.6072 400.655C34.873 399.775 32.5234 396.401 35.6072 394.568ZM37.6631 404.762C37.2226 404.028 35.9743 404.762 35.0198 404.982C35.3135 403.588 34.359 401.608 37.296 401.535C39.1316 406.815 38.9847 407.915 39.5721 412.316C38.6911 412.756 37.0023 412.756 37.2226 413.709C35.8275 410.922 35.3135 407.329 37.6631 404.762ZM37.4428 420.53C36.1212 418.183 41.3343 419.063 39.4987 416.423C38.1771 414.223 37.9568 419.21 37.0757 417.23C36.2681 414.516 37.7365 415.763 39.719 414.956C40.9672 417.083 39.9393 418.11 40.7469 420.016C39.719 420.016 37.81 421.85 37.4428 420.53ZM37.6631 423.17C38.9848 422.51 40.0127 422.51 40.8938 422.73C40.6735 423.39 40.5267 424.05 41.3343 423.977C41.0406 425.224 38.9847 425.517 38.1037 426.397C38.3239 425.517 38.3239 424.49 37.6631 423.17ZM39.2784 432.117C37.4428 432.117 39.4987 429.917 38.0302 428.451C40.0127 428.304 40.0861 427.057 41.4812 426.617C41.114 428.451 40.8204 429.477 42.2888 431.091C41.7749 431.384 41.628 431.017 41.4812 430.651C41.4812 429.551 39.2784 431.531 39.2784 432.117ZM40.1595 438.645C38.0302 438.351 40.1595 436.004 38.7645 434.391C40.6001 433.951 40.1595 432.411 41.9951 431.971C42.656 434.024 41.9951 435.344 43.2433 437.691C41.7014 437.251 40.3798 437.985 40.1595 438.645ZM39.719 443.558C40.0127 441.872 39.2784 442.458 39.2784 440.332C40.233 439.598 42.4357 441.285 42.3623 439.305C44.3447 439.231 42.656 441.432 43.3902 442.385L39.719 443.558ZM38.4708 462.26C39.5721 463.8 38.1037 464.167 38.9113 465.487C37.3694 465.487 35.9009 462.773 38.4708 462.26ZM35.0198 468.201C36.7086 467.687 35.9009 466.807 37.4428 467.394C38.7645 469.594 35.3135 470.694 35.0198 468.201ZM30.3207 482.648C30.541 483.969 29.0725 484.409 29.2928 485.729C27.1635 485.435 28.8522 482.869 30.3207 482.648ZM27.8977 487.562C27.8977 488.369 27.5306 489.102 26.5026 489.396C26.5026 488.589 26.8698 487.929 27.8977 487.562ZM25.695 491.009C25.7684 491.889 24.9607 492.329 25.1076 493.283C23.4188 493.576 24.2265 490.936 25.695 491.009ZM19.9679 500.397C22.1706 500.323 19.6742 501.864 19.9679 502.45C18.0589 502.744 20.5553 501.203 19.9679 500.397ZM7.70605 522.839C8.66056 524.672 6.60468 525.039 6.89838 526.506C4.98935 526.139 6.01729 523.059 7.70605 522.839ZM5.28304 527.752C6.45783 529.659 3.37402 529.513 3.66772 530.979C1.39156 530.466 3.37402 527.899 5.28304 527.752ZM-38.8449 538.387C-43.6175 534.94 -40.4602 528.706 -42.9566 524.085C-39.1386 526.212 -40.5336 533.913 -38.8449 538.387ZM-42.0756 512.278C-47.2887 512.131 -52.6486 512.351 -55.7325 508.024C-52.6486 508.317 -43.9846 506.117 -42.0756 512.278ZM-42.8832 505.751C-47.7292 504.357 -56.7604 506.557 -57.2009 499.663C-52.0612 500.983 -46.1139 500.543 -42.8832 505.751ZM-42.7364 492.109C-44.058 492.769 -45.0859 492.769 -45.967 492.549C-46.7013 491.156 -45.3062 490.863 -46.4076 489.322C-45.0125 489.836 -42.9566 489.249 -42.7364 492.109ZM-36.4219 472.308C-34.2192 471.868 -33.0444 470.914 -31.7227 470.034C-29.52 470.474 -32.7507 472.454 -30.9151 472.454C-32.0164 474.288 -35.9079 476.561 -36.4219 472.308ZM-35.7611 478.248C-33.3381 477.955 -32.8975 475.608 -30.8417 476.635C-31.0619 478.542 -31.8696 480.228 -34.0723 481.108C-34.88 480.522 -35.4674 479.715 -35.7611 478.248ZM-34.5863 485.949L-35.394 483.529C-32.8241 483.015 -33.4115 483.235 -31.1354 482.135C-30.9885 484.042 -31.5759 485.582 -34.5863 485.949ZM-34.9534 490.863C-33.7786 489.909 -32.971 488.809 -31.0619 488.222C-30.9151 491.229 -30.6948 494.163 -30.8417 497.023C-31.7962 497.39 -33.2646 497.536 -33.1178 498.417C-35.1737 497.17 -33.6318 493.429 -34.9534 490.863ZM-31.0619 500.47C-29.8871 502.597 -31.2088 503.477 -30.034 505.531C-30.9885 506.411 -31.943 507.291 -33.2647 507.951C-33.0444 505.237 -34.88 501.424 -31.0619 500.47ZM-32.0899 517.778C-32.0164 515.798 -31.8696 513.818 -32.8975 511.251C-30.9885 511.178 -31.5759 509.858 -30.034 509.638C-29.8137 512.791 -27.2439 518.658 -32.0899 517.778ZM-30.8417 525.552C-30.4011 524.599 -30.8417 523.132 -31.4291 521.665C-30.3277 522.179 -29.4466 521.445 -29.1529 520.272C-26.9502 521.372 -27.9781 525.186 -30.8417 525.552ZM-23.9398 554.448C-26.1425 551.588 -27.9781 546.161 -24.1601 543.667C-22.251 546.087 -24.8209 550.781 -23.9398 554.448ZM-27.7578 542.86C-27.0236 540.147 -23.3524 538.973 -21.6636 536.773C-20.7091 539.927 -25.7754 542.86 -27.7578 542.86ZM-21.0762 534.5C-24.0866 533.62 -24.9677 537.433 -28.8592 537.8C-28.9326 533.693 -23.0587 532.52 -20.7091 529.659C-19.4609 529.879 -21.4434 532.886 -21.0762 534.5ZM-16.8176 482.062L-17.2582 480.815C-15.0555 481.622 -16.8911 484.702 -15.2023 486.902C-16.6708 488.222 -18.9469 489.102 -19.3141 491.009C-17.1848 492.769 -16.8911 490.643 -14.1744 489.982C-14.7618 491.083 -13.8807 492.843 -13.3667 494.456C-14.3212 494.823 -15.7897 494.97 -15.6429 495.85C-15.8631 498.343 -13.4401 495.556 -13.2198 497.096C-11.2374 509.124 -17.5519 517.045 -19.5343 527.092C-23.7195 527.532 -26.9502 532.813 -29.9606 530.539C-28.4921 525.332 -21.6636 525.259 -19.9749 519.758C-21.9573 518.365 -23.2055 521.519 -25.4817 521.592C-25.0411 520.638 -25.4817 519.172 -26.0691 517.705C-23.5727 517.485 -23.8664 514.698 -21.9573 515.651C-22.765 512.278 -24.16 514.111 -26.2159 515.065C-26.2159 508.464 -31.5759 499.15 -25.188 495.703C-25.2614 494.31 -28.5655 492.696 -27.4641 495.116C-29.8871 491.743 -29.1529 485.435 -26.0691 483.089C-26.5831 482.062 -27.611 482.062 -28.9326 482.648C-29.5934 479.935 -25.8488 479.422 -25.2614 477.368C-23.4992 478.101 -24.8209 481.988 -22.6181 483.309C-20.9294 481.842 -19.1672 482.502 -16.8176 482.062ZM-8.66755 410.702C-10.4297 409.602 -9.62206 405.495 -10.5032 403.148C-7.34592 402.195 -5.51031 399.555 -4.40894 399.041C-1.98595 402.855 -6.02428 407.769 -8.66755 410.702ZM-12.3388 399.701C-13.4401 404.468 -12.6325 412.096 -11.5311 416.423C-8.5207 413.416 -8.08015 412.316 -4.18867 409.896C-3.381 417.596 -5.51031 423.83 -5.21661 431.311C-9.84234 434.244 -14.1744 437.398 -16.8176 441.285C-14.3212 442.825 -9.76891 437.618 -7.05222 436.004C-4.99635 438.571 -8.59412 442.752 -11.7514 444.365C-11.7514 446.419 -9.98919 445.025 -8.88783 444.805C-10.3563 456.1 -20.4154 468.054 -16.5974 478.688C-17.5519 479.568 -19.9749 478.175 -21.2965 480.962C-23.5727 479.495 -23.2055 474.948 -23.3524 472.821C-26.0691 474.948 -25.2614 475.681 -28.6389 477.295C-30.548 472.968 -24.2335 472.674 -23.7195 469.521C-25.3348 468.274 -26.5831 471.428 -29.2263 471.354C-29.3732 468.201 -26.2894 466.734 -25.5551 464.02C-30.034 466.147 -30.548 468.127 -36.2016 468.934C-36.1282 467.467 -35.3205 466.294 -36.4219 464.24C-30.2543 462.773 -24.5272 457.933 -20.9294 453.606C-25.702 454.119 -29.0795 459.547 -33.5583 460.573C-32.0164 458.446 -29.4466 456.833 -28.0515 454.633C-31.2088 453.386 -31.6493 457.933 -35.8345 457.933L-36.8624 454.853C-27.8313 448.986 -19.828 442.605 -14.2478 435.051C-15.1289 433.731 -17.9924 436.371 -18.9469 435.271C-18.7267 433.511 -19.2406 431.384 -19.5343 429.331C-21.2965 431.311 -20.7091 434.538 -24.2335 435.638C-23.7929 434.684 -24.2335 433.218 -24.8209 431.751C-22.6916 430.577 -21.8105 428.817 -20.1217 427.497C-21.6636 425.957 -22.6181 428.891 -24.3803 428.891C-25.7754 428.01 -24.6006 428.084 -25.188 426.47C-26.5831 432.337 -29.8871 434.391 -36.6422 437.105C-36.7156 435.711 -35.6877 434.831 -36.6422 432.998C-32.8241 430.797 -29.2998 428.524 -28.4921 424.857C-30.7682 425.297 -33.3381 428.964 -36.4219 429.551C-37.1561 428.157 -35.7611 427.864 -36.8624 426.324C-30.1074 421.41 -22.3979 416.863 -19.0938 410.189C-24.0866 412.462 -28.7858 419.283 -36.2016 421.997C-37.6701 419.356 -35.6877 418.55 -36.789 416.056C-29.2263 412.096 -22.6181 406.889 -18.6532 401.168C-16.8911 398.601 -16.7442 394.054 -12.9262 393.834C-13.8807 395.081 -15.3492 396.034 -14.982 397.941C-11.5311 397.648 -8.37386 392.734 -5.21661 390.607C-2.05938 393.834 -8.59412 401.461 -12.3388 399.701ZM-43.3238 459.693C-43.1769 461.453 -43.2503 463.14 -43.7643 464.607C-46.5544 464.9 -45.6733 460.573 -46.0405 459.913C-44.9391 459.473 -44.4251 460.207 -43.3238 459.693ZM-36.4219 460.06L-35.1737 459.62C-34.4394 460.793 -35.6877 461.087 -36.5687 461.453C-36.6422 460.94 -36.2016 460.72 -36.4219 460.06ZM-66.5992 442.972C-72.0326 442.385 -69.3894 433.878 -72.3263 427.864C-74.4556 429.844 -72.1061 434.098 -71.8858 437.251C-76.3647 436.225 -75.1899 431.457 -77.3926 428.891C-78.8611 429.991 -77.7597 432.411 -77.6129 434.391C-85.763 434.904 -84.8819 418.55 -88.2594 412.756C-87.5251 411.362 -84.735 414.443 -82.5323 413.563C-84.0742 412.169 -91.1963 407.035 -89.6544 402.342C-88.1859 402.855 -86.4972 402.782 -85.9832 405.202C-73.648 409.456 -61.7532 414.589 -47.4355 414.736C-46.995 416.863 -44.4251 414.809 -44.3517 417.816C-55.8059 421.923 -65.0573 413.049 -75.1899 411.069C-68.0677 417.23 -55.2919 420.97 -44.1314 422.437C-44.7188 423.537 -43.544 425.444 -44.1314 426.544C-53.1626 425.81 -60.6519 422.143 -69.2425 420.676C-65.6447 424.343 -56.8338 426.47 -50.4459 428.01C-50.2991 429.257 -51.841 429.697 -50.6662 431.457C-52.2815 429.404 -52.9423 430.504 -52.0612 433.291C-55.8059 433.731 -58.5226 428.671 -62.0469 431.897C-61.9735 430.577 -61.7532 429.331 -62.0469 427.79C-65.4244 432.044 -60.8722 440.258 -63.8825 444.732C-66.3055 438.278 -66.8195 433.658 -66.9664 429.477C-70.0502 432.411 -67.4803 438.131 -66.5992 442.972ZM-71.5187 438.498C-70.7844 439.892 -72.1795 440.185 -71.0781 441.725C-72.62 442.458 -74.6025 438.351 -71.5187 438.498ZM-87.8923 397.721C-85.0287 396.768 -81.9449 399.555 -82.7526 402.782C-84.0008 402.562 -85.0287 401.901 -86.4238 401.975L-87.8923 397.721ZM-51.5473 388.334C-51.841 387.454 -50.0788 385.107 -51.9878 385.107C-50.0788 381.953 -46.7013 386.867 -46.481 387.38C-47.2153 389.727 -49.9319 387.6 -51.5473 388.334ZM-51.1802 340.59C-41.4882 369.192 -40.9742 395.668 -39.9463 423.17C-43.9846 397.061 -44.3517 368.385 -51.1802 340.59ZM-57.8618 377.553C-54.3374 377.333 -51.841 379.02 -48.4635 379.166C-49.7117 382.907 -58.3023 380.486 -57.8618 377.553ZM-78.9345 367.579C-80.6967 367.725 -81.8715 366.625 -83.4134 366.332C-84.2945 360.978 -83.8539 357.164 -83.6336 351.444C-74.8962 354.011 -66.9664 358.191 -58.5226 361.418C-57.4212 361.858 -55.8793 360.758 -55.8793 363.251C-63.0014 362.811 -68.0677 358.338 -75.2633 358.191C-73.134 360.171 -73.2808 364.205 -72.9871 368.972C-74.8227 369.925 -75.1899 367.872 -76.6583 368.165C-78.1268 363.031 -77.0989 359.144 -77.9066 354.304C-81.798 357.018 -78.1268 362.371 -78.9345 367.579ZM-57.0541 343.303C-57.4946 341.69 -55.2919 341.103 -54.1905 341.69C-54.1171 343.89 -55.2919 342.35 -57.0541 343.303ZM-56.4667 357.311C-57.4946 359.071 -59.6239 356.871 -61.3861 356.871C-61.8267 352.911 -62.4875 348.877 -64.2497 344.257C-57.9352 343.45 -58.8897 353.424 -56.4667 357.311ZM-55.659 347.557L-53.236 346.75L-52.2081 349.83C-53.9703 350.27 -55.3653 349.977 -55.659 347.557ZM-54.1905 353.864C-51.2536 353.131 -51.5473 356.798 -51.1067 358.924C-54.0437 360.318 -54.1905 355.477 -54.1905 353.864ZM-71.5921 361.051C-66.379 360.538 -68.1411 366.258 -66.3055 370.805C-67.4069 369.999 -68.8754 369.852 -70.5641 370.219C-72.1795 366.478 -71.6655 363.838 -71.5921 361.051ZM-66.0118 363.251C-62.1938 363.398 -60.4316 367.872 -61.0924 371.832C-66.379 372.272 -65.1308 366.112 -66.0118 363.251ZM-55.4388 372.639C-57.1275 373.299 -57.4946 371.246 -59.11 371.832C-60.2113 369.559 -59.0365 368.459 -60.3582 366.112C-55.5122 364.058 -56.9072 369.412 -55.4388 372.639ZM-54.9982 367.725C-51.1067 367.065 -48.8306 369.192 -48.904 373.812C-50.1522 373.226 -51.6941 373.299 -53.1626 373.226L-54.9982 367.725ZM-52.7955 364.278C-52.8689 362.298 -52.1347 363.251 -50.5193 362.885C-49.2711 364.792 -52.2081 364.572 -52.7955 364.278ZM-60.3582 376.306L-59.7708 378.139C-64.1762 379.093 -66.379 375.719 -70.197 375.499C-68.5817 371.759 -63.8825 377.406 -60.3582 376.306ZM-27.6844 398.748C-27.097 398.601 -26.9502 399.335 -26.6565 399.775C-25.9222 405.568 -33.1178 407.402 -35.6142 411.582C-38.5512 406.522 -29.6669 403.002 -27.6844 398.748ZM-49.0509 409.969C-47.3621 410.849 -47.0684 409.235 -46.1873 408.355C-46.3342 405.789 -49.0509 406.889 -48.0229 404.908C-46.7747 404.542 -46.7013 406.302 -45.1594 405.348C-44.7923 407.402 -45.2328 409.089 -44.572 411.289C-46.5544 411.656 -48.39 411.949 -49.0509 409.969ZM-52.1347 410.922L-52.9423 408.502C-52.3549 408.649 -51.7676 408.795 -50.8865 408.502C-51.4004 409.309 -50.3725 410.849 -52.1347 410.922ZM-45.5999 399.921C-44.7188 402.855 -46.7013 401.168 -48.8306 402.342C-49.1243 400.288 -50.5928 400.801 -49.8585 399.261C-48.0963 398.748 -47.8026 401.241 -45.5999 399.921ZM-55.5856 404.615C-57.1275 405.055 -58.596 405.495 -58.2289 406.889C-57.3478 408.209 -54.8514 406.302 -54.7779 409.162C-55.8793 410.849 -58.5226 409.162 -60.2848 408.942C-61.533 405.935 -61.6798 403.515 -61.533 401.168C-59.6239 402.488 -56.5401 401.315 -55.5856 404.615ZM-62.5609 408.282C-64.3965 408.869 -65.2042 407.402 -66.8195 407.695C-68.0677 404.542 -67.4803 402.268 -68.288 399.335C-63.1483 398.235 -62.7812 404.102 -62.5609 408.282ZM-68.8754 405.642C-70.711 406.595 -71.5921 405.568 -72.9871 405.642C-74.6025 402.268 -74.1619 399.995 -75.2633 396.841C-71.1515 394.714 -68.9488 400.508 -68.8754 405.642ZM-44.572 429.477C-42.7364 429.477 -44.7923 431.677 -43.3238 433.144L-47.5824 434.538C-48.3166 432.484 -49.1977 430.357 -48.0229 429.257C-46.1873 427.35 -44.9391 431.751 -44.572 429.477ZM-61.9001 432.557C-55.5122 432.484 -58.7428 441.578 -58.0086 446.199C-62.5609 445.465 -61.3127 436.298 -61.9001 432.557ZM-56.8338 435.638C-50.2256 433.804 -52.7955 443.558 -51.327 448.106C-52.8689 447.812 -54.264 447.225 -55.8059 446.859C-56.2464 443.045 -56.0996 439.525 -56.8338 435.638ZM-49.8585 438.058C-50.4459 438.205 -50.5928 437.471 -50.8865 437.031C-50.2991 436.885 -50.1522 437.618 -49.8585 438.058ZM-40.5336 433.584C-39.9463 433.438 -39.7994 434.171 -39.5057 434.611C-40.0931 434.758 -40.1665 434.024 -40.5336 433.584ZM-50.8865 439.085C-50.2991 438.938 -50.1522 439.671 -49.8585 440.111C-50.5193 440.258 -50.5928 439.525 -50.8865 439.085ZM-47.2153 443.999L-44.1314 442.972C-44.4986 442.312 -44.3517 441.872 -43.9112 441.578C-43.9846 438.645 -47.0684 441.798 -47.3621 439.305C-46.7013 438.938 -47.2153 438.571 -47.5824 438.718C-47.0684 436.445 -44.572 438.791 -43.1035 437.911C-43.544 440.918 -42.8832 444.439 -43.3238 447.519L-46.995 448.766C-47.5089 446.932 -46.7747 445.759 -47.2153 443.999ZM-26.8033 433.804C-23.6461 438.791 -32.3101 441.945 -36.4219 443.778C-37.1561 442.385 -35.7611 442.092 -36.8624 440.552C-33.4849 439.378 -29.52 436.665 -26.8033 433.804ZM-28.2718 441.725C-25.4817 439.451 -22.765 437.325 -21.1497 434.611C-18.2127 437.178 -23.2055 439.305 -25.6285 441.578C-28.9326 444.585 -31.6493 448.399 -36.0548 449.132C-35.3205 445.612 -30.9885 443.999 -28.2718 441.725ZM-43.544 452.946C-42.4427 454.486 -43.9112 454.853 -43.1035 456.173C-44.1314 455.806 -45.5265 456.32 -46.5544 455.953C-46.2607 454.266 -46.995 454.853 -46.995 452.726C-46.0405 453.093 -44.572 452.579 -43.544 452.946ZM-6.24455 381.366C-8.66755 381.88 -8.59412 383.567 -9.10809 385.033C-8.59412 386.354 -7.12564 385.84 -5.65716 385.253C-5.95085 387.014 -7.49276 388.04 -9.10809 389.14C-11.0905 383.347 -12.0451 381.22 -13.587 375.719C-11.6045 374.839 -9.91576 373.812 -9.32836 372.272C-7.49276 374.106 -7.9333 376.453 -6.24455 381.366ZM-15.4226 351.811C-18.433 356.798 -22.1042 361.418 -25.6285 366.112C-20.7825 365.305 -18.2127 358.924 -14.0275 356.138L-12.4122 361.051C-17.3316 365.232 -20.6357 370.219 -24.0132 375.133C-19.0938 373.666 -14.7618 367.505 -11.5311 363.472C-9.98918 363.472 -10.136 366.845 -9.25494 368.165C-11.5311 370.292 -12.9996 372.786 -16.01 374.472C-13.3667 379.533 -13.073 384.667 -10.0626 392.221C-10.9437 392.441 -11.8248 392.734 -11.6779 393.467C-12.6325 390.387 -15.5694 385.107 -17.405 378.359C-19.3141 382.467 -12.1919 391.121 -17.7721 393.467C-20.1951 393.467 -21.4434 387.014 -21.2231 385.107C-24.5272 388.48 -19.3875 393.321 -20.6357 397.134C-22.0308 397.941 -22.765 399.115 -23.7195 400.215C-25.188 400.435 -24.9677 397.281 -25.7754 396.108C-23.7195 395.961 -25.188 394.054 -23.1321 393.834C-24.674 393.834 -26.4362 395.301 -27.611 392.587C-28.9326 393.101 -27.0236 395.301 -27.0236 396.474C-30.4011 398.821 -32.8241 401.755 -36.789 403.808C-37.8904 402.122 -36.3485 401.681 -37.3764 399.921C-32.6038 397.574 -30.6948 393.761 -28.4187 390.167C-30.6948 390.387 -33.8521 394.568 -36.5687 396.254C-40.0197 391.267 -31.2088 388.04 -30.6214 383.42C-33.4115 384.887 -35.394 386.794 -37.7435 388.554C-44.2783 373.739 -27.8313 368.312 -23.6461 357.384C-23.9398 356.944 -24.4538 356.944 -24.674 356.358C-24.8943 355.037 -26.4362 357.091 -26.2894 357.604C-27.6844 357.018 -28.5655 355.331 -29.1529 353.131C-27.9781 351.077 -25.4083 351.664 -25.2614 348.437C-23.5727 349.757 -22.251 351.884 -20.7825 353.717C-16.3771 351.957 -25.8488 345.137 -20.1951 343.303C-18.433 345.503 -17.8456 350.49 -15.4226 351.811ZM-26.2894 345.943C-28.4921 347.263 -28.3452 351.811 -31.3556 351.077C-31.5759 353.571 -29.8871 356.504 -28.2718 358.191C-28.7858 358.778 -29.2997 359.364 -29.7403 359.951C-31.1354 356.431 -31.943 351.517 -34.8066 350.857C-34.366 354.157 -32.8241 357.164 -31.5025 360.611L-29.8137 360.025C-32.8975 363.912 -35.394 368.019 -40.3134 371.026C-42.0021 361.785 -43.9112 347.777 -47.6558 340.883C-46.9216 338.243 -44.4251 336.409 -43.1769 333.916C-41.635 333.182 -41.9287 336.116 -40.0931 334.942C-37.8904 333.549 -40.6805 332.816 -40.9008 330.469C-39.0652 330.029 -39.1386 328.635 -38.4778 327.608C-33.8521 330.395 -28.5655 337.803 -32.7507 342.716C-30.2543 342.496 -30.548 339.709 -28.6389 340.663C-28.2718 343.083 -26.5831 343.23 -26.2894 345.943ZM-71.5921 320.274C-68.1411 320.421 -68.6551 322.695 -67.4803 326.362C-70.1236 326.582 -71.9592 323.208 -71.5921 320.274ZM-73.2074 323.501C-76.2912 323.868 -76.5849 319.101 -76.071 316.974C-73.2808 317.488 -72.8403 320.788 -73.2074 323.501ZM-57.2744 330.395C-59.4771 330.762 -59.4771 326.728 -60.5785 324.675C-58.3023 324.308 -58.3023 328.415 -57.2744 330.395ZM-43.6175 316.387L-42.3693 320.054C-45.5265 322.401 -46.8481 325.628 -49.1243 328.415C-51.6207 324.235 -45.5265 319.981 -43.6175 316.387ZM-62.7812 328.195C-65.7916 329.369 -67.1866 324.015 -65.4244 322.255C-63.956 323.061 -63.6623 326.142 -62.7812 328.195ZM-74.6025 331.422C-75.1164 329.295 -74.8227 327.608 -76.071 325.115C-72.8403 324.821 -72.7669 330.029 -74.6025 331.422ZM-70.9313 328.195C-68.7285 328.268 -65.7181 330.762 -66.4524 333.476C-69.3894 334.649 -70.0502 331.055 -70.9313 328.195ZM-64.2497 332.082C-62.1938 330.982 -61.7532 333.256 -61.1658 335.162C-64.2497 335.969 -62.6343 333.329 -64.2497 332.082ZM-57.4946 333.916C-56.7604 334.429 -56.173 335.309 -55.8793 336.776C-57.4946 338.316 -59.9911 334.209 -57.4946 333.916ZM-49.3445 331.862C-45.2328 329.662 -43.7643 323.428 -40.9742 322.255C-40.8273 322.988 -40.4602 323.281 -39.9463 323.281C-42.2958 327.388 -44.572 331.495 -48.3166 334.942L-49.3445 331.862ZM-51.5473 339.416C-51.2536 338.536 -51.2536 337.509 -51.9878 336.189C-51.0333 335.676 -49.418 339.709 -51.5473 339.416ZM-24.2335 335.676C-23.7195 337.656 -22.251 337.876 -21.9573 340.37C-23.0587 341.03 -23.0587 342.203 -24.6006 342.643C-24.8943 340.223 -26.5096 340.37 -26.8767 337.949C-24.8209 337.803 -26.2894 335.896 -24.2335 335.676ZM-27.4641 330.029C-26.7299 330.542 -26.1425 331.422 -25.8488 332.889C-26.4362 333.769 -27.9047 334.209 -27.6844 335.529C-29.52 335.749 -29.8137 332.962 -30.9885 331.862C-28.9326 331.642 -29.52 330.175 -27.4641 330.029ZM-39.3589 310.814C-36.0548 316.754 -32.0899 321.448 -28.9326 327.755C-31.0619 326.655 -30.548 329.149 -32.3836 329.589C-35.3205 324.235 -40.3868 320.421 -38.4778 315.287C-39.9463 314.774 -41.7819 315.067 -42.149 312.427C-40.6071 312.207 -41.2679 310.887 -39.3589 310.814ZM-41.1945 309.42C-46.1139 313.087 -47.4355 318.514 -51.7675 322.475L-53.0158 318.808C-48.4635 315.141 -47.2152 309.787 -43.0301 305.973C-42.5161 307.367 -41.3413 307.44 -41.1945 309.42ZM-53.3829 315.507C-57.3478 309.787 -48.4635 306.047 -48.0963 300.839C-41.4882 304.873 -51.4739 311.034 -53.3829 315.507ZM-49.3445 299.226C-52.2081 302.013 -52.5752 306.12 -56.4667 308.393C-57.9352 302.38 -53.1626 299.519 -52.2081 294.752C-55.5856 294.606 -56.9807 299.373 -58.7428 301.719C-61.6064 298.199 -55.9527 294.606 -55.5122 291.085C-53.1626 293.285 -50.7396 295.266 -49.3445 299.226ZM-56.4667 290.058C-59.4037 290.792 -59.5505 292.919 -60.3582 294.752C-64.4699 291.525 -58.596 288.812 -59.3302 285.585C-57.9352 286.171 -57.1275 287.858 -56.4667 290.058ZM-62.7812 287.418C-65.351 281.844 -67.774 278.764 -71.1515 270.477C-67.2601 275.977 -59.5505 280.891 -62.7812 287.418ZM-93.1788 324.748C-90.6089 311.107 -84.3679 299.226 -81.798 285.585C-79.9624 285.585 -78.5674 286.612 -76.6583 286.612C-76.071 284.411 -79.3016 282.798 -80.917 281.918C-80.5498 276.637 -77.8331 272.604 -77.6863 267.25C-71.3718 276.271 -71.4452 287.052 -66.4524 298.859C-71.3718 298.493 -68.3614 291.379 -71.9592 290.499C-73.3543 291.672 -73.134 293.652 -72.1795 295.999C-74.8227 296.586 -75.9975 294.019 -78.2737 293.945C-75.1164 303.993 -64.0294 298.126 -62.3406 311.034C-69.5362 309.493 -74.9696 304.36 -82.1652 302.673C-78.2737 308.54 -69.3894 313.234 -61.7532 314.921C-60.505 317.047 -61.533 318.074 -60.7253 319.981C-63.0749 320.641 -62.6343 315.581 -64.3965 315.067C-67.4803 316.021 -64.1762 316.974 -65.2042 318.734C-68.6551 315.727 -75.9241 317.488 -76.8786 310.374C-79.4485 311.107 -77.0989 313.527 -80.1093 312.794C-77.3192 316.241 -78.2003 323.428 -78.2737 328.488C-80.1093 329.075 -80.917 327.608 -82.5323 327.902C-82.4589 323.721 -82.1652 319.614 -83.5602 314.627C-85.3224 317.854 -84.0008 322.548 -85.1756 326.068C-87.9657 325.115 -90.5355 323.061 -93.1788 324.748ZM-91.1963 328.782C-90.7558 327.022 -88.4796 330.102 -86.9377 329.369C-87.672 331.935 -90.095 329.222 -91.1963 328.782ZM-95.2347 330.835C-91.4166 331.569 -87.3783 333.696 -88.4796 338.756C-91.9306 337.363 -97.6577 335.236 -95.2347 330.835ZM-97.0703 337.583C-94.2067 338.023 -92.4446 340.516 -88.9202 339.636C-89.8747 347.63 -91.49 355.331 -91.7837 363.692C-93.5459 364.792 -93.5459 362.371 -95.2347 363.472C-95.5284 362.005 -95.0144 360.831 -96.0423 358.998C-93.6193 359.805 -91.7103 354.451 -93.1788 353.277C-93.5459 352.544 -95.3081 353.057 -95.0144 353.864C-98.3185 349.464 -97.9514 342.716 -97.0703 337.583ZM-100.154 361.051C-99.3464 358.044 -99.9338 354.377 -99.3464 351.297C-95.4549 352.031 -96.6297 359.438 -98.5388 361.931C-98.6122 360.758 -99.3464 360.831 -100.154 361.051ZM-101.549 375.133C-96.0423 377.406 -90.2418 379.093 -84.5882 381.073C-87.3049 374.619 -103.825 376.306 -100.962 364.792C-96.336 366.112 -90.4621 368.532 -86.4238 368.019C-86.3503 367.872 -86.3503 367.725 -86.2769 367.579C-86.5706 365.525 -88.5531 366.992 -89.067 365.525C-88.6999 356.724 -91.49 346.31 -85.1756 340.443C-86.2769 338.389 -85.4693 337.216 -85.3958 335.749C-83.7071 336.189 -82.5323 337.509 -80.2561 336.776C-80.0359 334.576 -85.5427 335.089 -85.7629 330.469C-79.9624 334.209 -73.0606 335.602 -67.1866 339.196C-64.3965 339.123 -61.6798 339.049 -60.2113 341.616C-64.1762 342.13 -66.0118 338.169 -70.4173 339.563C-64.9839 342.056 -66.4524 348.95 -63.6623 355.698C-71.1515 353.644 -78.2003 350.71 -85.3224 347.997C-85.3958 354.597 -84.5147 361.711 -86.2035 367.579C-86.2035 367.725 -86.1301 367.799 -86.1301 367.945C-86.2035 367.945 -86.2769 367.945 -86.2769 367.945C-86.3503 368.239 -86.4238 368.459 -86.4972 368.752C-84.0742 369.559 -78.2737 367.579 -78.3471 372.859C-75.9975 371.686 -76.5849 371.906 -74.0885 371.466C-75.2633 373.886 -71.2984 371.099 -71.6655 374.692C-74.0885 374.399 -76.4381 374.106 -78.7877 373.666C-73.3543 378.066 -62.3406 380.266 -54.4842 383.273L-53.0892 387.527C-56.6135 388.114 -58.3023 385.107 -62.2672 386.5C-57.9352 390.461 -51.4004 389.874 -46.5544 392.807C-45.5999 394.641 -46.6279 395.521 -46.5544 396.914C-51.5473 396.548 -50.0788 399.555 -52.5018 401.608C-52.7221 401.021 -53.3829 401.388 -53.8969 401.388C-55.4388 398.088 -54.4842 396.034 -55.3653 393.027C-58.4492 394.054 -55.1451 398.235 -56.3933 400.141C-58.4492 400.508 -59.3302 398.528 -61.4595 399.115C-62.4875 397.281 -61.9735 396.108 -62.2672 394.641C-63.956 395.008 -64.0294 396.181 -63.2951 397.721C-65.5713 398.161 -66.7461 396.401 -68.5817 396.108C-69.7565 394.054 -68.2146 392.221 -70.197 391.194C-71.7389 391.781 -70.711 393.614 -70.197 395.301C-73.648 394.788 -75.7038 394.421 -76.1444 389.8C-77.8331 390.167 -77.3192 391.634 -77.1723 392.881C-78.494 393.101 -78.9345 391.634 -80.2561 391.854C-77.98 393.981 -75.7773 398.601 -75.3367 404.468C-77.1723 405.055 -77.98 403.588 -79.5953 403.882C-81.3575 398.088 -82.4589 392.587 -82.2386 387.747C-85.8364 388.847 -82.5323 393.394 -82.826 396.108C-85.5427 397.428 -86.2769 394.861 -88.5531 395.301C-89.3607 388.774 -89.067 387.38 -92.2243 382.246C-93.913 380.78 -92.7382 385.033 -94.6473 385.107C-97.9514 382.32 -102.724 381.146 -101.549 375.133ZM-100.301 388.994C-100.595 387.527 -100.081 386.353 -101.109 384.52C-98.1716 383.787 -97.2905 387.087 -94.3536 386.353C-93.5459 389.36 -94.1333 388.7 -93.1054 392.074C-96.1892 392.221 -97.9514 390.021 -100.301 388.994ZM-98.9059 401.388L-96.4829 400.581C-98.3919 397.281 -100.228 397.134 -99.787 392.807C-93.0319 393.247 -93.0319 399.188 -91.7837 406.449C-94.5739 405.642 -97.8045 405.642 -98.9059 401.388ZM-96.4095 412.829C-97.364 410.996 -96.0423 410.336 -97.2171 408.355C-95.3081 408.649 -94.0599 410.189 -91.9306 409.969C-90.4621 412.756 -91.5635 414.223 -90.3152 416.936C-92.5914 415.983 -94.2067 413.783 -96.4095 412.829ZM-91.7103 428.891C-91.9306 424.784 -93.6928 422.877 -94.5739 418.256C-88.0391 418.77 -88.7733 423.39 -86.4238 430.504C-88.6999 431.091 -89.581 428.671 -91.7103 428.891ZM-90.3152 433.218C-87.2314 433.584 -84.3679 434.244 -83.5602 439.158C-86.2035 437.911 -89.3607 437.765 -90.3152 433.218ZM-61.9001 508.024C-61.9001 498.05 -66.5992 485.215 -70.9313 477.075C-69.4628 477.075 -68.3614 476.708 -67.2601 475.828C-69.2425 474.654 -70.0502 472.014 -71.9592 473.994C-73.5745 474.875 -72.62 470.474 -74.2353 471.354C-72.9871 469.961 -68.9488 471.648 -67.1132 472.381C-66.1587 469.961 -67.9943 468.347 -69.9767 463.8C-72.106 464.46 -71.0047 466.66 -70.4173 468.714C-72.4732 468.714 -73.2808 466.22 -76.1444 467.907C-81.2841 457.126 -83.4868 450.012 -87.158 440.992C-84.0008 441.505 -81.798 443.925 -79.8156 446.712C-76.8786 444.072 -80.917 441.212 -81.2841 436.298C-79.7422 436.591 -78.3471 437.178 -76.8052 437.545C-76.2178 447.372 -66.8929 448.032 -59.8442 449.572C-58.6694 449.792 -57.4212 450.232 -57.5681 452.213C-53.9703 449.352 -53.4563 452.799 -50.0054 452.433C-50.2991 453.313 -50.2991 454.339 -49.5648 455.66C-59.9911 455.806 -66.8195 448.619 -77.0989 448.546C-68.4348 452.579 -59.8442 456.906 -49.9319 458.52C-49.418 460.5 -48.0229 462.847 -48.6837 464.24C-56.3199 463.287 -62.4141 459.106 -69.9033 457.64C-71.6655 459.767 -68.6551 459.473 -68.288 462.553C-66.8195 462.26 -66.0118 461.673 -66.2321 460.5C-58.8163 463.287 -52.0612 467.467 -43.3972 467.834C-42.2224 469.961 -43.9112 470.621 -43.1769 472.528C-49.8585 471.574 -56.173 469.961 -62.3406 468.054C-62.1938 471.501 -56.173 472.088 -53.1626 473.114C-54.7045 475.241 -53.3829 478.762 -53.75 481.475C-49.8585 481.988 -51.1802 477.001 -52.3549 473.554C-48.6837 473.041 -46.3342 475.168 -43.3972 475.975C-42.9566 479.275 -43.9846 481.768 -42.9566 485.362C-44.4251 485.655 -45.7468 485.435 -47.0684 485.362C-47.0684 483.162 -47.1418 480.888 -44.7923 479.862C-45.4531 476.781 -48.6837 478.175 -47.8761 474.801C-50.8865 475.168 -47.5089 478.762 -50.5193 479.055C-48.8306 480.668 -49.1243 482.282 -48.6837 484.555C-51.7676 485.582 -53.3829 483.749 -55.8059 483.529C-56.9807 480.228 -57.4212 477.295 -57.4212 474.581C-60.1379 475.755 -58.0086 479.422 -57.6415 482.135C-58.5226 483.602 -58.9631 482.062 -59.9176 483.529C-56.5401 488.076 -50.7396 485.582 -48.6837 490.643C-52.6486 492.916 -57.3478 488.442 -61.7532 488.222C-62.1204 488.736 -62.5609 489.176 -63.3686 489.469C-58.9631 492.916 -53.0158 493.283 -47.8761 495.19C-47.7292 495.923 -48.39 495.703 -48.4635 495.41C-49.7117 495.996 -47.7292 498.123 -48.6837 498.857C-45.1594 498.93 -46.7747 496.436 -45.0125 495.556C-44.7923 496.143 -44.1314 495.776 -43.6175 495.776C-42.5161 497.463 -44.058 497.903 -43.0301 499.663C-49.1243 500.323 -53.6032 497.683 -58.5226 495.996C-59.4037 494.09 -59.9176 491.229 -62.4141 492.549C-62.1204 495.923 -60.2113 501.717 -58.5226 508.244C-60.1379 509.271 -60.1379 506.924 -61.9001 508.024ZM-61.9001 510.078C-60.3582 510.371 -58.9631 510.958 -57.4212 511.324C-58.2289 513.011 -56.5401 515.578 -55.5856 516.825C-54.264 516.165 -52.8689 515.505 -53.9703 513.598C-49.8585 514.111 -46.4076 516.165 -42.149 516.458C-41.8553 517.925 -42.3693 519.098 -41.3413 520.932C-42.7364 521.005 -43.9846 520.785 -44.2049 518.512C-49.3445 524.232 -56.9072 513.084 -58.8897 519.318C-61.533 517.338 -60.3582 513.011 -61.9001 510.078ZM-58.596 519.832C-54.0437 520.565 -50.6662 523.645 -45.7468 523.719C-45.4531 525.186 -45.967 526.359 -44.9391 528.193C-51.4004 528.853 -58.7428 526.359 -58.596 519.832ZM-53.8969 529.806C-50.7396 529.879 -48.7572 532.373 -45.0859 531.639C-43.6175 533.473 -45.0125 536.333 -43.4706 536.553C-47.1418 539.267 -54.1171 534.866 -53.8969 529.806ZM-47.5824 540.587C-45.8202 540.514 -43.9112 540.074 -42.6629 541.027C-41.7819 544.987 -46.9216 542.787 -47.5824 540.587ZM-36.9359 545.941C-38.1841 545.354 -38.8449 543.594 -39.5791 542.054C-37.4498 540.807 -37.8904 544.694 -36.9359 545.941ZM-40.24 550.414C-41.0476 549.241 -42.3693 549.168 -42.6629 547.187C-40.24 546.087 -39.5057 548.361 -36.7156 546.601C-36.275 547.701 -37.0093 548.141 -36.4953 549.241C-38.0372 548.361 -37.9638 550.194 -40.24 550.414ZM-38.6246 553.275C-37.5233 552.981 -37.5967 552.101 -36.3485 551.881L-33.4849 560.462C-35.394 559.729 -36.6422 556.282 -38.6246 553.275ZM-27.9781 582.977C-26.6565 585.838 -29.4466 586.644 -29.3732 588.918C-31.5759 587.598 -30.2543 583.784 -27.9781 582.977ZM-31.2088 589.504C-30.1808 591.705 -30.4745 593.245 -32.457 593.978C-33.0444 591.998 -32.7507 590.458 -31.2088 589.504ZM-34.0723 595.225C-33.3381 595.152 -33.2646 596.325 -32.457 596.032C-32.0899 597.939 -33.2647 599.039 -34.5129 600.139C-35.6142 597.865 -33.7786 597.132 -34.0723 595.225ZM-38.5512 600.139C-36.7156 600.139 -39.5057 601.972 -38.9917 602.999C-41.4882 602.706 -37.8904 601.239 -38.5512 600.139ZM-35.3205 601.752C-34.88 603.366 -35.394 604.392 -36.9359 604.979C-36.275 604.026 -37.0827 602.266 -35.3205 601.752Z" fill="#BFD3B6" fill-opacity="0.6"/>
</svg>
