<svg width="111" height="113" viewBox="0 0 111 113" fill="none" xmlns="http://www.w3.org/2000/svg">
<path fill-rule="evenodd" clip-rule="evenodd" d="M38.2334 88.0488C18.0709 70.024 9.82199 46.5314 21.4974 24.5881C35.4916 -1.71337 40.2835 37.7259 61.773 30.7427C83.2624 23.7594 111.894 41.1173 97.2498 72.0458C83.5405 100.999 58.396 106.074 38.2334 88.0488Z" fill="#5FD788"/>
<path d="M96.9303 56.8629H93.3163V52.9414H96.9303V49.0198H93.3163V43.1374C93.3163 42.6175 93.1259 42.1185 92.7871 41.7509C92.4483 41.3833 91.9885 41.1767 91.5093 41.1767H87.8953V35.2943C87.8929 32.6788 87.2023 30.1183 85.9052 27.9142C84.608 25.71 82.7583 23.9523 80.573 22.8493L80.748 22.3416H80.7488C83.1052 15.5226 83.0302 7.99474 80.5383 1.23263C80.3294 0.666287 79.8897 0.237358 79.3484 0.0727869C78.8071 -0.0917797 78.2255 0.026393 77.7762 0.392293L73.4394 3.9217C70.3319 6.45054 66.8697 8.41917 63.1847 9.7525C59.4996 11.0865 55.6405 11.7658 51.7554 11.7649C47.0313 11.7641 42.4614 13.59 38.866 16.9145C35.2697 20.2391 32.8835 24.8452 32.134 29.9065C29.7647 30.6199 27.6376 32.0643 26.0113 34.0654C24.3858 36.0664 23.3307 38.5367 22.9749 41.1766H19.2293C18.2315 41.1766 17.4223 42.0546 17.4223 43.1374V49.0198H13.8083V52.9413H17.4223V56.8629H13.8083C12.8105 56.8629 12.0013 57.7409 12.0013 58.8237V92.1569C12.0038 94.2368 12.7661 96.23 14.1206 97.7005C15.4758 99.1702 17.3127 99.9974 19.2293 100H91.5094C93.4261 99.9974 95.263 99.1702 96.6181 97.7005C97.9726 96.2299 98.7349 94.2367 98.7374 92.1569V58.8237C98.7374 58.3037 98.547 57.8048 98.2082 57.4371C97.8694 57.0695 97.4096 56.8629 96.9304 56.8629L96.9303 56.8629ZM35.4923 33.3335H58.9833V29.412H35.8991C36.7187 25.5133 38.7331 22.0318 41.6138 19.5388C44.4944 17.0449 48.0707 15.6865 51.7555 15.6865C56.0285 15.6874 60.2742 14.9398 64.3279 13.4728C68.3815 12.0065 72.1899 9.84095 75.6079 7.0591L77.957 5.14735C79.3227 10.3529 79.1154 15.8967 77.3641 20.9649L77.1035 21.7186H77.1043C76.4888 21.6197 75.8685 21.5689 75.2465 21.5689H66.2115V25.4905H75.2465C77.6417 25.4931 79.9383 26.5269 81.6323 28.3651C83.3264 30.2033 84.279 32.6954 84.2815 35.2944V41.1767H26.6392C27.0587 38.9638 28.1679 36.9759 29.7805 35.5465C31.3939 34.1179 33.4106 33.3362 35.4927 33.3336L35.4923 33.3335ZM21.0363 52.9414H37.2993V49.0198H21.0363V45.0982H89.7023V49.0198H84.2813V52.9414H89.7023V56.8629H21.0363V52.9414ZM95.1233 92.157C95.1225 93.1969 94.7409 94.193 94.0633 94.9283C93.3857 95.6635 92.4677 96.0776 91.5093 96.0785H19.2293C18.271 96.0776 17.3529 95.6636 16.6753 94.9283C15.9978 94.193 15.6162 93.1968 15.6154 92.157V60.7845H95.1234L95.1233 92.157Z" fill="#424B25"/>
<path d="M40.9132 49.0198H80.6672V52.9413H40.9132V49.0198Z" fill="#424B25"/>
<path d="M55.3692 88.2354C57.7652 88.2354 60.0633 87.2025 61.7584 85.3644C63.4524 83.5253 64.4042 81.0314 64.4042 78.4315C64.4042 75.8316 63.4523 73.338 61.7584 71.4987C60.0635 69.6604 57.7652 68.6276 55.3692 68.6276C52.9733 68.6276 50.6752 69.6605 48.9801 71.4987C47.286 73.3378 46.3342 75.8316 46.3342 78.4315C46.3366 81.0305 47.2894 83.5226 48.9834 85.3608C50.6774 87.199 52.9741 88.2327 55.3692 88.2354ZM55.3692 72.5492C56.8068 72.5492 58.1863 73.1689 59.2026 74.2719C60.2188 75.3748 60.7901 76.8718 60.7901 78.4314C60.7901 79.9911 60.219 81.4882 59.2026 82.591C58.1861 83.6937 56.8066 84.3136 55.3692 84.3136C53.9319 84.3136 52.5522 83.6939 51.5359 82.591C50.5197 81.488 49.9483 79.9911 49.9483 78.4314C49.9499 76.8716 50.5219 75.3764 51.5383 74.2743C52.554 73.1714 53.9318 72.5508 55.3694 72.549L55.3692 72.5492Z" fill="#424B25"/>
</svg>
